<svg width="44" height="44" viewBox="0 0 44 44" fill="none" xmlns="http://www.w3.org/2000/svg">
<path fill-rule="evenodd" clip-rule="evenodd" d="M0.333008 21.9997C0.333008 10.0397 10.018 0.333008 21.978 0.333008C33.9597 0.333008 43.6663 10.0397 43.6663 21.9997C43.6663 33.9597 33.9597 43.6663 21.978 43.6663C10.018 43.6663 0.333008 33.9597 0.333008 21.9997ZM24.1663 13.333C24.1663 12.1413 23.1913 11.1663 21.9997 11.1663C20.808 11.1663 19.833 12.1413 19.833 13.333V21.9997C19.833 23.1913 20.808 24.1663 21.9997 24.1663C23.1913 24.1663 24.1663 23.1913 24.1663 21.9997V13.333ZM21.9997 39.333C12.423 39.333 4.66634 31.5763 4.66634 21.9997C4.66634 12.423 12.423 4.66634 21.9997 4.66634C31.5763 4.66634 39.333 12.423 39.333 21.9997C39.333 31.5763 31.5763 39.333 21.9997 39.333ZM19.833 28.4997V32.833H24.1663V28.4997H19.833Z" fill="#697489"/>
</svg>
