<svg width="13" height="13" viewBox="0 0 13 13" fill="none" xmlns="http://www.w3.org/2000/svg">
<path fill-rule="evenodd" clip-rule="evenodd" d="M12.2929 0.292925C12.6834 0.683449 12.6834 1.31661 12.2929 1.70714L1.70711 12.2929C1.31658 12.6834 0.683418 12.6834 0.292893 12.2929C-0.0976311 11.9024 -0.0976311 11.2692 0.292893 10.8787L10.8787 0.292925C11.2692 -0.0975996 11.9024 -0.0975996 12.2929 0.292925Z" fill="#959DAC"/>
<path fill-rule="evenodd" clip-rule="evenodd" d="M12.293 12.2929C11.9025 12.6834 11.2693 12.6834 10.8788 12.2929L0.292999 1.70711C-0.0975254 1.31658 -0.0975254 0.683417 0.292999 0.292893C0.683523 -0.0976311 1.31669 -0.097631 1.70721 0.292893L12.293 10.8787C12.6835 11.2692 12.6835 11.9024 12.293 12.2929Z" fill="#959DAC"/>
</svg>
