<svg width="21" height="20" viewBox="0 0 21 20" fill="none" xmlns="http://www.w3.org/2000/svg">
<path fill-rule="evenodd" clip-rule="evenodd" d="M8.21259 16C3.74213 16 0.118103 12.4183 0.118103 8C0.118103 3.58172 3.74213 0 8.21259 0C12.6831 0 16.3071 3.58172 16.3071 8C16.3071 9.79652 15.7079 11.4547 14.6963 12.7901L20.0143 17.9834C20.4676 18.4447 20.4676 19.1927 20.0143 19.654C19.5609 20.1153 18.8259 20.1153 18.3725 19.654L13.0258 14.4326C11.6805 15.4175 10.0154 16 8.21259 16ZM8.21255 13.5383C11.3075 13.5383 13.8164 11.0587 13.8164 7.99989C13.8164 4.94108 11.3075 2.46143 8.21255 2.46143C5.11761 2.46143 2.60867 4.94108 2.60867 7.99989C2.60867 11.0587 5.11761 13.5383 8.21255 13.5383Z" fill="white"/>
</svg>
