<svg width="20" height="30" viewBox="0 0 20 30" fill="none" xmlns="http://www.w3.org/2000/svg">
<path fill-rule="evenodd" clip-rule="evenodd" d="M0 1.66667C0 0.74619 0.7538 0 1.68366 0H18.2797C19.2096 0 19.9634 0.746192 19.9634 1.66667V22.0238C19.9634 22.5498 19.5326 22.9762 19.0013 22.9762C18.4699 22.9762 18.0392 22.5498 18.0392 22.0238V1.90476H1.92418V28.0952H12.9882C13.5196 28.0952 13.9503 28.5216 13.9503 29.0476C13.9503 29.5736 13.5196 30 12.9882 30H1.68366C0.753799 30 0 29.2538 0 28.3333V1.66667Z" fill="#3D7EDB"/>
<path fill-rule="evenodd" clip-rule="evenodd" d="M15.2732 9.64286H4.69019V21.1905H15.2732V9.64286ZM4.69019 9.28571C4.49093 9.28571 4.3294 9.44561 4.3294 9.64286V21.1905C4.3294 21.3877 4.49093 21.5476 4.69019 21.5476H15.2732C15.4724 21.5476 15.634 21.3877 15.634 21.1905V9.64286C15.634 9.44561 15.4724 9.28571 15.2732 9.28571H4.69019Z" fill="#3D7EDB"/>
<path d="M7.69672 4.28571C7.69672 4.08847 7.85825 3.92857 8.0575 3.92857H11.7856C11.9849 3.92857 12.1464 4.08847 12.1464 4.28571C12.1464 4.48296 11.9849 4.64286 11.7856 4.64286H8.0575C7.85825 4.64286 7.69672 4.48296 7.69672 4.28571Z" fill="#3D7EDB"/>
<path d="M15.634 21.5476V20.3175C15.634 19.6649 15.3362 19.0392 14.8062 18.5778C14.2762 18.1164 13.5574 17.8571 12.8078 17.8571H7.15554C6.406 17.8571 5.68717 18.1164 5.15716 18.5778C4.62716 19.0392 4.3294 19.6649 4.3294 20.3175V21.5476" fill="#3D7EDB"/>
<path d="M9.92155 16.3095C11.2831 16.3095 12.3869 15.2169 12.3869 13.869C12.3869 12.5212 11.2831 11.4286 9.92155 11.4286C8.55997 11.4286 7.4562 12.5212 7.4562 13.869C7.4562 15.2169 8.55997 16.3095 9.92155 16.3095Z" fill="#3D7EDB"/>
<path fill-rule="evenodd" clip-rule="evenodd" d="M9.92157 11.844C8.79174 11.844 7.87584 12.7506 7.87584 13.869C7.87584 14.9875 8.79174 15.8941 9.92157 15.8941C11.0514 15.8941 11.9673 14.9875 11.9673 13.869C11.9673 12.7506 11.0514 11.844 9.92157 11.844ZM7.03657 13.869C7.03657 12.2918 8.32823 11.0132 9.92157 11.0132C11.5149 11.0132 12.8066 12.2918 12.8066 13.869C12.8066 15.4463 11.5149 16.7249 9.92157 16.7249C8.32823 16.7249 7.03657 15.4463 7.03657 13.869Z" fill="#3D7EDB"/>
<path d="M19.1732 26.8489C19.6299 26.8489 20 26.4825 20 26.0305C20 25.5784 19.6299 25.2119 19.1732 25.2119H16.8998V22.9613C16.8998 22.5093 16.5297 22.1429 16.0732 22.1429C15.6165 22.1429 15.2464 22.5093 15.2464 22.9613V25.2119H12.973C12.5165 25.2119 12.1464 25.5784 12.1464 26.0305C12.1464 26.4825 12.5165 26.8489 12.973 26.8489H15.2464V29.0996C15.2464 29.5517 15.6165 29.9181 16.0732 29.9181C16.5297 29.9181 16.8998 29.5517 16.8998 29.0996V26.8489H19.1732Z" fill="#3D7EDB"/>
</svg>
