<svg width="22" height="22" viewBox="0 0 22 22" fill="none" xmlns="http://www.w3.org/2000/svg">
<g clip-path="url(#clip0_1824_384)">
<path d="M18.0712 11.0002C17.6372 11.0002 17.2855 11.352 17.2855 11.7859V19.643C17.2855 20.0769 16.9337 20.4287 16.4997 20.4287H2.35711C1.92316 20.4287 1.57139 20.0769 1.57139 19.643V3.92889C1.57139 3.49494 1.92316 3.14317 2.35711 3.14317H11.7856C12.2195 3.14317 12.5713 2.7914 12.5713 2.35745C12.5713 1.9235 12.2195 1.57178 11.7856 1.57178H2.35711C1.05531 1.57178 0 2.62709 0 3.92889V19.643C0 20.9447 1.05531 22.0001 2.35711 22.0001H16.4998C17.8016 22.0001 18.8569 20.9447 18.8569 19.643V11.7859C18.8569 11.352 18.5051 11.0002 18.0712 11.0002Z" fill="#3D7EDB"/>
<path d="M21.1192 0.881563C20.5551 0.31733 19.7899 0.000408637 18.992 0.000500712C18.1937 -0.00180116 17.4277 0.315672 16.8652 0.88207L6.51583 11.2305C6.42997 11.317 6.36519 11.4222 6.32648 11.5377L4.75508 16.252C4.61794 16.6637 4.84053 17.1086 5.25224 17.2457C5.33212 17.2723 5.41577 17.2859 5.49992 17.286C5.58426 17.2858 5.6681 17.2723 5.7482 17.2459L10.4624 15.6745C10.5782 15.6358 10.6834 15.5707 10.7696 15.4844L21.1189 5.13509C22.2936 3.96059 22.2937 2.05621 21.1192 0.881563ZM20.0079 4.02486L9.79378 14.239L6.7421 15.2581L7.75801 12.2103L17.9761 1.99617C18.5378 1.43553 19.4478 1.43645 20.0084 1.9982C20.2762 2.26655 20.4271 2.62983 20.4283 3.00895C20.4292 3.39009 20.2779 3.75581 20.0079 4.02486Z" fill="#3D7EDB"/>
</g>
<defs>
<clipPath id="clip0_1824_384">
<rect width="22" height="22" fill="white"/>
</clipPath>
</defs>
</svg>
