<svg width="14" height="14" viewBox="0 0 14 14" fill="none" xmlns="http://www.w3.org/2000/svg">
<g clip-path="url(#clip0_107_17595)">
<path d="M13.8714 0.128567C13.7795 0.0366923 13.6517 -0.00968271 13.5222 0.00169229L10.1194 0.311442C9.95049 0.327192 9.80524 0.439192 9.74749 0.598442C9.68974 0.757692 9.72912 0.937067 9.84899 1.05694L10.7774 1.98532L6.13725 6.62456C5.96662 6.79519 5.96662 7.07256 6.13725 7.24319L6.75587 7.86181C6.92737 8.03331 7.20387 8.03331 7.37537 7.86269L12.0155 3.22257L12.9439 4.15094C13.0637 4.27082 13.2422 4.31019 13.4024 4.25332C13.4636 4.23057 13.5179 4.19557 13.5625 4.15094C13.6334 4.08007 13.6797 3.98557 13.6885 3.88057L13.9982 0.477692C14.0096 0.348192 13.9632 0.220442 13.8714 0.128567Z" fill="white"/>
<path d="M12.25 5.25V12.25H1.75V1.75H8.75V0H0.875C0.391125 0 0 0.391125 0 0.875V13.125C0 13.608 0.391125 14 0.875 14H13.125C13.608 14 14 13.608 14 13.125V5.25H12.25Z" fill="white"/>
</g>
<defs>
<clipPath id="clip0_107_17595">
<rect width="14" height="14" fill="white"/>
</clipPath>
</defs>
</svg>
