<svg width="16" height="16" viewBox="0 0 16 16" fill="none" xmlns="http://www.w3.org/2000/svg">
<path fill-rule="evenodd" clip-rule="evenodd" d="M14.8484 2.66685C14.9407 2.66426 15.0301 2.69822 15.0963 2.76099L15.0974 2.75545C15.1661 2.81887 15.2034 2.90807 15.1998 3.00021V3.66471C15.2028 3.75424 15.1674 3.84096 15.102 3.90392C15.0356 3.96628 14.9462 3.99984 14.8541 3.99695H13.8181V13.8736C13.8302 14.4141 13.6507 14.9421 13.3098 15.3687C13.0321 15.7588 12.578 15.9939 12.0907 16H3.107C2.62459 15.9962 2.17249 15.7703 1.88795 15.3909C1.54569 14.9727 1.36607 14.4503 1.38076 13.9157V3.99695H0.344795C0.252257 4.00014 0.162364 3.96656 0.0957528 3.90392C0.0315072 3.84036 -0.00304012 3.75384 0.000229871 3.66471V3.00021C-0.00317616 2.91105 0.0313914 2.82448 0.0957528 2.76099C0.162176 2.69794 0.252093 2.66396 0.344795 2.66685H3.679L4.43409 0.926974C4.55501 0.655111 4.75862 0.425894 5.01746 0.270229C5.2677 0.0992974 5.56473 0.00518603 5.87034 0H9.32395C9.62916 0.0054732 9.92575 0.0995682 10.1757 0.270229C10.4344 0.426058 10.638 0.655225 10.7591 0.926974L11.5142 2.66685H14.8484ZM5.70854 1.4475C5.75361 1.39002 5.81874 1.35062 5.89162 1.33675H9.31225C9.38498 1.351 9.44999 1.39032 9.49534 1.4475L10.0128 2.66574H5.17861L5.70854 1.4475ZM12.1993 14.5747C12.2684 14.4912 12.3215 14.3963 12.3562 14.2945H12.3574C12.406 14.159 12.4283 14.0159 12.4233 13.8725V3.99587H2.75732V13.8725C2.75548 14.0165 2.78093 14.1595 2.83237 14.2945C2.86741 14.3959 2.92011 14.4907 2.98817 14.5747C3.04275 14.6334 3.08028 14.6633 3.10188 14.6633H12.0856C12.1072 14.6633 12.1459 14.6345 12.1993 14.5747ZM5.18135 5.99496C5.27405 5.99206 5.36397 6.02605 5.43039 6.0891C5.49535 6.15274 5.53034 6.23974 5.52705 6.32942V12.3309C5.53016 12.4203 5.49517 12.5069 5.43039 12.5702C5.36397 12.6332 5.27405 12.6672 5.18135 12.6643H4.48995C4.39764 12.6669 4.30819 12.6329 4.24204 12.5702C4.17703 12.507 4.142 12.4203 4.14538 12.3309V6.32942C4.14168 6.23967 4.17673 6.15252 4.24204 6.0891C4.30819 6.02633 4.39764 5.99237 4.48995 5.99496H5.18135ZM7.94337 5.99496C8.03568 5.99237 8.12513 6.02633 8.19128 6.0891C8.25671 6.15244 8.29178 6.23965 8.28794 6.32942V12.3309C8.29146 12.4203 8.25641 12.5071 8.19128 12.5702C8.12513 12.6329 8.03568 12.6669 7.94337 12.6643H7.25197C7.15927 12.6672 7.06935 12.6332 7.00293 12.5702C6.93815 12.5069 6.90316 12.4203 6.90627 12.3309V6.32942C6.90298 6.23974 6.93797 6.15274 7.00293 6.0891C7.06935 6.02605 7.15927 5.99206 7.25197 5.99496H7.94337ZM10.9527 6.08906C10.8866 6.0263 10.7971 5.99233 10.7048 5.99493H10.0146C9.92224 5.99233 9.83279 6.0263 9.76665 6.08906C9.70169 6.15271 9.6667 6.23971 9.66999 6.32939V12.3309C9.66688 12.4202 9.70187 12.5068 9.76665 12.5701C9.83279 12.6329 9.92224 12.6669 10.0146 12.6643H10.7048C10.7971 12.6669 10.8866 12.6329 10.9527 12.5701C11.0175 12.5068 11.0525 12.4202 11.0494 12.3309V6.32939C11.053 6.23987 11.0184 6.1529 10.9539 6.08906H10.9527Z" fill="#BB133E"/>
</svg>
