<svg width="20" height="20" viewBox="0 0 20 20" fill="none" xmlns="http://www.w3.org/2000/svg">
<path fill-rule="evenodd" clip-rule="evenodd" d="M19.9375 8.88988C20.0222 9.6473 20.0211 10.4122 19.9331 11.1641C19.8983 11.4568 19.6345 11.6777 19.3477 11.6544L19.2241 11.6512C18.3401 11.6512 17.5182 12.1958 17.1783 13.0068C16.8167 13.8684 17.0426 14.8713 17.7386 15.5016C17.9568 15.6991 17.9828 16.0325 17.7983 16.2616C17.3227 16.854 16.7787 17.392 16.1805 17.8611C15.9502 18.0391 15.6235 18.0131 15.4258 17.798C14.8308 17.1445 13.7721 16.8983 12.9491 17.2345C12.0978 17.5831 11.5473 18.4403 11.5809 19.3671C11.5906 19.6581 11.3758 19.9078 11.0858 19.9398C10.7199 19.9805 10.3539 20.0006 9.988 20.0006C9.60252 20.0006 9.21808 19.9783 8.83596 19.9337C8.54387 19.9001 8.32784 19.644 8.34518 19.3496C8.39832 18.4126 7.85536 17.5402 6.99221 17.1791C6.16812 16.8332 5.09749 17.0781 4.49917 17.7398C4.30056 17.9587 3.96717 17.9848 3.73804 17.8002C3.15387 17.33 2.62068 16.7915 2.15601 16.1996C1.97571 15.9711 2.00287 15.6426 2.21681 15.4461C2.90085 14.8191 3.12559 13.8256 2.77598 12.9732C2.42526 12.1197 1.58918 11.5806 0.71836 11.6028C0.431781 11.6028 0.0940039 11.3934 0.0626001 11.1111C-0.0220862 10.3537 -0.0210443 9.58813 0.0669162 8.83682C0.101594 8.54853 0.327449 8.3357 0.644538 8.34589C1.62171 8.34589 2.47526 7.81613 2.82049 6.99411C3.18208 6.13192 2.95734 5.12923 2.26131 4.49892C2.04417 4.30135 2.01701 3.96848 2.20164 3.73883C2.675 3.14812 3.2201 2.60963 3.81946 2.13939C4.04851 1.96086 4.37751 1.98736 4.57411 2.20287C5.169 2.85714 6.23219 3.1004 7.04966 2.7665C7.9021 2.41734 8.45159 1.56013 8.419 0.632824C8.40926 0.342377 8.62424 0.0926342 8.91417 0.0606351C9.6634 -0.0224885 10.4169 -0.0198095 11.1639 0.0665883C11.4572 0.100746 11.6722 0.356516 11.6547 0.650684C11.6016 1.58722 12.1445 2.45967 13.0056 2.82186C13.8329 3.16709 14.9036 2.92174 15.4997 2.26159C15.6973 2.04272 16.0317 2.01727 16.2597 2.20019C16.8418 2.66649 17.375 3.20452 17.844 3.80014C18.0242 4.02868 17.9981 4.35768 17.7832 4.55421C17.1002 5.18073 16.8755 6.17478 17.224 7.02716C17.565 7.85935 18.3782 8.39747 19.2946 8.39747C19.5781 8.39747 19.9058 8.60873 19.9375 8.88988ZM6.26585 10.0216C6.26585 12.0917 7.94586 13.7716 10.0159 13.7716C12.0859 13.7716 13.7659 12.0917 13.7659 10.0216C13.7659 7.95163 12.0859 6.2716 10.0159 6.2716C7.94586 6.2716 6.26585 7.95161 6.26585 10.0216ZM11.2659 10.0216C11.2659 10.7109 10.7052 11.2716 10.0159 11.2716C9.32657 11.2716 8.76586 10.7109 8.76586 10.0216C8.76586 9.33234 9.32657 8.77161 10.0159 8.77161C10.7052 8.77161 11.2659 9.33234 11.2659 10.0216ZM16.25 10.0001C16.25 13.4518 13.4518 16.2501 10 16.2501C6.5482 16.2501 3.74997 13.4518 3.74997 10.0001C3.74997 6.54825 6.5482 3.75002 10 3.75002C13.4518 3.75002 16.25 6.54825 16.25 10.0001Z" fill="#E3E4E4"/>
</svg>
