<svg width="18" height="18" viewBox="0 0 18 18" fill="none" xmlns="http://www.w3.org/2000/svg">
    <path
        d="M17 9C17 13.4183 13.4183 17 9 17C4.58172 17 1 13.4183 1 9C1 4.58172 4.58172 1 9 1C13.4183 1 17 4.58172 17 9Z"
        stroke="#979797" stroke-width="2" />
    <path
        d="M7.875 5.625C7.875 5.00368 8.37868 4.5 9 4.5C9.62132 4.5 10.125 5.00368 10.125 5.625C10.125 6.24632 9.62132 6.75 9 6.75C8.37868 6.75 7.875 6.24632 7.875 5.625Z"
        fill="#979797" />
    <path
        d="M7.875 9C7.875 8.37868 8.37868 7.875 9 7.875C9.62132 7.875 10.125 8.37868 10.125 9V12.375C10.125 12.9963 9.62132 13.5 9 13.5C8.37868 13.5 7.875 12.9963 7.875 12.375V9Z"
        fill="#979797" />
</svg> 