<?xml version="1.0" encoding="UTF-8"?>
<svg width="321px" height="102px" viewBox="0 0 311 102" version="1.1" xmlns="http://www.w3.org/2000/svg" xmlns:xlink="http://www.w3.org/1999/xlink">
    <!-- Generator: Sketch 51.2 (57519) - http://www.bohemiancoding.com/sketch -->
    <title>login header</title>
    <desc>Created with Sketch.</desc>
    <defs></defs>
    <g id="Web" stroke="none" stroke-width="1" fill="none" fill-rule="evenodd">
        <g id="Login" transform="translate(-930.000000, -283.000000)">
            <g id="login" transform="translate(802.000000, 0.000000)">
                <g id="login-header" transform="translate(128.000000, 283.000000)">
                    <g id="Brand/Logo-Vale">
                        <g transform="translate(0.502959, 0.000000)">
                            <path d="M23.3242366,7.76083321 C26.0619273,10.0717618 28.7008646,12.0001174 31.5396713,12.0001174 C36.7575378,12.0001174 39.1970782,8.75552296 39.1970782,8.75552296 L21.5821127,32 L0,3.33331377 C0,3.33331377 3.52488311,0 9.39480576,0 C14.9216902,0 19.2328207,4.30734927 23.3242366,7.76083321" id="Fill-1" fill="#008F83"></path>
                            <path d="M43.5095269,3.03295756 C43.5095269,3.03295756 41.5007672,1.37799043 38.8219495,1.37799043 C33.4643139,1.37799043 30.1159096,6.69833044 23.2564197,7.7899344 C25.988993,10.0953682 28.6220714,12.0191388 31.4550827,12.0191388 C36.6627686,12.0191388 39.0973287,8.78225906 39.0973287,8.78225906 L43.5095269,3.03295756 Z" id="Fill-3" fill="#E9AB13"></path>
                            <path d="M54.2906486,16.3062201 L52.1348235,16.3062201 L49.3313521,23.8274694 C49.1695588,24.262346 49.0721043,24.5524205 49.0721043,24.5524205 L49.0394618,24.5524205 C49.0394618,24.5524205 46.8353826,19.0442971 45.700937,16.3062201 L43.4325189,16.3062201 L47.4191632,25.9858677 C47.6462415,26.5490917 48.3752576,27.4832536 49.8015935,27.4832536 L54.2906486,16.3062201 Z" id="Fill-5" fill="#77787B"></path>
                            <polygon id="Fill-7" fill="#77787B" points="74.8517879 27.3301435 74.8517879 25.589425 69.937739 25.589425 69.937739 16.3062201 67.9210668 16.3062201 67.9210668 27.3301435"></polygon>
                            <path d="M83.9251437,27.3301435 L83.9251437,25.589425 L79.2576883,25.589425 L79.2576883,22.4307266 L83.2012003,22.4307266 L83.2012003,20.7544617 L79.2576883,20.7544617 L79.2576883,18.0469386 L81.9427831,18.0469386 C84.0528707,18.0469386 84.1697574,16.3062201 84.1697574,16.3062201 L77.2390363,16.3062201 L77.2390363,27.3301435 L83.9251437,27.3301435 Z" id="Fill-9" fill="#77787B"></path>
                            <path d="M65.5338184,27.3301435 L61.1212116,16.3062201 L59.1898377,16.3062201 L54.5986807,27.3301435 L56.766385,27.3301435 L57.8760488,24.5257048 L62.158887,24.5257048 L63.2623939,27.3301435 L65.5338184,27.3301435 Z M61.4939412,22.7854568 L58.5897762,22.7854568 L60.0338074,19.0626714 L60.0499101,18.9977473 L61.4939412,22.7854568 Z" id="Fill-11" fill="#77787B"></path>
                        </g>
                    </g>
                    <text id="title" font-family="CaeciliaLTStd-Roman, Caecilia LT Std" font-size="36" font-weight="normal" fill="#747678">
                        <tspan x="0" y="92">Digital Lab</tspan>
                    </text>
                </g>
            </g>
        </g>
    </g>
</svg>
