<?xml version="1.0" encoding="UTF-8" standalone="no"?>
<!-- Created with Inkscape (http://www.inkscape.org/) -->

<svg
   xmlns:dc="http://purl.org/dc/elements/1.1/"
   xmlns:cc="http://creativecommons.org/ns#"
   xmlns:rdf="http://www.w3.org/1999/02/22-rdf-syntax-ns#"
   xmlns:svg="http://www.w3.org/2000/svg"
   xmlns="http://www.w3.org/2000/svg"
   version="1.1"
   width="593.51489"
   height="231.44992"
   id="svg2">
  <defs
     id="defs4">
 <style
   type="text/css"
   id="style2989" />

  </defs>
  <metadata
     id="metadata7">
    <rdf:RDF>
      <cc:Work
         rdf:about="">
        <dc:format>image/svg+xml</dc:format>
        <dc:type
           rdf:resource="http://purl.org/dc/dcmitype/StillImage" />
        <dc:title></dc:title>
      </cc:Work>
    </rdf:RDF>
  </metadata>
  <g
     transform="translate(-103.24255,-336.63722)"
     id="layer1">
    <g
       transform="matrix(3.543307,0,0,3.543307,18.21062,-59.745045)"
       id="g3024"
       style="fill-rule:evenodd">
      <g
         id="Camada_x0020_1">
  <metadata
   id="CorelCorpID_0Corel-Layer" />

  <path
   d="m 102.315,130.445 c -12.8123,12.017 -23.9979,4.4844 -30.1848,-0.5429 -6.9159,-5.6197 -11.8678,-9.7505 -16.2946,-12.8765 -11.7247,-8.2794 -24.594,-5.3673 -31.8374,0.1902 l 41.8043,59.9724 36.5125,-46.7432 z"
   id="path2993"
   style="fill:none" />

  <path
   d="m 102.315,130.445 7.8052,-11.1565 c -7.0089,-6.9588 -14.5054,-3.065 -22.8584,1.0035 -6.5439,3.1873 -12.9242,6.4662 -17.0147,8.0777"
   id="path2995"
   style="fill:none" />

  <polygon
   points="121.166,163.408 113.669,147.004 109.612,147.092 119.843,169.141 122.313,169.141 131.044,147.004 126.987,147.004 "
   id="polygon2997"
   style="fill:none" />

  <polygon
   points="148.242,163.584 138.54,163.496 136.865,168.876 132.631,168.788 141.98,147.092 145.155,147.092 153.71,168.788 149.653,168.788 "
   id="polygon2999"
   style="fill:none" />

  <polygon
   points="146.412,160.299 140.445,160.365 143.545,152.317 "
   id="polygon3001"
   style="fill:none" />

  <polygon
   points="164.205,147.709 160.413,147.665 160.501,168.788 173.862,168.788 173.818,165.348 164.161,165.348 "
   id="polygon3003"
   style="fill:none" />

  <polygon
   points="182.109,158.998 190.62,158.998 190.62,155.823 182.153,155.823 182.153,150.884 188.723,150.884 191.457,148.768 191.501,147.357 179.022,147.313 179.022,168.568 191.501,168.568 191.501,165.304 182.153,165.304 "
   id="polygon3005"
   style="fill:none" />

  <path
   d="m 65.8022,177.188 36.5125,-46.7432 c -12.8123,12.017 -23.9979,4.4844 -30.1848,-0.5429 -0.6444,-0.5236 -1.2717,-1.0343 -1.8831,-1.5324 -5.951,-4.8483 -10.3971,-8.5094 -14.4115,-11.3441 -11.7247,-8.2794 -24.594,-5.3673 -31.8374,0.1902 l 41.8043,59.9724 z"
   id="path3007"
   style="fill:#00939a" />

  <path
   d="m 72.1299,129.902 c 6.1869,5.0273 17.3725,12.5599 30.1848,0.5429 l 7.8052,-11.1565 c -7.0089,-6.9588 -14.5054,-3.065 -22.8584,1.0035 -6.5439,3.1873 -12.9242,6.4662 -17.0147,8.0777 l 1.8831,1.5324 z"
   id="path3009"
   style="fill:#ecb833" />

  <polygon
   points="131.044,147.004 126.987,147.004 121.166,163.408 113.669,147.004 109.612,147.092 119.843,169.141 122.313,169.141 "
   id="polygon3011"
   style="fill:#77787b" />

  <path
   d="m 141.98,147.092 -9.3487,21.6959 4.2334,0.0882 1.6757,-5.3799 9.7014,0.0882 1.4111,5.2035 4.0569,0 -8.5548,-21.6959 -3.175,0 z m 1.5655,5.2256 2.8663,7.9817 -5.9672,0.0658 3.1009,-8.0475 z"
   id="path3013"
   style="fill:#77787b" />

  <polygon
   points="160.413,147.665 160.501,168.788 173.862,168.788 173.818,165.348 164.161,165.348 164.205,147.709 "
   id="polygon3015"
   style="fill:#77787b" />

  <polygon
   points="190.62,158.998 190.62,155.823 182.153,155.823 182.153,150.884 188.723,150.884 191.457,148.768 191.501,147.357 179.022,147.313 179.022,168.568 191.501,168.568 191.501,165.304 182.153,165.304 182.109,158.998 "
   id="polygon3017"
   style="fill:#77787b" />

 </g>
    </g>
  </g>
</svg>
