<svg width="22" height="14" viewBox="0 0 22 14" fill="none" xmlns="http://www.w3.org/2000/svg">
<path fill-rule="evenodd" clip-rule="evenodd" d="M9.99 3C9.99 4.66 8.66 6 7 6C5.34 6 4 4.66 4 3C4 1.34 5.34 0 7 0C8.66 0 9.99 1.34 9.99 3ZM17.99 3C17.99 4.66 16.66 6 15 6C13.34 6 12 4.66 12 3C12 1.34 13.34 0 15 0C16.66 0 17.99 1.34 17.99 3ZM7 8C4.67 8 0 9.17 0 11.5V13C0 13.55 0.45 14 1 14H13C13.55 14 14 13.55 14 13V11.5C14 9.17 9.33 8 7 8ZM14.03 8.05C14.38 8.02 14.71 8 15 8C17.33 8 22 9.17 22 11.5V13C22 13.55 21.55 14 21 14H15.82C15.93 13.69 16 13.35 16 13V11.5C16 10.03 15.21 8.92 14.07 8.09C14.067 8.08697 14.0639 8.08303 14.0606 8.07872C14.053 8.06881 14.0439 8.05697 14.03 8.05Z" fill="#3D7EDB"/>
</svg>
