<svg width="16" height="16" viewBox="0 0 16 16" fill="none" xmlns="http://www.w3.org/2000/svg">
<path fill-rule="evenodd" clip-rule="evenodd" d="M16 8C16 12.4183 12.4182 16 8 16C3.58179 16 0 12.4183 0 8C0 3.58179 3.58179 0 8 0C12.4182 0 16 3.58179 16 8ZM10.55 11.6501C10.8499 11.9501 11.3501 11.9501 11.6499 11.6501C11.95 11.3501 11.95 10.8501 11.6499 10.55L9.1001 8.00012L11.6499 5.45007C11.95 5.15015 11.95 4.65015 11.6499 4.3501C11.3501 4.05017 10.8499 4.05017 10.55 4.3501L8 6.90015L5.44995 4.3501C5.1499 4.05017 4.6499 4.05017 4.3501 4.3501C4.05005 4.65015 4.05005 5.15015 4.3501 5.45007L6.8999 8.00012L4.3501 10.55C4.05005 10.8501 4.05005 11.3501 4.3501 11.6501C4.6499 11.9501 5.1499 11.9501 5.44995 11.6501L8 9.1001L10.55 11.6501Z" fill="#A8083B"/>
</svg>
