<svg width="40" height="40" viewBox="0 0 40 40" fill="none" xmlns="http://www.w3.org/2000/svg">
<path fill-rule="evenodd" clip-rule="evenodd" d="M20 0C8.954 0 0 8.954 0 20C0 31.046 8.954 40 20 40C31.046 40 40 31.046 40 20C40 8.954 31.046 0 20 0ZM31.4143 15.4155L17.4143 29.4155C17.0243 29.8055 16.5123 30.0015 16.0003 30.0015C15.4883 30.0015 14.9763 29.8055 14.5863 29.4155L8.58634 23.4155C7.80434 22.6335 7.80434 21.3695 8.58634 20.5875C9.36834 19.8055 10.6323 19.8055 11.4143 20.5875L16.0003 25.1735L28.5863 12.5875C29.3683 11.8055 30.6323 11.8055 31.4143 12.5875C32.1963 13.3695 32.1963 14.6335 31.4143 15.4155Z" fill="#697489"/>
</svg>
