<svg width="8" height="8" viewBox="0 0 8 8" fill="none" xmlns="http://www.w3.org/2000/svg">
<path d="M7.87185 0.128567C7.77998 0.0366923 7.65223 -0.00968271 7.52273 0.00169229L4.11986 0.311442C3.95098 0.327192 3.80573 0.439192 3.74798 0.598442C3.69023 0.757692 3.72961 0.937067 3.84948 1.05694L4.77786 1.98532L0.137734 6.62456C-0.0328906 6.79519 -0.0328906 7.07256 0.137734 7.24319L0.756359 7.86181C0.927859 8.03331 1.20436 8.03331 1.37586 7.86269L6.01598 3.22257L6.94436 4.15094C7.06423 4.27082 7.24273 4.31019 7.40285 4.25332C7.46411 4.23057 7.51835 4.19557 7.56298 4.15094C7.63385 4.08007 7.68023 3.98557 7.68898 3.88057L7.99873 0.477692C8.0101 0.348192 7.96373 0.220442 7.87185 0.128567Z" fill="white"/>
</svg>
