<svg width="45" height="40" viewBox="0 0 45 40" fill="none" xmlns="http://www.w3.org/2000/svg">
<path fill-rule="evenodd" clip-rule="evenodd" d="M20.4255 1.24395L0.375762 35.9506C-0.642609 37.7135 0.528818 40 2.45026 40H42.5497C44.4713 40 45.6426 37.7135 44.6242 35.9506L24.5746 1.24395C23.6163 -0.414652 21.3837 -0.414649 20.4255 1.24395ZM20.0001 15.0005C20.0001 13.6198 21.1194 12.5005 22.5001 12.5005C23.8809 12.5005 25.0001 13.6198 25.0001 15.0005V25.0005C25.0001 26.3812 23.8809 27.5005 22.5001 27.5005C21.1194 27.5005 20.0001 26.3812 20.0001 25.0005V15.0005ZM20.0001 32.5C20.0001 31.1192 21.1194 30 22.5001 30C23.8809 30 25.0001 31.1192 25.0001 32.5C25.0001 33.8807 23.8809 35 22.5001 35C21.1194 35 20.0001 33.8807 20.0001 32.5Z" fill="#697489"/>
</svg>
