<svg xmlns="http://www.w3.org/2000/svg" viewBox="0 0 297.86 335.67"><defs><style>.cls-1{fill:#c5c6c7;}.cls-2{fill:#e37222;}.cls-3{fill:#eaeaeb;}</style></defs><title>pin-sharedSafety1</title><g id="Camada_2" data-name="Camada 2"><g id="Camada_1-2" data-name="Camada 1"><path class="cls-1" d="M148.93,0h0A148.93,148.93,0,0,0,0,148.93H0A149,149,0,0,0,116.41,294.26l20.39,34.66a13.7,13.7,0,0,0,23.61,0l20.28-34.49a149,149,0,0,0,117.17-145.5h0A148.93,148.93,0,0,0,148.93,0Z"/><path class="cls-1" d="M148.93,15.26h0A135.39,135.39,0,0,0,13.54,150.65h0A135.42,135.42,0,0,0,119.37,282.77l18.53,31.51a12.45,12.45,0,0,0,21.46,0l18.45-31.35A135.43,135.43,0,0,0,284.32,150.65h0A135.38,135.38,0,0,0,148.93,15.26Z"/><g id="Camada_1-2-2" data-name="Camada 1-2"><path class="cls-2" d="M148.43,91.26h47.23a33,33,0,0,1,4.77.19c2.17.31,3.55,1.58,3.46,3.93s-1.5,3.26-3.78,3.53c-3.25.38-7.48-1.66-9.5,1.17-1.61,2.26-.82,6.14-1.34,9.27-2.47,14.92-8.54,28-20,38.17-12.58,11.09-29.37,11.17-42,.14-13.14-11.46-18.9-26.62-20.48-43.49-.42-4.55-2-5.53-6.12-5.37-3,.11-7.86,1.73-8-3.31-.16-5.23,4.76-4.15,8.06-4.17C116.59,91.2,132.51,91.26,148.43,91.26Z"/><path class="cls-2" d="M163,67.26c0-4.07,0-8.14,0-12.21,0-3.48,1.38-6.23,4.65-7.69s6.05-.28,8.69,2c9.24,8,14.86,17.79,16.3,30,.4,3.35-.24,4.84-4,4.72-7.25-.24-14.52-.19-21.76,0-3.08.07-4-1.15-3.92-4.06C163.17,75.76,163.06,71.51,163,67.26Z"/><path class="cls-2" d="M134.18,41.83a40.12,40.12,0,0,1,28,0c-8,6.29-6.56,14.81-6.65,23,0,3,0,6,0,9,0,10.73,0,10.6-10.78,10.34-3.3-.08-4.28-1.25-4.21-4.37.15-6.7-.08-13.42.08-20.12C140.84,53.09,140.57,46.82,134.18,41.83Z"/><path class="cls-2" d="M133.1,67.26c0-4.07,0-8.14,0-12.21,0-3.48-1.37-6.23-4.64-7.69s-6.05-.28-8.69,2c-9.24,8-14.86,17.79-16.3,30-.4,3.35.23,4.84,4,4.72,7.24-.24,14.52-.19,21.76,0,3.08.07,4-1.15,3.92-4.06C133,75.76,133.1,71.51,133.1,67.26Z"/><path class="cls-3" d="M232.31,158.23c-11.32-2.47-20.84-7.92-30.09-14.63-4.42,3.42-9.1,7-14.17,9.23a103.48,103.48,0,0,1-15.28,5c.49,10.12,2,21.59,6.75,30.46,4.88,9.06,14.2,15.77,23.32,20.29,9.13-4.67,18.92-11.82,23.23-21.28C230.16,178.44,231.78,168.07,232.31,158.23Z"/><path class="cls-2" d="M221,206a8.42,8.42,0,0,1,0-4.15,69.51,69.51,0,0,1-17,11.58,2.42,2.42,0,0,1-1.38.25,2.49,2.49,0,0,1-1-.25c-10.31-4.88-21.87-12.9-26.77-23.61-3.79-8.27-5.69-17.58-6.53-26.77-.54-.13-1.08-.28-1.61-.42a8.88,8.88,0,0,0-2.52-.24,15.66,15.66,0,0,1-1.94-.06c-15-1.14-30-1.95-44.88,1.81-30,7.63-46.2,27.37-45.64,55.9.22,10.8,6.88,17.41,17.58,17.41H205.57a15.32,15.32,0,0,0,14.59-10.26C222.5,220.19,222.25,213.06,221,206Z"/><path class="cls-2" d="M235.4,154a2.33,2.33,0,0,0-.53-.16c-12-2.37-21.82-8.1-31.47-15.46a2.29,2.29,0,0,0-2.42,0,121,121,0,0,1-13.82,9.46c-5.32,3-11.81,4.42-17.67,6a2.27,2.27,0,0,0-1.55,3.08c.49,11.13,2.3,22.82,6.95,33,4.9,10.71,16.45,18.73,26.76,23.61a2.57,2.57,0,0,0,1,.25,2.37,2.37,0,0,0,1.38-.25c10.32-5.08,20.92-13.07,26.15-23.6,5-10,6.53-22.42,7-33.55A2.12,2.12,0,0,0,235.4,154Zm-9.32,33.39C221.75,196.8,212,204,202.84,208.62c-9.12-4.52-18.44-11.22-23.32-20.29-4.79-8.88-6.26-20.34-6.75-30.47a103.52,103.52,0,0,0,15.28-5c5.06-2.24,9.75-5.8,14.17-9.22,9.25,6.7,18.77,12.15,30.09,14.63C231.78,168.07,230.16,178.44,226.08,187.34Z"/><path class="cls-2" d="M189.6,173.31l-3,3.36,10.07,10.17a.75.75,0,0,0,.16.15,2.12,2.12,0,0,0,3.17.08l19.35-19.55a42.61,42.61,0,0,1-3.54-2.9q-8.67,8.79-17.38,17.56"/></g></g></g></svg>