<svg id="Camada_1" data-name="Camada 1" xmlns="http://www.w3.org/2000/svg" viewBox="0 0 309 343"><defs><style>.cls-1{fill:#fff;}.cls-2{fill:#f68221;}</style></defs><title>spot</title><path class="cls-1" d="M151.46,2h0A148.93,148.93,0,0,0,2.53,150.9h0A149,149,0,0,0,118.94,296.23l20.39,34.66a13.7,13.7,0,0,0,23.61,0l20.28-34.49A149,149,0,0,0,300.39,150.9h0A148.93,148.93,0,0,0,151.46,2Z"/><path class="cls-2" d="M151.46,17.22h0A135.4,135.4,0,0,0,16.07,152.62h0A135.41,135.41,0,0,0,121.9,284.73l18.53,31.51a12.44,12.44,0,0,0,21.46,0l18.44-31.35A135.41,135.41,0,0,0,286.85,152.62h0A135.39,135.39,0,0,0,151.46,17.22Z"/><path class="cls-1" d="M165,45.66c15.8.52,30.44,4.44,42.78,14.92A29.23,29.23,0,0,1,214,67.71c1,1.72,1.49,3.73-.57,5.15-1.87,1.3-3.47.31-4.71-1.11-4.12-4.67-8.46-9.1-13.92-12.19-18.18-10.3-37.14-10.83-56.68-4.57-1.72.56-4.41,2.75-5.31.07-.77-2.28,2.32-3.25,4.32-4.11a60.09,60.09,0,0,1,11.44-3.45A83.78,83.78,0,0,1,165,45.66Z"/><path class="cls-1" d="M139,260.33c-15.48-.5-31.14-5-43.71-17.56a40.43,40.43,0,0,1-6.21-8.23c-1-1.61-2.19-3.72,0-5.12,2.06-1.3,3.56.44,4.88,1.89.46.51.88,1.06,1.3,1.61C106,247.15,120.8,253.38,138,255a74,74,0,0,0,25.8-2.42c1.44-.38,3.71-1.79,4.42.22.82,2.34-1.82,3.16-3.49,3.75C157,259.22,148.92,260.22,139,260.33Z"/><path class="cls-1" d="M205.9,84.18c0,3.14-2.56,4.71-5.18,3.26a10.05,10.05,0,0,1-3-2.76C185,67.53,161.53,62.84,140.93,70.76c-2.28.87-5.83,3.34-6.92.47-1.22-3.16,3.15-3.83,5.5-4.71C158.86,59.22,177.5,60,195,72c3.77,2.59,6.79,6,9.76,9.46A3.9,3.9,0,0,1,205.9,84.18Z"/><path class="cls-1" d="M145,244.35c-21.16-.4-35.92-7.92-46-24.06-.9-1.44-2-2.89-.28-4.38s3.33-.61,4.7.74a16.51,16.51,0,0,1,2.14,2.51c12.11,18.18,35.14,23.92,55.51,17.68a33.12,33.12,0,0,1,4.81-1.09c.9-.13,2.07-.22,2.53.89.55,1.32-.44,2.06-1.37,2.65a25.48,25.48,0,0,1-8.51,3.05C153.3,243.47,148,244.57,145,244.35Z"/><path class="cls-1" d="M194.7,97.38c-.43,1.84-1.56,2.81-3.54,2.39a8.89,8.89,0,0,1-4.59-2.66c-10.8-11.56-24.12-13.22-38.72-9.94-2,.45-4,.83-6,1.4-1.46.42-3,.57-3.63-.88-.81-1.87,1-2.69,2.26-3.33A36.21,36.21,0,0,1,152,81.3c15.37-2,29.34.72,40.42,12.6A9.25,9.25,0,0,1,194.7,97.38Z"/><path class="cls-1" d="M146.29,225.85c-14.16-.44-26.46-4.77-35.09-16.8-.87-1.21-2.28-2.43-.93-4s3-1,4.58-.27a6.69,6.69,0,0,1,2.23,1.79c11.07,13.93,25.64,16.37,42.06,13,2-.41,5-2.2,5.79.6s-2.55,3.29-4.7,3.9A50.29,50.29,0,0,1,146.29,225.85Z"/><path class="cls-1" d="M208.29,141.7a94.15,94.15,0,0,0-6.06-15.8c-.64-.88-1.32-1.74-1.93-2.64-14.1-20.74-38.75-29.38-62.66-21.88-14.24,4.47-24.42,13.88-31.89,26.51-.94,2.29-1.91,4.56-2.8,6.86-4.24,11.07-4,22.35-1.6,33.73.37.88.81,1.74,1.11,2.64a55,55,0,0,0,71.83,33.74c12-4.67,20.94-12.91,27.89-23.54,1.21-2.73,2.43-5.46,3.63-8.2,3.24-7.42,3.35-15.36,3.77-23.24A74.07,74.07,0,0,0,208.29,141.7Zm-40.52,60.69c-34,9.6-67.44-19.19-63.33-54.35,1.73-14.84,8.82-26.37,20.5-35.38,1,4.54-1.25,7.92-3.7,11.18-1.53,2-2.41,4.46-1.5,6.59,2.12,5,2.41,10.42,4.39,15.39a10.46,10.46,0,0,0,1.45,2c.91-1.28-.72-2.47.46-4,1.56,3.89,5.3,6.18,5.29,10.86,0,2.78,6.82,6.1,11.07,6.74A25.83,25.83,0,0,1,156.15,168c2.67,2.49,5.06,4.57,8.86,4.36,1.45-.08,2.91.21,3.29,1.84a4.54,4.54,0,0,1-.89,4.21c-5.88,7.3-3.43,15.94,5.48,19.73C172.09,200.63,170.15,201.72,167.77,202.39ZM202.34,170c-.86,2.37-1.81,2.09-3.48,1.12-6.48-3.79-13.12-6.95-20.94-6.77-3.18.06-5.66.71-7.18,3.7-1.06,2.08-2.94,2.81-5.14,2.86-4,.1-5.62-1.37-5.21-5.46.34-3.36-.81-4.69-4.07-4.29-2.85.36-3.53-.67-2.23-3.22a9.87,9.87,0,0,0,.61-2.39,1.54,1.54,0,0,0-.53-1.84c-.91-.55-1.53.15-2.11.71-4.33,4.2-6.43,4.5-9.3,1.32-2.63-2.92-1.55-9.37,1.15-12.3,4.29-4.67,9.29-1.74,13.93-1.89,1.81-.06,1.37,2.71,2.09,4.12s1.52,3.23,3.12,2.56c1.33-.55.77-2.6.11-3.72-2.33-3.92-1.17-6.84,2.4-9,2.64-1.62,1-4.45,2.12-6.59,1-1.94,1.53-4.27,3.45-5.46,3-1.86,5.06-3.45-.82-5.64,4.4-.73,6.42,2.74,10.25,2.3-5.54-5.07-10.82-9.48-17.9-11.14-1.47-.21-2.88-1-4.8-.35.87,1.27,2.32,2.77,1,4.1s-3.08.66-4.65.09c-.91-.33-1.84-.6-2.7-1-1.15-.53-3.26-.39-2.95-2.13a3.31,3.31,0,0,1,3.5-2.37c3.53.2,7.29-2,10.56,1,2-1,1.87-1.39-.79-3.3h0l-4.25-1c2.05-.67,4-1.09,6,.12C193.54,109,212.59,141.5,202.34,170Z"/></svg>