<svg width="10" height="18" viewBox="0 0 10 18" fill="none" xmlns="http://www.w3.org/2000/svg">
<path fill-rule="evenodd" clip-rule="evenodd" d="M1.59722 18H8.40278C9.28347 18 10 17.263 10 16.3571V3.64286C10 2.737 9.28347 2 8.40278 2H1.59722C0.716528 2 0 2.737 0 3.64286V16.3571C0 17.263 0.716528 18 1.59722 18ZM1.11111 3.64286C1.11111 3.36714 1.32917 3.14286 1.59722 3.14286H8.40278C8.67083 3.14286 8.88889 3.36714 8.88889 3.64286V16.3571C8.88889 16.6329 8.67083 16.8571 8.40278 16.8571H1.59722C1.32917 16.8571 1.11111 16.6329 1.11111 16.3571V3.64286Z" fill="#CC003A"/>
<path fill-rule="evenodd" clip-rule="evenodd" d="M2.6 3H7.4C7.73139 3 8 2.77612 8 2.5V1.125C8 0.504656 7.39441 0 6.65 0H3.35C2.60559 0 2 0.504656 2 1.125V2.5C2 2.77612 2.26861 3 2.6 3ZM6.8 2H3.2V1.125C3.2 1.05606 3.26728 1 3.35 1H6.65C6.73273 1 6.8 1.05606 6.8 1.125V2Z" fill="#CC003A"/>
<path d="M7.4 16H2.6C2.26861 16 2 15.7761 2 15.5C2 15.2239 2.26861 15 2.6 15H7.4C7.73139 15 8 15.2239 8 15.5C8 15.7761 7.73139 16 7.4 16Z" fill="#CC003A"/>
</svg>
