<svg id="Camada_1" data-name="Camada 1" xmlns="http://www.w3.org/2000/svg" viewBox="0 0 310 343"><defs><style>.cls-1{fill:#fff;}.cls-2{fill:#387cdb;}</style></defs><title>bus</title><path class="cls-1" d="M154.46,3h0A148.93,148.93,0,0,0,5.53,151.9h0A149,149,0,0,0,121.94,297.23l20.39,34.66a13.7,13.7,0,0,0,23.61,0l20.28-34.49A149,149,0,0,0,303.39,151.9h0A148.93,148.93,0,0,0,154.46,3Z"/><path class="cls-2" d="M154.46,18.22h0A135.4,135.4,0,0,0,19.07,153.62h0A135.41,135.41,0,0,0,124.9,285.73l18.53,31.51a12.44,12.44,0,0,0,21.46,0l18.44-31.35A135.41,135.41,0,0,0,289.85,153.62h0A135.39,135.39,0,0,0,154.46,18.22Z"/><path class="cls-1" d="M83.6,188.4c0,7.68,5.55,9.81,10.67,14.51v15.36a8.56,8.56,0,0,0,8.53,8.53h8.53a8.56,8.56,0,0,0,8.54-8.53v-8.54h68.26v8.54a8.56,8.56,0,0,0,8.54,8.53h8.53a8.56,8.56,0,0,0,8.53-8.53V202.91c5.12-4.7,10.67-7.26,10.67-14.51V106.93c0-29.86-32.85-33.73-70.4-33.73s-70.4,3.87-70.4,33.73Zm32,6.4A12.8,12.8,0,1,1,128.4,182,12.58,12.58,0,0,1,115.6,194.8Zm76.8,0A12.8,12.8,0,1,1,205.2,182,12.58,12.58,0,0,1,192.4,194.8Zm12.8-49.07H102.8V103.07H205.2Z"/></svg>