<svg width="38" height="43" viewBox="0 0 38 43" fill="none" xmlns="http://www.w3.org/2000/svg">
<g clip-path="url(#clip0_5788_16051)">
<path d="M19 0C16.5049 0 14.0342 0.493436 11.729 1.45213C9.42383 2.41083 7.32928 3.81602 5.56497 5.58746C2.00178 9.16506 6.67125e-09 14.0173 6.67124e-09 19.0768C-0.000114392 23.4129 1.47106 27.6198 4.17109 31.004C6.87112 34.3882 10.6389 36.7479 14.8535 37.6943L17.4524 42.1409C17.6894 42.5405 18.0743 42.8296 18.523 42.945C18.9717 43.0604 19.4477 42.9927 19.8468 42.7566C20.1013 42.6087 20.3127 42.3964 20.46 42.1409L23.0492 37.7138C27.285 36.7861 31.0775 34.4318 33.7971 31.0418C36.5166 27.6517 37.9997 23.4298 38 19.0768C38 14.0173 35.9982 9.16506 32.435 5.58746C28.8718 2.00987 24.0391 0 19 0Z" fill="#F68221"/>
<path d="M18.9854 1.80764C14.3928 1.80764 9.98828 3.64234 6.74082 6.90813C3.49335 10.1739 1.66895 14.6033 1.66895 19.2218C1.67133 23.1771 3.01255 27.0137 5.4719 30.1003C7.93125 33.1869 11.3622 35.3397 15.2002 36.2043L17.5708 40.2561C17.7086 40.501 17.9085 40.7047 18.1502 40.8464C18.3918 40.9882 18.6666 41.0629 18.9464 41.0629C19.2261 41.0629 19.5009 40.9882 19.7426 40.8464C19.9842 40.7047 20.1842 40.501 20.3219 40.2561L22.6731 36.2239C26.5386 35.3855 30.002 33.2412 32.487 30.1478C34.972 27.0544 36.3286 23.1985 36.3311 19.2218C36.3311 16.9325 35.8822 14.6656 35.0102 12.5509C34.1381 10.4362 32.86 8.51515 31.2489 6.89771C29.6378 5.28027 27.7254 3.99817 25.6211 3.12476C23.5168 2.25135 21.2619 1.80377 18.9854 1.80764Z" fill="white"/>
<path fill-rule="evenodd" clip-rule="evenodd" d="M10.7667 10.1762C10.3613 11.1248 10.1333 12.9862 10.07 13.7767C9.35222 13.8845 9.12 14.5097 9.12 14.6822V17.2479C9.23822 17.7998 9.6337 18.024 9.81667 18.0671C9.71111 21.3658 9.88 26.303 9.96444 27.0576C10.032 27.6613 10.3444 27.8697 10.4922 27.8984H11.6956V29.4723C11.78 29.7813 12.1727 30.3994 13.0678 30.3994C13.9629 30.3994 14.2711 29.7813 14.3133 29.4723V27.8984H24.1089V29.6017C24.1933 29.8819 24.5776 30.4425 25.4389 30.4425C26.3002 30.4425 26.6281 29.8819 26.6844 29.6017V27.8984C26.7759 27.9056 27.0729 27.9157 27.5289 27.8984C27.9849 27.8812 28.127 27.4888 28.1411 27.2948V18.0671C28.6816 17.8774 28.88 17.4203 28.88 17.2479V14.6391C28.8631 14.0699 28.2044 13.7911 27.9089 13.7336C27.7569 11.6638 27.3389 10.6721 27.0011 10.1547C26.3137 9.10157 24.7681 8.89559 23.5674 8.73557L23.5673 8.73556C23.3947 8.71256 23.2292 8.6905 23.0744 8.66702C20.4567 8.35656 18.0852 8.35081 17.2267 8.38674C12.464 8.57647 10.9356 9.65877 10.7667 10.1762ZM14.1022 10.3918H23.94V11.9441H14.1022V10.3918ZM25.6711 12.7634H12.3289V20.0075H25.6711V12.7634ZM15.5378 24.7723C15.5378 25.57 14.9045 26.2168 14.1233 26.2168C13.3422 26.2168 12.7089 25.57 12.7089 24.7723C12.7089 23.9745 13.3422 23.3277 14.1233 23.3277C14.9045 23.3277 15.5378 23.9745 15.5378 24.7723ZM23.7922 26.2168C24.5734 26.2168 25.2067 25.57 25.2067 24.7723C25.2067 23.9745 24.5734 23.3277 23.7922 23.3277C23.011 23.3277 22.3778 23.9745 22.3778 24.7723C22.3778 25.57 23.011 26.2168 23.7922 26.2168Z" fill="#F68221"/>
</g>
<defs>
<clipPath id="clip0_5788_16051">
<rect width="38" height="43" fill="white"/>
</clipPath>
</defs>
</svg>
