<svg id="Camada_1" data-name="Camada 1" xmlns="http://www.w3.org/2000/svg" viewBox="0 0 308 344"><defs><style>.cls-1{fill:#fff;}.cls-2{fill:#bb133e;}</style></defs><title>flagEnd2x2</title><path class="cls-1" d="M155.46,3h0A148.93,148.93,0,0,0,6.53,151.9h0A149,149,0,0,0,122.94,297.23l20.39,34.66a13.7,13.7,0,0,0,23.61,0l20.28-34.49A149,149,0,0,0,304.39,151.9h0A148.93,148.93,0,0,0,155.46,3Z"/><path class="cls-2" d="M155.46,18.22h0A135.4,135.4,0,0,0,20.07,153.62h0A135.41,135.41,0,0,0,125.9,285.73l18.53,31.51a12.44,12.44,0,0,0,21.46,0l18.44-31.35A135.41,135.41,0,0,0,290.85,153.62h0A135.39,135.39,0,0,0,155.46,18.22Z"/><path class="cls-1" d="M93,65l.1,0L93,65Z"/><path class="cls-1" d="M164.18,73.23l.74.26-2.81-1Z"/><path class="cls-1" d="M234,89l.76-6.44a7.45,7.45,0,0,0-.57-2.83,7.29,7.29,0,0,0-9.55-3.88A32.41,32.41,0,0,1,219,78l5,5Z"/><path class="cls-1" d="M140,109.5a102,102,0,0,0-16-2.94v19.76a55.88,55.88,0,0,0-5.88-.32c-3.71,0-7.07.14-10.12.39V106.63a86,86,0,0,0-15,2.19V87a80.29,80.29,0,0,1,15-2.37v-22A80.29,80.29,0,0,0,93,65h0a36.91,36.91,0,0,0-8.94,3.52,9.73,9.73,0,0,0-4.82,8.39V237.24a6.48,6.48,0,0,0,13,0L92.51,171H93a80.29,80.29,0,0,1,15-2.37v-22A80.29,80.29,0,0,0,93,149V129a86,86,0,0,1,15-2.19v19.82c3-.23,6.41-.36,10.12-.36,1.93,0,3.9.1,5.88.29v-20a102,102,0,0,1,16,2.94v-20ZM93,75l0-10V75Z"/><path class="cls-1" d="M203,156.35v9a74.31,74.31,0,0,0,16-3.41v-20a74.31,74.31,0,0,1-16,3.41Z"/><path class="cls-1" d="M203,114.35v11a74.31,74.31,0,0,0,16-3.41v-22a74.31,74.31,0,0,1-16,3.41Z"/><path class="cls-1" d="M182.84,154.41c1.42.39,2.82.76,4.16,1.09V144.83A149.78,149.78,0,0,1,172,140v20a156.2,156.2,0,0,0,15,4.53v-9C185.66,155.19,184.26,154.82,182.84,154.41Z"/><path class="cls-1" d="M108,106.63c3-.22,6.41-.35,10.12-.35,1.93,0,3.9.1,5.88.28v-22c-2-.18-4-.28-5.88-.28-3.71,0-7.07.13-10.12.35v22Z"/><path class="cls-1" d="M172,120a156.2,156.2,0,0,0,15,4.53v-22A156.2,156.2,0,0,1,172,98v22Z"/><path class="cls-1" d="M140,109.5c5.38,1.39,10.76,3.1,16,4.88v-22c-5.24-1.78-10.62-3.49-16-4.88v22Z"/><path class="cls-1" d="M156,134.38c-5.24-1.78-10.62-3.49-16-4.88v20c5.38,1.39,10.76,3.1,16,4.88v-20Z"/><path class="cls-1" d="M140,76.5v-11c-1.46-.37-2.92-.73-4.37-1.06A93.1,93.1,0,0,0,124,62.56v22a102,102,0,0,1,16,2.94Z"/><path class="cls-1" d="M124,157.56v11a102,102,0,0,1,16,2.94v-22a102,102,0,0,0-16-2.94Z"/><path class="cls-1" d="M172,98V76l-1-.38c-2-.69-4-1.41-6.07-2.13l-.74-.26c-2.67-.94-5.4-1.9-8.18-2.85v22c3,1,6,2.08,8.92,3.11C167.31,96.34,169.68,97.17,172,98Z"/><path class="cls-1" d="M156,114.38v20c3,1,6,2.08,8.92,3.11,2.39.85,4.76,1.68,7.08,2.48V120c-2.32-.8-4.69-1.63-7.08-2.48C162,116.46,159,115.41,156,114.38Z"/><path class="cls-1" d="M156,154.38v22c3,1,6,2.08,8.92,3.11,2.39.85,4.76,1.68,7.08,2.48V160c-2.32-.8-4.69-1.63-7.08-2.48C162,156.46,159,155.41,156,154.38Z"/><path class="cls-1" d="M203,103.35v-22c-2.36.24-4.74.36-7.12.37A40.74,40.74,0,0,1,187,80.5v22a40.74,40.74,0,0,0,8.88,1.22C198.26,103.71,200.64,103.59,203,103.35Z"/><path class="cls-1" d="M187,124.5v20a40.74,40.74,0,0,0,8.88,1.22c2.38,0,4.76-.13,7.12-.37v-20c-2.36.24-4.74.36-7.12.37A40.74,40.74,0,0,1,187,124.5Z"/><path class="cls-1" d="M187,164.5v20.3a40.74,40.74,0,0,0,8.88,1.22c2.38,0,4.76-.13,7.12-.37v-20.3c-2.36.24-4.74.36-7.12.37A40.74,40.74,0,0,1,187,164.5Z"/><path class="cls-1" d="M234.19,79.73a7.28,7.28,0,0,0-4-3.92,6.89,6.89,0,0,0-1.34-.4,7.15,7.15,0,0,0-1.4-.14,7.28,7.28,0,0,0-2.83.58c-1.85.78-3.74,1.46-5.64,2.09v11c1.9-.63,3.79-1.31,5.64-2.09a7.19,7.19,0,0,1,1.41-.44,7.19,7.19,0,0,0-1.41.44c-1.85.78-3.74,1.46-5.64,2.09v11c1.9-.63,3.79-1.31,5.64-2.09a7.26,7.26,0,0,1,10.06,5.83v-22A7.28,7.28,0,0,0,234.19,79.73Z"/><path class="cls-1" d="M219,131.94v10c1.9-.63,3.79-1.31,5.64-2.09a7.26,7.26,0,0,1,10.06,5.83v-20a7.26,7.26,0,0,0-10.06-5.83c-1.85.78-3.74,1.46-5.64,2.09v10Z"/><path class="cls-1" d="M219,172.94v9.5c1.9-.63,3.79-1.31,5.64-2.09a7.28,7.28,0,0,1,9.46,3.7,7.66,7.66,0,0,0,.27-.72,8.07,8.07,0,0,0,.33-2.5V165.68a7.26,7.26,0,0,0-10.06-5.83c-1.85.78-3.74,1.46-5.64,2.09v11Z"/></svg>