<svg width="23" height="23" viewBox="0 0 23 23" fill="none" xmlns="http://www.w3.org/2000/svg">
<path d="M23 1.4375C23 1.05625 22.8486 0.690618 22.579 0.421034C22.3094 0.151451 21.9437 0 21.5625 0H14.375C13.9938 0 13.6281 0.151451 13.3585 0.421034C13.089 0.690618 12.9375 1.05625 12.9375 1.4375C12.9375 1.81875 13.089 2.18438 13.3585 2.45397C13.6281 2.72355 13.9938 2.875 14.375 2.875H18.0694L13.3544 7.60437C13.2196 7.73801 13.1127 7.897 13.0397 8.07217C12.9667 8.24734 12.9292 8.43523 12.9292 8.625C12.9292 8.81477 12.9667 9.00266 13.0397 9.17783C13.1127 9.353 13.2196 9.51199 13.3544 9.64563C13.488 9.78036 13.647 9.8873 13.8222 9.96028C13.9973 10.0333 14.1852 10.0708 14.375 10.0708C14.5648 10.0708 14.7527 10.0333 14.9278 9.96028C15.103 9.8873 15.262 9.78036 15.3956 9.64563L20.125 4.91625V8.625C20.125 9.00625 20.2764 9.37188 20.546 9.64147C20.8156 9.91105 21.1813 10.0625 21.5625 10.0625C21.9437 10.0625 22.3094 9.91105 22.579 9.64147C22.8486 9.37188 23 9.00625 23 8.625V1.4375ZM9.64563 13.3544C9.51199 13.2196 9.353 13.1127 9.17783 13.0397C9.00266 12.9667 8.81477 12.9292 8.625 12.9292C8.43523 12.9292 8.24734 12.9667 8.07217 13.0397C7.897 13.1127 7.73801 13.2196 7.60437 13.3544L2.875 18.0694V14.375C2.875 13.9938 2.72355 13.6281 2.45397 13.3585C2.18438 13.089 1.81875 12.9375 1.4375 12.9375C1.05625 12.9375 0.690618 13.089 0.421034 13.3585C0.151451 13.6281 0 13.9938 0 14.375V21.5625C0 21.9437 0.151451 22.3094 0.421034 22.579C0.690618 22.8486 1.05625 23 1.4375 23H8.625C9.00625 23 9.37188 22.8486 9.64147 22.579C9.91105 22.3094 10.0625 21.9437 10.0625 21.5625C10.0625 21.1813 9.91105 20.8156 9.64147 20.546C9.37188 20.2764 9.00625 20.125 8.625 20.125H4.91625L9.64563 15.3956C9.78036 15.262 9.8873 15.103 9.96028 14.9278C10.0333 14.7527 10.0708 14.5648 10.0708 14.375C10.0708 14.1852 10.0333 13.9973 9.96028 13.8222C9.8873 13.647 9.78036 13.488 9.64563 13.3544Z" fill="#909193"/>
</svg>
