<svg width="38" height="43" viewBox="0 0 38 43" fill="none" xmlns="http://www.w3.org/2000/svg">
<g clip-path="url(#clip0_5791_15685)">
<path d="M19 0C16.5049 0 14.0342 0.493436 11.729 1.45213C9.42383 2.41083 7.32928 3.81602 5.56497 5.58746C2.00178 9.16506 6.67125e-09 14.0173 6.67124e-09 19.0768C-0.000114392 23.4129 1.47106 27.6198 4.17109 31.004C6.87112 34.3882 10.6389 36.7479 14.8535 37.6943L17.4524 42.1409C17.6894 42.5405 18.0743 42.8296 18.523 42.945C18.9717 43.0604 19.4477 42.9927 19.8468 42.7566C20.1013 42.6087 20.3127 42.3964 20.46 42.1409L23.0492 37.7138C27.285 36.7861 31.0775 34.4318 33.7971 31.0418C36.5166 27.6517 37.9997 23.4298 38 19.0768C38 14.0173 35.9982 9.16506 32.435 5.58746C28.8718 2.00987 24.0391 0 19 0Z" fill="#F68221"/>
<path d="M18.9854 1.80764C14.3928 1.80764 9.98828 3.64234 6.74082 6.90813C3.49335 10.1739 1.66895 14.6033 1.66895 19.2218C1.67133 23.1771 3.01255 27.0137 5.4719 30.1003C7.93125 33.1869 11.3622 35.3397 15.2002 36.2043L17.5708 40.2561C17.7086 40.501 17.9085 40.7047 18.1502 40.8464C18.3918 40.9882 18.6666 41.0629 18.9464 41.0629C19.2261 41.0629 19.5009 40.9882 19.7426 40.8464C19.9842 40.7047 20.1842 40.501 20.3219 40.2561L22.6731 36.2239C26.5386 35.3855 30.002 33.2412 32.487 30.1478C34.972 27.0544 36.3286 23.1985 36.3311 19.2218C36.3311 16.9325 35.8822 14.6656 35.0102 12.5509C34.1381 10.4362 32.86 8.51515 31.2489 6.89771C29.6378 5.28027 27.7254 3.99817 25.6211 3.12476C23.5168 2.25135 21.2619 1.80377 18.9854 1.80764Z" fill="white"/>
<path d="M10.5023 13.7087C10.7789 13.7087 11.0047 13.4829 11.0047 13.2063V11.0047H13.2063C13.4829 11.0047 13.7087 10.7789 13.7087 10.5023C13.7087 10.2258 13.4829 10 13.2063 10H10.5023C10.2258 10 10 10.2258 10 10.5023V13.2063C10 13.4829 10.2258 13.7087 10.5023 13.7087Z" fill="#F68221"/>
<path d="M27.8531 10.1469C27.758 10.0519 27.6316 10 27.4977 10H24.7937C24.5171 10 24.2913 10.2258 24.2913 10.5023C24.2913 10.7789 24.5171 11.0047 24.7937 11.0047H26.9953V13.2063C26.9953 13.4829 27.2211 13.7087 27.4977 13.7087C27.7742 13.7087 28 13.4829 28 13.2063V10.5023C28 10.3684 27.9481 10.242 27.8531 10.1469Z" fill="#F68221"/>
<path d="M13.2063 26.9953H11.0047V24.7936C11.0047 24.517 10.7789 24.2913 10.5023 24.2913C10.2258 24.2913 10 24.517 10 24.7936V27.4976C10 27.6316 10.0519 27.758 10.1469 27.853C10.242 27.9481 10.3684 27.9999 10.5023 27.9999H13.2063C13.4829 27.9999 13.7087 27.7742 13.7087 27.4976C13.7087 27.221 13.4829 26.9953 13.2063 26.9953Z" fill="#F68221"/>
<path d="M27.4977 24.2913C27.2211 24.2913 26.9953 24.517 26.9953 24.7936V26.9953H24.7937C24.5171 26.9953 24.2913 27.221 24.2913 27.4976C24.2913 27.7742 24.5171 27.9999 24.7937 27.9999H27.4977C27.6316 27.9999 27.758 27.9481 27.8531 27.853C27.9481 27.758 28 27.6316 28 27.4976V24.7936C28 24.517 27.7742 24.2913 27.4977 24.2913Z" fill="#F68221"/>
<path d="M19 26.3752C20.6572 26.3752 22.2117 25.5758 23.1754 24.2275H14.8246C15.7883 25.5747 17.3439 26.3752 19 26.3752Z" fill="#F68221"/>
<path d="M13.081 20.4616H13.619L13.9096 22.0756H10.6536C10.3565 22.0756 10.1156 22.3165 10.1156 22.6136C10.1156 22.9107 10.3565 23.1516 10.6536 23.1516H27.3464C27.6435 23.1516 27.8844 22.9107 27.8844 22.6136C27.8844 22.3165 27.6435 22.0756 27.3464 22.0756H24.0742L24.381 20.4616H24.919C26.2564 20.4616 27.0709 17.2337 24.8596 17.2337C24.8596 15.1401 23.7425 13.2063 21.9298 12.1595C20.117 11.1127 17.883 11.1127 16.0702 12.1595C14.2575 13.2063 13.1404 15.1401 13.1404 17.2337C10.9021 17.2337 12.0191 20.4616 13.081 20.4616Z" fill="#F68221"/>
</g>
<defs>
<clipPath id="clip0_5791_15685">
<rect width="38" height="43" fill="white"/>
</clipPath>
</defs>
</svg>
