<svg width="22" height="22" viewBox="0 0 22 22" fill="none" xmlns="http://www.w3.org/2000/svg">
<path fill-rule="evenodd" clip-rule="evenodd" d="M6 0H20C21.1 0 22 0.9 22 2V16C22 17.1 21.1 18 20 18H6C4.9 18 4 17.1 4 16V2C4 0.9 4.9 0 6 0ZM0 5C0 4.45 0.45 4 1 4C1.55 4 2 4.45 2 5V19C2 19.55 2.45 20 3 20H17C17.55 20 18 20.45 18 21C18 21.55 17.55 22 17 22H2C0.9 22 0 21.1 0 20V5ZM19 16H7C6.45 16 6 15.55 6 15V3C6 2.45 6.45 2 7 2H19C19.55 2 20 2.45 20 3V15C20 15.55 19.55 16 19 16ZM16.2175 6.2175C16.5075 5.9275 16.9875 5.9275 17.2775 6.2175C17.5675 6.5075 17.5675 6.9875 17.2675 7.2775L12.5675 11.9775C12.1775 12.3675 11.5475 12.3675 11.1575 11.9775L9.2175 10.0375C8.9275 9.7475 8.9275 9.2675 9.2175 8.9775C9.5075 8.6875 9.9875 8.6875 10.2775 8.9775L11.8675 10.5675L16.2175 6.2175Z" fill="white"/>
</svg>
