<svg width="38" height="43" viewBox="0 0 38 43" fill="none" xmlns="http://www.w3.org/2000/svg">
<g clip-path="url(#clip0_2551_11097)">
<path d="M19 0C16.5049 0 14.0342 0.493436 11.729 1.45213C9.42383 2.41083 7.32928 3.81602 5.56497 5.58746C2.00178 9.16506 6.67125e-09 14.0173 6.67124e-09 19.0768C-0.000114392 23.4129 1.47106 27.6198 4.17109 31.004C6.87112 34.3882 10.6389 36.7479 14.8535 37.6943L17.4524 42.1409C17.6894 42.5405 18.0743 42.8296 18.523 42.945C18.9717 43.0604 19.4477 42.9927 19.8468 42.7566C20.1013 42.6087 20.3127 42.3964 20.46 42.1409L23.0492 37.7138C27.285 36.7861 31.0775 34.4318 33.7971 31.0418C36.5166 27.6517 37.9997 23.4298 38 19.0768C38 14.0173 35.9982 9.16506 32.435 5.58746C28.8718 2.00987 24.0391 0 19 0Z" fill="#F68221"/>
<path d="M18.9854 1.80764C14.3928 1.80764 9.98828 3.64234 6.74082 6.90813C3.49335 10.1739 1.66895 14.6033 1.66895 19.2218C1.67133 23.1771 3.01255 27.0137 5.4719 30.1003C7.93125 33.1869 11.3622 35.3397 15.2002 36.2043L17.5708 40.2561C17.7086 40.501 17.9085 40.7047 18.1502 40.8464C18.3918 40.9882 18.6666 41.0629 18.9464 41.0629C19.2261 41.0629 19.5009 40.9882 19.7426 40.8464C19.9842 40.7047 20.1842 40.501 20.3219 40.2561L22.6731 36.2239C26.5386 35.3855 30.002 33.2412 32.487 30.1478C34.972 27.0544 36.3286 23.1985 36.3311 19.2218C36.3311 16.9325 35.8822 14.6656 35.0102 12.5509C34.1381 10.4362 32.86 8.51515 31.2489 6.89771C29.6378 5.28027 27.7254 3.99817 25.6211 3.12476C23.5168 2.25135 21.2619 1.80377 18.9854 1.80764Z" fill="white"/>
<path fill-rule="evenodd" clip-rule="evenodd" d="M24.1113 20.3585C26.8429 20.3585 28.12 18.6608 28.12 18.6608L18.8984 30.823L7.6 15.8237C7.6 15.8237 9.4453 14.0797 12.5183 14.0797C15.4116 14.0797 17.6685 16.3334 19.8104 18.1404C21.2436 19.3495 22.6251 20.3585 24.1113 20.3585Z" fill="#F68221"/>
<path fill-rule="evenodd" clip-rule="evenodd" d="M30.4 15.7284C30.4 15.7284 29.3447 14.8407 27.9374 14.8407C25.1227 14.8407 23.3636 17.6946 19.76 18.2801C21.1956 19.5167 22.5789 20.5487 24.0672 20.5487C26.803 20.5487 28.082 18.8124 28.082 18.8124L30.4 15.7284Z" fill="#F68221" fill-opacity="0.5"/>
</g>
<defs>
<clipPath id="clip0_2551_11097">
<rect width="38" height="43" fill="white"/>
</clipPath>
</defs>
</svg>
