<svg width="13" height="13" viewBox="0 0 13 13" fill="none" xmlns="http://www.w3.org/2000/svg">
<path fill-rule="evenodd" clip-rule="evenodd" d="M1.50308 0.25H11.4968C12.1843 0.25 12.7468 0.8125 12.7468 1.5V12.75L10.2531 10.25H1.50308C0.815577 10.25 0.253077 9.6875 0.253077 9V1.5C0.253077 0.8125 0.815577 0.25 1.50308 0.25ZM5.87814 6.5V7.75H7.12814V6.5H5.87814ZM6.50314 5.25C6.15939 5.25 5.87814 4.96875 5.87814 4.625V3.375C5.87814 3.03125 6.15939 2.75 6.50314 2.75C6.84689 2.75 7.12814 3.03125 7.12814 3.375V4.625C7.12814 4.96875 6.84689 5.25 6.50314 5.25Z" fill="#909193"/>
</svg>
