<svg width="39" height="44" viewBox="0 0 39 44" fill="none" xmlns="http://www.w3.org/2000/svg">
<g filter="url(#filter0_dd)">
<path d="M21 35L25.3909 30L32 30C33.1046 30 34 29.1046 34 28L34 5.99999C34 4.89542 33.1046 3.99999 32 3.99999L10 3.99999C8.89544 3.99999 8 4.89543 8.00001 5.99999L8.00001 28C8.00001 29.1046 8.89544 30 10 30L17 30L21 35Z" fill="#EFEFEF"/>
<path d="M21 35L25.3909 30L32 30C33.1046 30 34 29.1046 34 28L34 5.99999C34 4.89542 33.1046 3.99999 32 3.99999L10 3.99999C8.89544 3.99999 8 4.89543 8.00001 5.99999L8.00001 28C8.00001 29.1046 8.89544 30 10 30L17 30L21 35Z" stroke="#C7C8C9" stroke-width="0.5"/>
</g>
<path d="M28 17C28 20.866 24.866 24 21 24C17.134 24 14 20.866 14 17C14 13.134 17.134 10 21 10C24.866 10 28 13.134 28 17Z" stroke="#959DAC" stroke-width="2"/>
<path d="M20 14C20 13.4477 20.4477 13 21 13C21.5523 13 22 13.4477 22 14C22 14.5523 21.5523 15 21 15C20.4477 15 20 14.5523 20 14Z" fill="#959DAC"/>
<path d="M20 17C20 16.4477 20.4477 16 21 16C21.5523 16 22 16.4477 22 17V20C22 20.5523 21.5523 21 21 21C20.4477 21 20 20.5523 20 20V17Z" fill="#959DAC"/>
<defs>
<filter id="filter0_dd" x="0.75" y="0.75" width="37.5" height="42.639" filterUnits="userSpaceOnUse" color-interpolation-filters="sRGB">
<feFlood flood-opacity="0" result="BackgroundImageFix"/>
<feColorMatrix in="SourceAlpha" type="matrix" values="0 0 0 0 0 0 0 0 0 0 0 0 0 0 0 0 0 0 127 0"/>
<feOffset dy="4"/>
<feGaussianBlur stdDeviation="2"/>
<feColorMatrix type="matrix" values="0 0 0 0 0 0 0 0 0 0 0 0 0 0 0 0 0 0 0.25 0"/>
<feBlend mode="normal" in2="BackgroundImageFix" result="effect1_dropShadow"/>
<feColorMatrix in="SourceAlpha" type="matrix" values="0 0 0 0 0 0 0 0 0 0 0 0 0 0 0 0 0 0 127 0"/>
<feOffset dx="-2" dy="2"/>
<feGaussianBlur stdDeviation="2.5"/>
<feColorMatrix type="matrix" values="0 0 0 0 0 0 0 0 0 0 0 0 0 0 0 0 0 0 0.1237 0"/>
<feBlend mode="normal" in2="effect1_dropShadow" result="effect2_dropShadow"/>
<feBlend mode="normal" in="SourceGraphic" in2="effect2_dropShadow" result="shape"/>
</filter>
</defs>
</svg>
