<?xml version="1.0" encoding="UTF-8"?>
<svg width="52px" height="52px" viewBox="0 0 52 52" version="1.1" xmlns="http://www.w3.org/2000/svg" xmlns:xlink="http://www.w3.org/1999/xlink">
    <title>bell</title>
    <defs>
        <filter id="filter-1">
            <feColorMatrix in="SourceGraphic" type="matrix" values="0 0 0 0 0.911373 0 0 0 0 0.911373 0 0 0 0 0.911373 0 0 0 1.000000 0"></feColorMatrix>
        </filter>
    </defs>
    <g id="WorkBoard" stroke="none" stroke-width="1" fill="none" fill-rule="evenodd">
        <g id="Sem-notificações" transform="translate(-1174.000000, -126.000000)">
            <g filter="url(#filter-1)" id="bell">
                <g transform="translate(1174.000000, 126.000000)">
                    <path d="M18,48 C18.7462046,50.3091084 21.1488858,52 24,52 C26.8509366,52 29.2536178,50.3089514 30,48 C28.1480276,48.0478873 26.1510757,48.0719879 24,48.0719879 C21.8489243,48.0719879 19.85215,48.0478873 18,48 Z" id="Path" fill="#000000" fill-rule="nonzero"></path>
                    <path d="M50.7272822,41.4678603 L4.77426216,8.56326353 C3.41331011,7.58864998 1.52574737,7.91065052 0.558728143,9.28296358 C-0.408120213,10.6550183 -0.0885143369,12.5575687 1.27269401,13.5321822 L8.32709027,18.5835172 C8.20116163,19.7271832 8.13426737,20.8984935 8.13426737,22.0919365 C8.13426737,34.6145624 -16.4651331,44.7660621 24.1892299,44.7660621 C33.4116663,44.7660621 39.2750373,44.2434033 42.8302575,43.2893723 L47.2257995,46.4366928 C47.757109,46.8170823 48.3683841,47 48.9740205,47 C49.9201086,47 50.8517585,46.553643 51.4412481,45.7169928 C52.4080964,44.3451964 52.088576,42.4427322 50.7272822,41.4678603 Z" id="Path" fill="#000000" fill-rule="nonzero"></path>
                    <path d="M39.7095899,22.6887028 C39.7095899,10.1581985 32.5372728,0 23.6893918,0 C19.0782877,0 14.9230086,2.76009245 12,7.17611973 L41,28 C40.2330171,26.296152 39.7095899,24.5177628 39.7095899,22.6887028 Z" id="Path" fill="#000000" fill-rule="nonzero"></path>
                </g>
            </g>
        </g>
    </g>
</svg>