<?xml version="1.0" encoding="UTF-8"?>
<svg width="28px" height="28px" viewBox="0 0 28 28" version="1.1" xmlns="http://www.w3.org/2000/svg" xmlns:xlink="http://www.w3.org/1999/xlink">
    <title>spam copy</title>
    <defs>
        <filter id="filter-1">
            <feColorMatrix in="SourceGraphic" type="matrix" values="0 0 0 0 1.000000 0 0 0 0 1.000000 0 0 0 0 1.000000 0 0 0 1.000000 0"></feColorMatrix>
        </filter>
    </defs>
    <g id="WorkBoard" stroke="none" stroke-width="1" fill="none" fill-rule="evenodd">
        <g id="Notificações" transform="translate(-1290.000000, -388.000000)">
            <g id="Group" transform="translate(1058.000000, 44.000000)">
                <g filter="url(#filter-1)" id="spam-copy">
                    <g transform="translate(232.000000, 344.000000)">
                        <path d="M20.4165124,0.68359375 C19.9755854,0.242675781 19.3896767,0 18.7667392,0 L9.23269112,0 C8.60946873,0 8.02384484,0.242675781 7.58291797,0.68359375 L0.684177294,7.58219401 C0.242680718,8.02254235 0,8.60815433 0,9.23307292 C0.00284836524,10.9842122 0.0122479888,17.0146484 0.00455738438,18.7657878 C0.00227869219,19.391276 0.24495941,19.9791667 0.68844986,20.4217936 L7.58291797,27.3164062 C8.02384484,27.7573242 8.60946873,28 9.23269112,28 L18.7667392,28 C19.3896767,28 19.9755854,27.7573242 20.4165124,27.3164062 L27.3163923,20.4166667 C27.7573192,19.9763184 28,19.3901367 28,18.7663575 L28,9.23364254 C28,8.61071779 27.7573192,8.0242513 27.3163923,7.58333333 L20.4165124,0.68359375 Z M25.6666192,18.7669271 L18.7667392,25.6666667 L9.23269112,25.6666667 L2.33793819,18.7723389 C2.34562879,17.0163575 2.33622913,10.9825033 2.3333808,9.23250329 L9.23269112,2.33333333 L18.7667392,2.33333333 L25.6666192,9.23364254 L25.6666192,18.7669271 Z" id="Shape" fill="#000000" fill-rule="nonzero"></path>
                        <path d="M14.000732,5 C13.4272093,5 12.8814293,5.27410338 12.5015873,5.75277431 C12.1220044,6.23086822 11.9456955,6.86851918 12.0146634,7.48308775 L12.9452117,16.9468662 C13.0040678,17.5461426 13.4585819,18 14.000732,18 C14.542882,18 14.9973961,17.5461426 15.0562522,16.9462891 L15.984467,7.50126507 C16.0557684,6.86851918 15.8794595,6.23086822 15.4996174,5.75277431 C15.1200346,5.27410338 14.5742546,5 14.000732,5 Z" id="Path" fill="#000000" fill-rule="nonzero"></path>
                        <path d="M14,20 C13.1730957,20 12.5,20.6730957 12.5,21.5 C12.5,22.3269043 13.1730957,23 14,23 C14.8269043,23 15.5,22.3269043 15.5,21.5 C15.5,20.6730957 14.8269043,20 14,20 Z" id="Path" fill="#000000" fill-rule="nonzero"></path>
                    </g>
                </g>
            </g>
        </g>
    </g>
</svg>