<svg width="28" height="31" viewBox="0 0 28 31" fill="none" xmlns="http://www.w3.org/2000/svg">
<path d="M23.8536 19.1465C23.7601 19.0535 23.6316 19 23.5002 19C23.3683 19 23.2398 19.0535 23.1469 19.1465C23.0534 19.2395 23 19.3685 23 19.5C23 19.6315 23.0534 19.7605 23.1469 19.8535C23.2394 19.9464 23.3683 20 23.5002 20C23.6317 20 23.7606 19.9465 23.8536 19.8535C23.9465 19.7605 24 19.6315 24 19.5C24 19.3685 23.9465 19.2395 23.8536 19.1465Z" fill="black"/>
<path fill-rule="evenodd" clip-rule="evenodd" d="M24.9214 1.05474C25.6032 1.1952 26.1891 1.59141 26.5713 2.17027C26.9536 2.74914 27.0862 3.44129 26.945 4.11939L25.2528 12.2405C25.189 12.5469 24.8875 12.7437 24.5796 12.6802C24.2716 12.6167 24.0737 12.317 24.1375 12.0107L25.8297 3.88954C25.9093 3.50778 25.8346 3.11798 25.6194 2.79207C25.4042 2.46616 25.0743 2.24306 24.6904 2.16399C24.3066 2.08491 23.9147 2.15917 23.587 2.3731C23.2593 2.58715 23.0349 2.91527 22.9554 3.29708L19.8387 18.2558C19.5661 19.5637 18.3936 20.5131 17.0505 20.5131H8.95449C8.16051 20.5131 7.50224 21.1551 7.48703 21.9442C7.47968 22.3278 7.62866 22.6942 7.90663 22.9759C8.19291 23.2662 8.58951 23.4326 8.9947 23.4326H20.563C21.2552 23.4326 21.8596 22.9433 22.0001 22.2692L23.2467 16.286C23.3106 15.9796 23.6122 15.7832 23.9199 15.8463C24.228 15.9098 24.4259 16.2095 24.362 16.5159L23.1154 22.499C22.8659 23.6963 21.7926 24.5654 20.563 24.5654H17.7082L19.6558 29.2158C19.729 29.3906 19.7095 29.5903 19.6039 29.7478C19.4984 29.9054 19.3206 30 19.1301 30H10.345C10.1546 30 9.97678 29.9054 9.8712 29.7478C9.76562 29.5902 9.74614 29.3906 9.81932 29.2158L11.7669 24.5654H8.99475C8.28568 24.5654 7.59273 24.2752 7.09363 23.7693C7.06606 23.7413 7.03947 23.7127 7.01333 23.6838L5.69234 28.7265C5.49598 29.4762 4.8147 29.9999 4.03558 29.9999H2.713C2.17876 29.9999 1.68496 29.7588 1.3583 29.3384C1.03158 28.918 0.921499 28.3819 1.05618 27.8678L2.00729 24.237C2.08656 23.9344 2.3975 23.7527 2.70195 23.8318C3.00623 23.9106 3.18875 24.2199 3.10942 24.5227L2.15832 28.1534C2.11327 28.3255 2.15006 28.5049 2.25946 28.6456C2.3688 28.7864 2.53407 28.8671 2.71294 28.8671H4.03558C4.29635 28.8671 4.52443 28.6918 4.59015 28.4409L6.3345 21.7821C6.34179 21.7542 6.3517 21.7278 6.36274 21.702C6.50067 20.4032 7.61915 19.3803 8.95443 19.3803H17.0504C17.8562 19.3803 18.5598 18.8107 18.7233 18.0259L20.1511 11.174C20.1519 11.1697 20.1521 11.1655 20.153 11.1613C20.2878 10.5145 20.1612 9.8543 19.7967 9.30217C19.4322 8.7501 18.8733 8.37219 18.223 8.23818C17.573 8.10405 16.9091 8.22997 16.3539 8.59252C15.7987 8.95513 15.4187 9.51101 15.284 10.1578L15.1588 10.7779L15.7285 10.2081C15.9502 9.98616 16.3108 9.98526 16.5338 10.2058C16.7568 10.4264 16.7579 10.785 16.5361 11.0068L13.2763 14.2676C13.1694 14.3745 13.0241 14.4347 12.8725 14.4347H8.19046C7.80247 14.4347 7.48675 14.7487 7.48675 15.1346C7.48675 15.5205 7.80247 15.8345 8.19046 15.8345H14.131L16.8469 13.1057C17.0681 12.8834 17.4287 12.8815 17.6522 13.1017C17.8758 13.3217 17.8776 13.6804 17.6563 13.9027L14.7733 16.7994C14.6664 16.9069 14.5207 16.9673 14.3686 16.9673H6.02612C5.47423 16.9673 4.99147 17.3384 4.85229 17.8697L4.18012 20.4354C4.11337 20.6902 3.88233 20.8591 3.62942 20.8591C3.58187 20.8591 3.53363 20.8532 3.48546 20.8407C3.18112 20.7618 2.99866 20.4525 3.07799 20.1497L3.75015 17.584C4.01998 16.5539 4.95593 15.8345 6.02612 15.8345H6.48775C6.39771 15.6187 6.34777 15.3824 6.34777 15.1346C6.34777 14.1241 7.17438 13.3019 8.19046 13.3019H12.6356L13.7034 12.2338L14.1681 9.93139C14.3653 8.98493 14.9193 8.1744 15.7288 7.64572C15.946 7.50383 16.1749 7.38766 16.4115 7.29619C15.7685 6.69784 15.3656 5.84727 15.3656 4.90443V4.4116C15.3656 2.60471 16.8436 1.13466 18.6604 1.13466C20.1066 1.13466 21.3374 2.06668 21.7795 3.35825L21.8401 3.06729C21.9813 2.38919 22.3797 1.80641 22.9617 1.4263C23.5437 1.04613 24.2399 0.914324 24.9214 1.05474ZM18.276 28.8671L16.4743 24.5653H13.0007L11.1991 28.8671H18.276ZM18.6603 7.0485C17.4715 7.0485 16.5045 6.08663 16.5045 4.90437V4.41154C16.5045 3.22922 17.4716 2.26735 18.6603 2.26735C19.8491 2.26735 20.8161 3.22922 20.8161 4.41154V4.90437C20.8162 6.08663 19.8491 7.0485 18.6603 7.0485ZM20.0328 7.88236C20.28 8.08666 20.5002 8.32563 20.6886 8.59405L20.9713 7.23734C20.7001 7.5031 20.3828 7.72213 20.0328 7.88236Z" fill="#3D7EDB"/>
<path d="M26.5713 2.17027L26.3627 2.30802L26.3627 2.30803L26.5713 2.17027ZM24.9214 1.05474L24.8709 1.29959V1.29959L24.9214 1.05474ZM26.945 4.11939L27.1897 4.17038L27.1897 4.17036L26.945 4.11939ZM25.2528 12.2405L25.0081 12.1895L25.0081 12.1896L25.2528 12.2405ZM24.5796 12.6802L24.6301 12.4354L24.6301 12.4354L24.5796 12.6802ZM24.1375 12.0107L24.3823 12.0617L24.3823 12.0617L24.1375 12.0107ZM25.8297 3.88954L25.5849 3.8385L25.5849 3.83855L25.8297 3.88954ZM25.6194 2.79207L25.828 2.65434L25.828 2.65431L25.6194 2.79207ZM24.6904 2.16399L24.64 2.40884L24.64 2.40885L24.6904 2.16399ZM23.587 2.3731L23.4503 2.16375L23.4502 2.1638L23.587 2.3731ZM22.9554 3.29708L23.2002 3.34807L23.2002 3.34804L22.9554 3.29708ZM19.8387 18.2558L20.0834 18.3068V18.3068L19.8387 18.2558ZM7.48703 21.9442L7.23708 21.9394L7.23708 21.9394L7.48703 21.9442ZM7.90663 22.9759L8.08463 22.8004L8.08461 22.8004L7.90663 22.9759ZM22.0001 22.2692L21.7553 22.2182L21.7553 22.2182L22.0001 22.2692ZM23.2467 16.286L23.002 16.235V16.235L23.2467 16.286ZM23.9199 15.8463L23.9704 15.6015L23.9702 15.6014L23.9199 15.8463ZM24.362 16.5159L24.1173 16.4649L24.1173 16.4649L24.362 16.5159ZM23.1154 22.499L22.8706 22.448L22.8706 22.448L23.1154 22.499ZM17.7082 24.5654V24.3154H17.3325L17.4776 24.662L17.7082 24.5654ZM19.6558 29.2158L19.8864 29.1193L19.8864 29.1192L19.6558 29.2158ZM19.6039 29.7478L19.8116 29.887L19.8116 29.887L19.6039 29.7478ZM9.8712 29.7478L9.66349 29.887L9.66353 29.887L9.8712 29.7478ZM9.81932 29.2158L9.58872 29.1192L9.58871 29.1193L9.81932 29.2158ZM11.7669 24.5654L11.9975 24.662L12.1427 24.3154H11.7669V24.5654ZM7.09363 23.7693L6.91553 23.9447L6.91565 23.9448L7.09363 23.7693ZM7.01333 23.6838L7.1987 23.516L6.8886 23.1734L6.77149 23.6204L7.01333 23.6838ZM5.69234 28.7265L5.4505 28.6631L5.4505 28.6632L5.69234 28.7265ZM1.3583 29.3384L1.55572 29.185L1.55569 29.185L1.3583 29.3384ZM1.05618 27.8678L0.814344 27.8044L0.814342 27.8044L1.05618 27.8678ZM2.00729 24.237L2.24913 24.3004L2.24913 24.3004L2.00729 24.237ZM2.70195 23.8318L2.63911 24.0738L2.63924 24.0738L2.70195 23.8318ZM3.10942 24.5227L2.86759 24.4593L2.86758 24.4593L3.10942 24.5227ZM2.15832 28.1534L1.91648 28.0901L1.91647 28.0901L2.15832 28.1534ZM2.25946 28.6456L2.45689 28.4922L2.45682 28.4922L2.25946 28.6456ZM4.59015 28.4409L4.34831 28.3775L4.3483 28.3775L4.59015 28.4409ZM6.3345 21.7821L6.57634 21.8455L6.57639 21.8453L6.3345 21.7821ZM6.36274 21.702L6.59252 21.8005L6.60737 21.7659L6.61135 21.7284L6.36274 21.702ZM18.7233 18.0259L18.9681 18.0769L18.9681 18.0769L18.7233 18.0259ZM20.1511 11.174L20.3958 11.225L20.3968 11.2201L20.1511 11.174ZM20.153 11.1613L20.3975 11.2138L20.3978 11.2123L20.153 11.1613ZM19.7967 9.30217L20.0054 9.16443L20.0053 9.16442L19.7967 9.30217ZM18.223 8.23818L18.1725 8.48302L18.1725 8.48303L18.223 8.23818ZM16.3539 8.59252L16.2172 8.38321L16.2172 8.38321L16.3539 8.59252ZM15.284 10.1578L15.0392 10.1068L15.0389 10.1083L15.284 10.1578ZM15.1588 10.7779L14.9137 10.7285L14.7498 11.5407L15.3356 10.9547L15.1588 10.7779ZM15.7285 10.2081L15.9053 10.3848L15.9053 10.3848L15.7285 10.2081ZM16.5338 10.2058L16.7096 10.028L16.7096 10.028L16.5338 10.2058ZM16.5361 11.0068L16.3593 10.83L16.3593 10.8301L16.5361 11.0068ZM13.2763 14.2676L13.4531 14.4444L13.4531 14.4444L13.2763 14.2676ZM14.131 15.8345V16.0845H14.2349L14.3082 16.0108L14.131 15.8345ZM16.8469 13.1057L17.0241 13.2821L17.0241 13.2821L16.8469 13.1057ZM17.6522 13.1017L17.4768 13.2798L17.4769 13.2798L17.6522 13.1017ZM17.6563 13.9027L17.4791 13.7263L17.4791 13.7263L17.6563 13.9027ZM14.7733 16.7994L14.5961 16.623L14.596 16.6231L14.7733 16.7994ZM4.85229 17.8697L5.09413 17.933L5.09413 17.933L4.85229 17.8697ZM4.18012 20.4354L3.93828 20.372L3.93828 20.372L4.18012 20.4354ZM3.62942 20.8591V21.1091H3.62948L3.62942 20.8591ZM3.48546 20.8407L3.54832 20.5987L3.54815 20.5986L3.48546 20.8407ZM3.07799 20.1497L3.31982 20.2131L3.31982 20.2131L3.07799 20.1497ZM3.75015 17.584L3.99199 17.6474L3.992 17.6474L3.75015 17.584ZM6.48775 15.8345V16.0845H6.86294L6.71847 15.7383L6.48775 15.8345ZM12.6356 13.3019V13.5519H12.7392L12.8124 13.4787L12.6356 13.3019ZM13.7034 12.2338L13.8802 12.4106L13.9335 12.3572L13.9485 12.2833L13.7034 12.2338ZM14.1681 9.93139L13.9233 9.88038L13.923 9.88194L14.1681 9.93139ZM15.7288 7.64572L15.8655 7.85503L15.8655 7.85502L15.7288 7.64572ZM16.4115 7.29619L16.5017 7.52936L16.8742 7.3853L16.5818 7.11318L16.4115 7.29619ZM21.7795 3.35825L21.543 3.43922L21.8383 4.30199L22.0243 3.40922L21.7795 3.35825ZM21.8401 3.06729L21.5954 3.01631L21.5954 3.01632L21.8401 3.06729ZM22.9617 1.4263L23.0984 1.63561L23.0984 1.6356L22.9617 1.4263ZM16.4743 24.5653L16.7049 24.4688L16.6407 24.3153H16.4743V24.5653ZM18.276 28.8671V29.1171H18.6517L18.5065 28.7706L18.276 28.8671ZM13.0007 24.5653V24.3153H12.8344L12.7701 24.4688L13.0007 24.5653ZM11.1991 28.8671L10.9685 28.7706L10.8233 29.1171H11.1991V28.8671ZM20.8161 4.90437H20.5661V4.90438L20.8161 4.90437ZM20.6886 8.59405L20.484 8.7377L20.8156 9.21006L20.9333 8.64505L20.6886 8.59405ZM20.0328 7.88236L19.9288 7.65505L19.5662 7.82104L19.8736 8.07507L20.0328 7.88236ZM20.9713 7.23734L21.216 7.28834L21.3838 6.48303L20.7963 7.05878L20.9713 7.23734ZM26.7799 2.03253C26.3611 1.39821 25.7182 0.963653 24.9718 0.809879L24.8709 1.29959C25.4881 1.42676 26.0171 1.7846 26.3627 2.30802L26.7799 2.03253ZM27.1897 4.17036C27.3445 3.42696 27.1988 2.66689 26.7799 2.03251L26.3627 2.30803C26.7083 2.83139 26.8278 3.45561 26.7002 4.06841L27.1897 4.17036ZM25.4976 12.2915L27.1897 4.17038L26.7002 4.06839L25.0081 12.1895L25.4976 12.2915ZM24.5291 12.9251C24.9709 13.0162 25.4054 12.734 25.4976 12.2915L25.0081 12.1896C24.9726 12.3597 24.8041 12.4713 24.6301 12.4354L24.5291 12.9251ZM23.8928 11.9597C23.8005 12.4025 24.0869 12.8339 24.5292 12.9251L24.6301 12.4354C24.4563 12.3995 24.3469 12.2314 24.3823 12.0617L23.8928 11.9597ZM25.5849 3.83855L23.8928 11.9597L24.3823 12.0617L26.0744 3.94054L25.5849 3.83855ZM25.4108 2.92981C25.5893 3.20023 25.6509 3.5221 25.5849 3.8385L26.0744 3.94058C26.1676 3.49347 26.0798 3.03574 25.828 2.65434L25.4108 2.92981ZM24.64 2.40885C24.9593 2.47461 25.2322 2.65934 25.4108 2.92983L25.828 2.65431C25.5762 2.27298 25.1893 2.0115 24.7408 1.91913L24.64 2.40885ZM23.7236 2.58245C23.996 2.40463 24.3207 2.34306 24.64 2.40884L24.7408 1.91913C24.2926 1.82677 23.8334 1.91371 23.4503 2.16375L23.7236 2.58245ZM23.2002 3.34804C23.2661 3.03157 23.4514 2.76029 23.7237 2.58241L23.4502 2.1638C23.0672 2.41401 22.8038 2.79897 22.7107 3.24612L23.2002 3.34804ZM20.0834 18.3068L23.2002 3.34807L22.7107 3.24609L19.5939 18.2048L20.0834 18.3068ZM17.0505 20.7631C18.5111 20.7631 19.7865 19.7316 20.0834 18.3068L19.5939 18.2048C19.3457 19.3959 18.276 20.2631 17.0505 20.2631V20.7631ZM8.95449 20.7631H17.0505V20.2631H8.95449V20.7631ZM7.73698 21.9491C7.74954 21.2975 8.29535 20.7631 8.95449 20.7631V20.2631C8.02566 20.2631 7.25493 21.0128 7.23708 21.9394L7.73698 21.9491ZM8.08461 22.8004C7.85228 22.5649 7.73097 22.2629 7.73698 21.949L7.23708 21.9394C7.22839 22.3927 7.40505 22.8235 7.72865 23.1515L8.08461 22.8004ZM8.9947 23.1826C8.65684 23.1826 8.32424 23.0434 8.08463 22.8004L7.72863 23.1515C8.06159 23.4891 8.52217 23.6826 8.9947 23.6826V23.1826ZM20.563 23.1826H8.9947V23.6826H20.563V23.1826ZM21.7553 22.2182C21.6392 22.7755 21.1377 23.1826 20.563 23.1826V23.6826C21.3727 23.6826 22.08 23.1111 22.2448 22.3202L21.7553 22.2182ZM23.002 16.235L21.7553 22.2182L22.2448 22.3202L23.4915 16.337L23.002 16.235ZM23.9702 15.6014C23.529 15.5109 23.0943 15.7923 23.002 16.235L23.4915 16.337C23.5269 16.167 23.6954 16.0554 23.8697 16.0912L23.9702 15.6014ZM24.6068 16.5669C24.6991 16.124 24.4127 15.6926 23.9704 15.6015L23.8695 16.0912C24.0432 16.127 24.1527 16.2951 24.1173 16.4649L24.6068 16.5669ZM23.3601 22.55L24.6068 16.5669L24.1173 16.4649L22.8706 22.448L23.3601 22.55ZM20.563 24.8154C21.9101 24.8154 23.0863 23.8641 23.3601 22.55L22.8706 22.448C22.6455 23.5285 21.675 24.3154 20.563 24.3154V24.8154ZM17.7082 24.8154H20.563V24.3154H17.7082V24.8154ZM19.8864 29.1192L17.9388 24.4688L17.4776 24.662L19.4252 29.3124L19.8864 29.1192ZM19.8116 29.887C19.9639 29.6598 19.9921 29.3716 19.8864 29.1193L19.4252 29.3124C19.4659 29.4096 19.4552 29.5208 19.3963 29.6087L19.8116 29.887ZM19.1301 30.25C19.4035 30.25 19.6594 30.1141 19.8116 29.887L19.3963 29.6086C19.3373 29.6966 19.2376 29.75 19.1301 29.75V30.25ZM10.345 30.25H19.1301V29.75H10.345V30.25ZM9.66353 29.887C9.81576 30.1141 10.0717 30.25 10.345 30.25V29.75C10.2376 29.75 10.1378 29.6966 10.0789 29.6086L9.66353 29.887ZM9.58871 29.1193C9.48306 29.3716 9.51128 29.6597 9.66349 29.887L10.0789 29.6087C10.02 29.5207 10.0092 29.4096 10.0499 29.3124L9.58871 29.1193ZM11.5363 24.4688L9.58872 29.1192L10.0499 29.3124L11.9975 24.662L11.5363 24.4688ZM8.99475 24.8154H11.7669V24.3154H8.99475V24.8154ZM6.91565 23.9448C7.46161 24.4983 8.21862 24.8154 8.99475 24.8154V24.3154C8.35275 24.3154 7.72385 24.0522 7.27161 23.5937L6.91565 23.9448ZM6.82796 23.8515C6.85555 23.882 6.88468 23.9134 6.91553 23.9447L7.27173 23.5938C7.24745 23.5692 7.22339 23.5433 7.1987 23.516L6.82796 23.8515ZM5.93418 28.7898L7.25517 23.7471L6.77149 23.6204L5.4505 28.6631L5.93418 28.7898ZM4.03558 30.2499C4.92754 30.2499 5.70881 29.6504 5.93418 28.7898L5.4505 28.6632C5.28315 29.3021 4.70186 29.7499 4.03558 29.7499V30.2499ZM2.713 30.2499H4.03558V29.7499H2.713V30.2499ZM1.16088 29.4918C1.5351 29.9734 2.10189 30.2499 2.713 30.2499V29.7499C2.25563 29.7499 1.83482 29.5442 1.55572 29.185L1.16088 29.4918ZM0.814342 27.8044C0.659918 28.394 0.786543 29.0101 1.1609 29.4918L1.55569 29.185C1.27662 28.8259 1.18308 28.3699 1.29802 27.9311L0.814342 27.8044ZM1.76545 24.1737L0.814344 27.8044L1.29802 27.9311L2.24913 24.3004L1.76545 24.1737ZM2.7648 23.5898C2.3278 23.4763 1.87988 23.7368 1.76544 24.1737L2.24913 24.3004C2.29324 24.132 2.4672 24.0291 2.63911 24.0738L2.7648 23.5898ZM3.35126 24.5861C3.46594 24.1484 3.20174 23.703 2.76466 23.5898L2.63924 24.0738C2.81072 24.1182 2.91156 24.2915 2.86759 24.4593L3.35126 24.5861ZM2.40016 28.2168L3.35126 24.586L2.86758 24.4593L1.91648 28.0901L2.40016 28.2168ZM2.45682 28.4922C2.39514 28.4128 2.37483 28.3135 2.40017 28.2167L1.91647 28.0901C1.85171 28.3375 1.90498 28.597 2.0621 28.7991L2.45682 28.4922ZM2.71294 28.6171C2.61094 28.6171 2.51867 28.5718 2.45689 28.4922L2.06203 28.799C2.21893 29.001 2.45719 29.1171 2.71294 29.1171V28.6171ZM4.03558 28.6171H2.71294V29.1171H4.03558V28.6171ZM4.3483 28.3775C4.31161 28.5177 4.18356 28.6171 4.03558 28.6171V29.1171C4.40914 29.1171 4.73726 28.866 4.832 28.5042L4.3483 28.3775ZM6.09266 21.7188L4.34831 28.3775L4.83199 28.5042L6.57634 21.8455L6.09266 21.7188ZM6.13297 21.6035C6.11895 21.6362 6.10409 21.675 6.0926 21.719L6.57639 21.8453C6.57949 21.8334 6.58444 21.8193 6.59252 21.8005L6.13297 21.6035ZM8.95443 19.1303C7.4908 19.1303 6.26552 20.2501 6.11414 21.6756L6.61135 21.7284C6.73583 20.5562 7.74751 19.6303 8.95443 19.6303V19.1303ZM17.0504 19.1303H8.95443V19.6303H17.0504V19.1303ZM18.4786 17.9749C18.3394 18.6428 17.7387 19.1303 17.0504 19.1303V19.6303C17.9737 19.6303 18.7802 18.9785 18.9681 18.0769L18.4786 17.9749ZM19.9063 11.123L18.4786 17.9749L18.9681 18.0769L20.3958 11.225L19.9063 11.123ZM19.9086 11.1088C19.9072 11.1155 19.9062 11.1212 19.9055 11.1254C19.9049 11.1294 19.9044 11.1328 19.9043 11.1342C19.904 11.1364 19.9041 11.1355 19.9042 11.135C19.9043 11.134 19.9047 11.1314 19.9053 11.1279L20.3968 11.2201C20.3978 11.2144 20.3985 11.2097 20.399 11.2066C20.3992 11.2051 20.3994 11.2037 20.3995 11.2028C20.3996 11.2024 20.3996 11.202 20.3997 11.2017C20.3997 11.2014 20.3997 11.2012 20.3998 11.2011C20.3999 11.2003 20.3997 11.2016 20.3994 11.2036C20.3991 11.2056 20.3985 11.2092 20.3975 11.2137L19.9086 11.1088ZM19.5881 9.43991C19.916 9.93655 20.0294 10.5288 19.9083 11.1103L20.3978 11.2123C20.5461 10.5002 20.4065 9.77206 20.0054 9.16443L19.5881 9.43991ZM18.1725 8.48303C18.7583 8.60374 19.2602 8.94329 19.5881 9.43992L20.0053 9.16442C19.6042 8.5569 18.9883 8.14064 18.2734 7.99332L18.1725 8.48303ZM16.4906 8.80184C16.9904 8.47541 17.5871 8.36222 18.1725 8.48302L18.2735 7.99334C17.5589 7.84588 16.8277 7.98452 16.2172 8.38321L16.4906 8.80184ZM15.5287 10.2088C15.6498 9.62731 15.9908 9.12828 16.4906 8.80183L16.2172 8.38321C15.6067 8.78199 15.1876 9.3947 15.0392 10.1068L15.5287 10.2088ZM15.4039 10.8274L15.529 10.2072L15.0389 10.1083L14.9137 10.7285L15.4039 10.8274ZM15.5516 10.0313L14.982 10.6012L15.3356 10.9547L15.9053 10.3848L15.5516 10.0313ZM16.7096 10.028C16.3888 9.71087 15.8707 9.71206 15.5516 10.0314L15.9053 10.3848C16.0297 10.2603 16.2327 10.2596 16.3581 10.3836L16.7096 10.028ZM16.7129 11.1836C17.0328 10.8637 17.0311 10.3461 16.7096 10.028L16.358 10.3835C16.4826 10.5067 16.4831 10.7063 16.3593 10.83L16.7129 11.1836ZM13.4531 14.4444L16.7129 11.1836L16.3593 10.8301L13.0995 14.0909L13.4531 14.4444ZM12.8725 14.6847C13.0902 14.6847 13.2992 14.5983 13.4531 14.4444L13.0995 14.0908C13.0396 14.1507 12.9579 14.1847 12.8725 14.1847V14.6847ZM8.19046 14.6847H12.8725V14.1847H8.19046V14.6847ZM7.73675 15.1346C7.73675 14.888 7.93926 14.6847 8.19046 14.6847V14.1847C7.66568 14.1847 7.23675 14.6093 7.23675 15.1346H7.73675ZM8.19046 15.5845C7.93926 15.5845 7.73675 15.3811 7.73675 15.1346H7.23675C7.23675 15.6598 7.66568 16.0845 8.19046 16.0845V15.5845ZM14.131 15.5845H8.19046V16.0845H14.131V15.5845ZM16.6697 12.9293L13.9538 15.6581L14.3082 16.0108L17.0241 13.2821L16.6697 12.9293ZM17.8277 12.9235C17.5061 12.6069 16.988 12.6095 16.6697 12.9293L17.0241 13.2821C17.1483 13.1572 17.3513 13.1562 17.4768 13.2798L17.8277 12.9235ZM17.8335 14.0791C18.1526 13.7585 18.1499 13.2408 17.8276 12.9235L17.4769 13.2798C17.6016 13.4026 17.6026 13.6022 17.4791 13.7263L17.8335 14.0791ZM14.9505 16.9758L17.8335 14.079L17.4791 13.7263L14.5961 16.623L14.9505 16.9758ZM14.3686 17.2173C14.5869 17.2173 14.7966 17.1306 14.9506 16.9757L14.596 16.6231C14.5363 16.6832 14.4544 16.7173 14.3686 16.7173V17.2173ZM6.02612 17.2173H14.3686V16.7173H6.02612V17.2173ZM5.09413 17.933C5.2043 17.5125 5.58708 17.2173 6.02612 17.2173V16.7173C5.36137 16.7173 4.77864 17.1643 4.61045 17.8063L5.09413 17.933ZM4.42196 20.4987L5.09413 17.933L4.61045 17.8063L3.93828 20.372L4.42196 20.4987ZM3.62948 21.1091C3.99231 21.109 4.32548 20.8671 4.42196 20.4987L3.93828 20.372C3.90126 20.5134 3.77235 20.6091 3.62937 20.6091L3.62948 21.1091ZM3.42259 21.0826C3.49154 21.1005 3.56092 21.1091 3.62942 21.1091V20.6091C3.60282 20.6091 3.57572 20.6058 3.54832 20.5987L3.42259 21.0826ZM2.83615 20.0864C2.72147 20.524 2.98559 20.9694 3.42276 21.0827L3.54815 20.5986C3.37665 20.5542 3.27584 20.381 3.31982 20.2131L2.83615 20.0864ZM3.50832 17.5207L2.83615 20.0864L3.31982 20.2131L3.99199 17.6474L3.50832 17.5207ZM6.02612 15.5845C4.84309 15.5845 3.80715 16.3798 3.50831 17.5207L3.992 17.6474C4.23281 16.728 5.06878 16.0845 6.02612 16.0845V15.5845ZM6.48775 15.5845H6.02612V16.0845H6.48775V15.5845ZM6.09777 15.1346C6.09777 15.4163 6.15459 15.6853 6.25702 15.9308L6.71847 15.7383C6.64083 15.5522 6.59777 15.3485 6.59777 15.1346H6.09777ZM8.19046 13.0519C7.03759 13.0519 6.09777 13.9848 6.09777 15.1346H6.59777C6.59777 14.2634 7.31118 13.5519 8.19046 13.5519V13.0519ZM12.6356 13.0519H8.19046V13.5519H12.6356V13.0519ZM13.5266 12.0571L12.4588 13.1251L12.8124 13.4787L13.8802 12.4106L13.5266 12.0571ZM13.923 9.88194L13.4583 12.1844L13.9485 12.2833L14.4131 9.98085L13.923 9.88194ZM15.5921 7.43641C14.7271 8.00134 14.1342 8.86876 13.9233 9.88038L14.4128 9.9824C14.5965 9.10109 15.1115 8.34747 15.8655 7.85503L15.5921 7.43641ZM16.3213 7.06301C16.0689 7.16061 15.8243 7.28469 15.5921 7.43642L15.8655 7.85502C16.0677 7.72298 16.2809 7.61472 16.5017 7.52936L16.3213 7.06301ZM15.1156 4.90443C15.1156 5.92013 15.55 6.83596 16.2412 7.4792L16.5818 7.11318C15.9871 6.55972 15.6156 5.7744 15.6156 4.90443H15.1156ZM15.1156 4.4116V4.90443H15.6156V4.4116H15.1156ZM18.6604 0.884656C16.7068 0.884656 15.1156 2.46536 15.1156 4.4116H15.6156C15.6156 2.74405 16.9804 1.38466 18.6604 1.38466V0.884656ZM22.016 3.27728C21.5402 1.88738 20.2164 0.884656 18.6604 0.884656V1.38466C19.9969 1.38466 21.1345 2.24598 21.543 3.43922L22.016 3.27728ZM21.5954 3.01632L21.5348 3.30728L22.0243 3.40922L22.0849 3.11826L21.5954 3.01632ZM22.825 1.21698C22.1876 1.63327 21.7502 2.2729 21.5954 3.01631L22.0849 3.11826C22.2125 2.50548 22.5718 1.97955 23.0984 1.63561L22.825 1.21698ZM24.9718 0.809879C24.2258 0.656181 23.4623 0.800649 22.825 1.217L23.0984 1.6356C23.625 1.2916 24.2539 1.17247 24.8709 1.29959L24.9718 0.809879ZM16.2437 24.6619L18.0454 28.9637L18.5065 28.7706L16.7049 24.4688L16.2437 24.6619ZM13.0007 24.8153H16.4743V24.3153H13.0007V24.8153ZM11.4297 28.9637L13.2313 24.6619L12.7701 24.4688L10.9685 28.7706L11.4297 28.9637ZM18.276 28.6171H11.1991V29.1171H18.276V28.6171ZM16.2545 4.90437C16.2545 6.22597 17.3348 7.2985 18.6603 7.2985V6.7985C17.6083 6.7985 16.7545 5.94728 16.7545 4.90437H16.2545ZM16.2545 4.41154V4.90437H16.7545V4.41154H16.2545ZM18.6603 2.01735C17.3348 2.01735 16.2545 3.08988 16.2545 4.41154H16.7545C16.7545 3.36857 17.6084 2.51735 18.6603 2.51735V2.01735ZM21.0661 4.41154C21.0661 3.08988 19.9859 2.01735 18.6603 2.01735V2.51735C19.7123 2.51735 20.5661 3.36857 20.5661 4.41154H21.0661ZM21.0661 4.90437V4.41154H20.5661V4.90437H21.0661ZM18.6603 7.2985C19.9858 7.2985 21.0662 6.22598 21.0661 4.90436L20.5661 4.90438C20.5662 5.94728 19.7123 6.7985 18.6603 6.7985V7.2985ZM20.8932 8.4504C20.6922 8.16413 20.457 7.90856 20.1921 7.68965L19.8736 8.07507C20.1031 8.26477 20.3081 8.48713 20.484 8.7377L20.8932 8.4504ZM20.7265 7.18634L20.4439 8.54305L20.9333 8.64505L21.216 7.28834L20.7265 7.18634ZM20.1369 8.10967C20.5133 7.93735 20.8545 7.70179 21.1463 7.4159L20.7963 7.05878C20.5457 7.3044 20.2524 7.5069 19.9288 7.65505L20.1369 8.10967Z" fill="#3D7EDB"/>
<path d="M2.8535 26.1465C2.76055 26.0536 2.63155 26 2.5 26C2.3685 26 2.2395 26.0535 2.14655 26.1465C2.05355 26.24 2 26.3685 2 26.5C2 26.632 2.0535 26.7605 2.14655 26.8535C2.2395 26.947 2.3685 27 2.5 27C2.63155 27 2.76 26.947 2.8535 26.8535C2.9465 26.761 3 26.632 3 26.5C3 26.3685 2.94655 26.2395 2.8535 26.1465Z" fill="#3D7EDB"/>
</svg>
