<svg width="16" height="22" viewBox="0 0 16 22" fill="none" xmlns="http://www.w3.org/2000/svg">
<path fill-rule="evenodd" clip-rule="evenodd" d="M12.4603 2.25C12.4603 3.35 11.5603 4.25 10.4603 4.25C9.36025 4.25 8.46025 3.35 8.46025 2.25C8.46025 1.15 9.36025 0.25 10.4603 0.25C11.5603 0.25 12.4603 1.15 12.4603 2.25ZM7.86025 13.75L7.29026 16.25C7.05026 17.31 6.01025 17.98 4.95025 17.77L0.840255 16.95C0.300255 16.84 -0.049745 16.31 0.060255 15.77V15.73C0.170255 15.19 0.700255 14.84 1.24025 14.95L5.16025 15.75L6.76025 7.65L4.96026 8.35V10.75C4.96026 11.3 4.51025 11.75 3.96025 11.75C3.41025 11.75 2.96025 11.3 2.96025 10.75V8.38C2.96025 7.57 3.44025 6.85 4.18025 6.53L8.16026 4.85C8.31026 4.85 8.43526 4.825 8.56026 4.8C8.68526 4.775 8.81026 4.75 8.96025 4.75C9.66025 4.75 10.2603 5.15 10.6603 5.75L11.6603 7.35C12.3303 8.53 13.5903 9.43 15.1103 9.68C15.6003 9.76 15.9603 10.17 15.9603 10.66C15.9603 11.27 15.4203 11.75 14.8203 11.66C13.0803 11.38 11.5303 10.49 10.4603 9.25L9.86026 12.25L11.3403 13.66C11.7403 14.04 11.9603 14.56 11.9603 15.11V20.75C11.9603 21.3 11.5103 21.75 10.9603 21.75C10.4103 21.75 9.96025 21.3 9.96025 20.75V15.75L7.86025 13.75Z" fill="#979797"/>
</svg>
