<svg width="23" height="90" viewBox="0 0 23 90" fill="none" xmlns="http://www.w3.org/2000/svg">
<path d="M11.2073 0C7.99464 0 4.93741 1.35899 2.80969 3.7322C0.683419 6.10256 -0.304192 9.26399 0.0821382 12.311L5.29469 59.2317C5.62438 62.2029 8.17038 64.4531 11.2073 64.4531C14.2442 64.4531 16.7902 62.2029 17.1199 59.2289L22.3194 12.4011C22.7188 9.26399 21.7311 6.10256 19.6034 3.7322C17.4772 1.35899 14.4199 0 11.2073 0Z" fill="#CC003A"/>
<path d="M11.2061 74.3689C6.57412 74.3689 2.80371 77.7061 2.80371 81.8058C2.80371 85.9055 6.57412 89.2427 11.2061 89.2427C15.8381 89.2427 19.6085 85.9055 19.6085 81.8058C19.6085 77.7061 15.8381 74.3689 11.2061 74.3689Z" fill="#CC003A"/>
</svg>
