<?xml version="1.0" encoding="UTF-8"?>
<svg width="20px" height="20px" viewBox="0 0 20 20" version="1.1" xmlns="http://www.w3.org/2000/svg" xmlns:xlink="http://www.w3.org/1999/xlink">
    <title>Combined Shape</title>
    <g id="WorkBoard" stroke="none" stroke-width="1" fill="none" fill-rule="evenodd">
        <g id="Dashboard---heatmap" transform="translate(-860.000000, -114.000000)" fill="#FFFFFF" fill-rule="nonzero">
            <g id="Group-12-Copy" transform="translate(852.000000, 106.000000)">
                <path d="M16,8 C20.418278,8 24,11.581722 24,16 C24,17.796354 23.4079346,19.4544238 22.4082991,20.789714 L27.663953,25.9833804 C28.1120157,26.44471 28.1120157,27.1926732 27.663953,27.6540028 C27.2158903,28.1153324 26.4894371,28.1153324 26.0413744,27.6540028 L20.756666,22.4329077 C19.4271109,23.4176441 17.7815637,24 16,24 C11.581722,24 8,20.418278 8,16 C8,11.581722 11.581722,8 16,8 Z M16,10.4615385 C12.9411922,10.4615385 10.4615385,12.9411922 10.4615385,16 C10.4615385,19.0588078 12.9411922,21.5384615 16,21.5384615 C19.0588078,21.5384615 21.5384615,19.0588078 21.5384615,16 C21.5384615,12.9411922 19.0588078,10.4615385 16,10.4615385 Z" id="Combined-Shape"></path>
            </g>
        </g>
    </g>
</svg>