<svg width="42" height="45" viewBox="0 0 42 45" fill="none" xmlns="http://www.w3.org/2000/svg">
<path d="M19 2C8.50808 2 0.00211346 10.5401 0 21.0762C0.00371274 30.0071 6.17314 37.7417 14.8512 39.6951L17.4525 44.1355C17.7666 44.6712 18.3395 45 18.9585 45C19.5776 45 20.1504 44.6712 20.4646 44.1355L23.0518 39.7168C31.7764 37.801 37.9964 30.0445 38 21.0762C37.9979 10.5401 29.4919 2 19 2Z" fill="#F68221"/>
<path d="M18.9999 3.9502C9.4603 3.9509 1.72729 11.7171 1.72729 21.2969C1.72907 29.4163 7.33864 36.4484 15.2287 38.222L17.5927 42.2589C17.8776 42.7466 18.3986 43.0462 18.9616 43.0462C19.5247 43.0462 20.0456 42.7466 20.3305 42.2589L22.683 38.2425C30.6156 36.5029 36.2712 29.4506 36.2725 21.2969C36.2729 16.6964 34.4532 12.2842 31.2139 9.031C27.9747 5.77783 23.5811 3.9502 18.9999 3.9502Z" fill="white"/>
<mask id="mask0" mask-type="alpha" maskUnits="userSpaceOnUse" x="19" y="11" width="11" height="16">
<path fill-rule="evenodd" clip-rule="evenodd" d="M19.5872 11.9932H29.5781V26.6572H19.5872V11.9932Z" fill="white"/>
</mask>
<g mask="url(#mask0)">
<path fill-rule="evenodd" clip-rule="evenodd" d="M19.5872 22.6108C19.6447 22.2096 19.6927 21.8651 19.7438 21.5212C20.1783 18.5943 20.6134 15.6674 21.0484 12.7406C21.0575 12.6795 21.069 12.6187 21.0788 12.5576C21.1565 12.0804 21.3541 11.9392 21.8289 12.0106C24.2378 12.3723 26.6471 12.7324 29.0563 13.0923C29.4735 13.1545 29.6276 13.3687 29.5646 13.7934C29.1742 16.4273 28.7849 19.0614 28.3961 21.6954C28.1765 23.1822 27.9591 24.669 27.7401 26.1559C27.6855 26.5279 27.4696 26.7021 27.0968 26.6474C25.4855 26.4109 23.8753 26.1675 22.2647 25.9258C22.2252 25.92 22.1867 25.9061 22.136 25.8644C23.2986 25.2992 24.4887 24.7997 25.688 24.2789C25.4186 23.4677 25.1478 22.6696 24.4782 22.0932C24.0013 21.6827 23.4471 21.5135 22.8339 21.6676C22.1772 21.8326 21.5308 22.039 20.8805 22.2289C20.4673 22.3494 20.055 22.4725 19.5872 22.6108Z" fill="#D2D2D2"/>
</g>
<mask id="mask1" mask-type="alpha" maskUnits="userSpaceOnUse" x="8" y="15" width="17" height="15">
<path fill-rule="evenodd" clip-rule="evenodd" d="M8.35254 15.6055H24.7623V29.0707H8.35254V15.6055Z" fill="white"/>
</mask>
<g mask="url(#mask1)">
<path fill-rule="evenodd" clip-rule="evenodd" d="M19.8791 15.6078C19.7935 16.1922 19.7144 16.7489 19.6292 17.3047C19.6003 17.4923 19.6128 17.7318 19.5024 17.8481C19.3986 17.9573 19.158 17.9368 18.977 17.9703C18.6009 18.04 18.2878 18.2293 18.0088 18.4823C16.8639 19.5207 16.636 21.2188 17.4833 22.5138C17.9424 23.2153 18.5887 23.5624 19.4326 23.3721C20.0927 23.2234 20.7411 23.0224 21.3932 22.8387C21.8938 22.6975 22.3904 22.5417 22.8916 22.4026C23.4007 22.2611 23.8212 22.424 24.1662 22.8095C24.4389 23.1146 24.6221 23.4702 24.7624 23.8656C24.6847 23.9019 24.6243 23.9311 24.5631 23.9584C23.299 24.5193 22.0169 25.043 20.7757 25.6512C19.5309 26.2613 18.326 26.9532 17.106 27.6139C16.6485 27.8618 16.2032 28.1327 15.7431 28.3754C14.7737 28.8864 13.7171 29.0356 12.6433 29.0659C11.9739 29.085 11.3028 29.0417 10.6323 29.0315C10.4763 29.029 10.3908 28.9691 10.3269 28.8194C9.93003 27.8915 9.51974 26.9695 9.11851 26.0435C8.87305 25.4769 8.63563 24.9068 8.39502 24.3383C8.37946 24.3014 8.3681 24.2627 8.35254 24.2182C8.38775 24.195 8.41314 24.1726 8.44274 24.1594C10.0093 23.4618 11.292 22.3882 12.3718 21.0776C13.0816 20.2163 13.7101 19.288 14.3813 18.3944C14.7885 17.8523 15.1848 17.299 15.6286 16.788C15.9952 16.366 16.4496 16.035 17.016 15.9169C17.2833 15.8612 17.5566 15.8313 17.8284 15.8007C18.4337 15.7328 19.0396 15.6711 19.6454 15.6087C19.7113 15.602 19.7783 15.6078 19.8791 15.6078Z" fill="#D2D2D2"/>
</g>
<path fill-rule="evenodd" clip-rule="evenodd" d="M17.7295 21.291C17.7295 20.9975 17.7262 20.7412 17.7332 20.4851C17.7343 20.4482 17.7778 20.3909 17.813 20.3799C18.2735 20.2364 18.7361 20.0994 19.2339 19.9502C19.189 20.261 19.155 20.5308 19.1065 20.7981C19.0983 20.8437 19.0355 20.8985 18.9867 20.9143C18.6742 21.0148 18.3588 21.1059 18.044 21.1997C17.9592 21.2249 17.874 21.2491 17.7295 21.291Z" fill="#D2D2D2"/>
<path fill-rule="evenodd" clip-rule="evenodd" d="M19.4214 18.668C19.3955 18.8607 19.376 19.0363 19.3453 19.2099C19.3384 19.2496 19.2993 19.3039 19.2637 19.3151C18.8552 19.4436 18.4446 19.5649 18.0149 19.6942C18.2134 19.1265 18.8281 18.6773 19.4214 18.668Z" fill="#D2D2D2"/>
<path fill-rule="evenodd" clip-rule="evenodd" d="M18.9983 21.5479C18.9509 21.8652 18.9176 22.1344 18.8681 22.4007C18.8432 22.5346 18.6152 22.5915 18.4769 22.5104C18.2725 22.3902 18.0702 22.129 17.9795 21.8529C18.3026 21.7562 18.6253 21.6596 18.9983 21.5479Z" fill="#D2D2D2"/>
<circle cx="33.5" cy="8.5" r="8" fill="#BB133E" stroke="white"/>
</svg>
