<svg width="42" height="43" viewBox="0 0 42 43" fill="none" xmlns="http://www.w3.org/2000/svg">
<g clip-path="url(#clip0_6498_16849)">
<path d="M18.9735 0.336182C16.4819 0.336182 14.0146 0.825763 11.7126 1.77696C9.41068 2.72816 7.31905 4.12236 5.5572 5.87995C1.99899 9.42962 6.66194e-09 14.2439 6.66193e-09 19.2638C-0.000114232 23.566 1.46901 27.74 4.16527 31.0978C6.86153 34.4555 10.6241 36.7968 14.8328 37.7358L17.428 42.1476C17.6647 42.5441 18.0491 42.8309 18.4972 42.9454C18.9452 43.0599 19.4206 42.9927 19.8191 42.7585C20.0732 42.6117 20.2844 42.4011 20.4314 42.1476L23.017 37.7551C27.2469 36.8347 31.0341 34.4988 33.7499 31.1353C36.4656 27.7717 37.9467 23.5828 37.947 19.2638C37.947 14.2439 35.948 9.42962 32.3897 5.87995C28.8315 2.33034 24.0056 0.336182 18.9735 0.336182Z" fill="#F68221"/>
<path d="M18.9589 2.12972C14.3727 2.12972 9.97435 3.95008 6.73142 7.19033C3.48848 10.4306 1.66663 14.8253 1.66663 19.4077C1.669 23.3321 3.00835 27.1387 5.46427 30.2012C7.92019 33.2636 11.3464 35.3996 15.179 36.2574L17.5463 40.2776C17.6839 40.5206 17.8835 40.7227 18.1249 40.8633C18.3661 41.0039 18.6406 41.0781 18.92 41.0781C19.1993 41.0781 19.4737 41.0039 19.7151 40.8633C19.9563 40.7227 20.156 40.5206 20.2936 40.2776L22.6415 36.2769C26.5016 35.445 29.9601 33.3175 32.4417 30.2483C34.9232 27.1791 36.2779 23.3533 36.2804 19.4077C36.2804 17.1363 35.8321 14.8872 34.9614 12.789C34.0905 10.6908 32.8142 8.78474 31.2053 7.18C29.5965 5.5752 27.6867 4.30313 25.5854 3.43655C23.484 2.56997 21.2322 2.12588 18.9589 2.12972Z" fill="white"/>
<path d="M14.3703 22.1306C14.7443 22.1372 15.5975 22.4062 16.4233 22.6686C17.3275 22.9549 18.0508 23.1708 18.6036 23.2695C18.9555 23.3313 19.2389 23.3467 19.4511 23.3006C19.4542 23.3001 19.4584 23.3001 19.462 23.2986C20.1925 23.1232 20.7165 22.6768 21.0652 21.9296C21.5408 20.914 21.5593 20.0978 21.1245 18.9871C21.0931 18.9042 21.039 18.8019 20.9756 18.692C20.9055 18.5698 20.8195 18.4373 20.7144 18.2998C20.3574 17.8329 19.8138 17.3409 19.1595 17.2304C18.9432 17.1941 18.7324 17.1599 18.5238 17.1271L18.142 14.585C19.3811 14.7011 20.566 14.8238 21.2368 14.9277C22.9261 15.189 24.0384 17.3496 25.0178 18.671C25.7767 19.6964 26.4944 20.6634 27.2007 21.384C29.0523 23.2735 30.6082 23.9849 31.16 24.1951L28.8148 29.5002L28.7674 29.5043C27.803 29.5882 25.379 29.7227 23.6763 29.1545C22.8787 28.8876 22.0915 28.4232 21.1801 27.8853C20.4357 27.445 19.5933 26.9464 18.5877 26.4641C18.5676 26.4549 18.5485 26.4457 18.5289 26.4365C18.0745 26.2186 17.6212 26.0064 17.1765 25.8024C15.1719 24.8798 13.3729 24.1265 12.6366 23.8243C12.9566 22.958 13.5336 22.1158 14.3703 22.1311V22.1306Z" fill="#C7C8C9"/>
<path d="M7.67941 11.8174L16.1194 10.5675C16.4305 10.522 16.719 10.7348 16.7654 11.0426L18.4723 22.3975C17.8988 22.2666 17.1807 22.0401 16.6763 21.88C15.5619 21.5261 14.8509 21.3103 14.3831 21.3026C14.2719 21.3006 14.1596 21.3083 14.0493 21.3246C13.1091 21.4632 12.3291 22.2502 11.854 23.5384L11.58 24.2835L12.3172 24.5873C12.8005 24.7862 14.0967 25.3268 15.6619 26.0264L9.94216 26.8737C9.63098 26.9192 9.34195 26.7075 9.29507 26.3992L7.2008 12.4592C7.15494 12.1508 7.36978 11.8629 7.67941 11.8174Z" fill="#C7C8C9"/>
<circle cx="34" cy="9" r="7.25" fill="#FF4B55" stroke="white" stroke-width="1.5"/>
<line x1="30" y1="9.04999" x2="36.4" y2="9.04999" stroke="white" stroke-width="1.5"/>
<path d="M34 12.2L37.2 8.99999L34 5.79999" stroke="white" stroke-width="1.5"/>
</g>
<defs>
<clipPath id="clip0_6498_16849">
<rect width="42" height="43" fill="white"/>
</clipPath>
</defs>
</svg>
