<svg width="38" height="43" viewBox="0 0 38 43" fill="none" xmlns="http://www.w3.org/2000/svg">
<path d="M19 0V0C8.50808 -2.13761e-07 0.00211346 8.54009 0 19.0762V19.0762C0.00371274 28.0071 6.17314 35.7417 14.8512 37.6951L17.4525 42.1355C17.7666 42.6712 18.3395 43 18.9585 43C19.5776 43 20.1504 42.6712 20.4646 42.1355L23.0518 37.7168C31.7764 35.801 37.9964 28.0445 38 19.0762V19.0762C37.9979 8.54009 29.4919 -2.13761e-07 19 0Z" fill="#F68221"/>
<path d="M18.9999 1.9502V1.9502C9.4603 1.9509 1.72729 9.71706 1.72729 19.2969V19.2969C1.72907 27.4163 7.33864 34.4484 15.2287 36.222L17.5927 40.2589C17.8776 40.7466 18.3986 41.0462 18.9616 41.0462C19.5247 41.0462 20.0456 40.7466 20.3305 40.2589L22.683 36.2425C30.6156 34.5029 36.2712 27.4506 36.2725 19.2969V19.2969C36.2729 14.6964 34.4532 10.2842 31.2139 7.031C27.9747 3.77783 23.5811 1.9502 18.9999 1.9502Z" fill="white"/>
<mask id="mask0" mask-type="alpha" maskUnits="userSpaceOnUse" x="19" y="9" width="11" height="16">
<path fill-rule="evenodd" clip-rule="evenodd" d="M19.587 9.99316H29.578V24.6572H19.587V9.99316Z" fill="white"/>
</mask>
<g mask="url(#mask0)">
<path fill-rule="evenodd" clip-rule="evenodd" d="M19.587 20.6108C19.6446 20.2096 19.6925 19.8651 19.7437 19.5212C20.1782 16.5943 20.6133 13.6674 21.0483 10.7406C21.0574 10.6795 21.0688 10.6187 21.0787 10.5576C21.1564 10.0804 21.354 9.93923 21.8288 10.0106C24.2377 10.3723 26.647 10.7324 29.0562 11.0923C29.4733 11.1545 29.6275 11.3687 29.5644 11.7934C29.174 14.4273 28.7848 17.0614 28.396 19.6954C28.1764 21.1822 27.959 22.669 27.74 24.1559C27.6854 24.5279 27.4695 24.7021 27.0967 24.6474C25.4854 24.4109 23.8751 24.1675 22.2646 23.9258C22.2251 23.92 22.1865 23.9061 22.1359 23.8644C23.2985 23.2992 24.4885 22.7997 25.6879 22.2789C25.4184 21.4677 25.1477 20.6696 24.4781 20.0932C24.0012 19.6827 23.447 19.5135 22.8337 19.6676C22.1771 19.8326 21.5307 20.039 20.8804 20.2289C20.4672 20.3494 20.0549 20.4725 19.587 20.6108" fill="#D2D2D2"/>
</g>
<mask id="mask1" mask-type="alpha" maskUnits="userSpaceOnUse" x="8" y="13" width="17" height="15">
<path fill-rule="evenodd" clip-rule="evenodd" d="M8.35254 13.6055H24.7623V27.0707H8.35254V13.6055Z" fill="white"/>
</mask>
<g mask="url(#mask1)">
<path fill-rule="evenodd" clip-rule="evenodd" d="M19.879 13.6078C19.7934 14.1922 19.7143 14.7489 19.6291 15.3047C19.6002 15.4923 19.6127 15.7318 19.5022 15.8481C19.3985 15.9573 19.1579 15.9368 18.9769 15.9703C18.6008 16.04 18.2877 16.2293 18.0087 16.4823C16.8638 17.5207 16.6358 19.2188 17.4832 20.5138C17.9422 21.2153 18.5885 21.5624 19.4325 21.3721C20.0925 21.2234 20.741 21.0224 21.3931 20.8387C21.8937 20.6975 22.3903 20.5417 22.8914 20.4026C23.4006 20.2611 23.8211 20.424 24.1661 20.8095C24.4388 21.1146 24.622 21.4702 24.7622 21.8656C24.6845 21.9019 24.6242 21.9311 24.563 21.9584C23.2989 22.5193 22.0168 23.043 20.7756 23.6512C19.5308 24.2613 18.3259 24.9532 17.1058 25.6139C16.6483 25.8618 16.2031 26.1327 15.7429 26.3754C14.7736 26.8864 13.717 27.0356 12.6432 27.0659C11.9738 27.085 11.3026 27.0417 10.6322 27.0315C10.4762 27.029 10.3907 26.9691 10.3268 26.8194C9.9299 25.8915 9.51962 24.9695 9.11839 24.0435C8.87293 23.4769 8.63551 22.9068 8.3949 22.3383C8.37934 22.3014 8.36798 22.2627 8.35242 22.2182C8.38763 22.195 8.41302 22.1726 8.44261 22.1594C10.0091 21.4618 11.2919 20.3882 12.3717 19.0776C13.0814 18.2163 13.71 17.288 14.3812 16.3944C14.7884 15.8523 15.1847 15.299 15.6285 14.788C15.995 14.366 16.4495 14.035 17.0159 13.9169C17.2832 13.8612 17.5564 13.8313 17.8283 13.8007C18.4335 13.7328 19.0395 13.6711 19.6453 13.6087C19.7112 13.602 19.7782 13.6078 19.879 13.6078" fill="#D2D2D2"/>
</g>
<path fill-rule="evenodd" clip-rule="evenodd" d="M17.7295 19.291C17.7295 18.9975 17.7262 18.7412 17.7332 18.4851C17.7343 18.4482 17.7778 18.3909 17.813 18.3799C18.2735 18.2364 18.7361 18.0994 19.2339 17.9502C19.189 18.261 19.155 18.5308 19.1065 18.7981C19.0983 18.8437 19.0355 18.8985 18.9867 18.9143C18.6742 19.0148 18.3588 19.1059 18.044 19.1997C17.9592 19.2249 17.874 19.2491 17.7295 19.291" fill="#D2D2D2"/>
<path fill-rule="evenodd" clip-rule="evenodd" d="M19.4214 16.668C19.3955 16.8607 19.376 17.0363 19.3453 17.2099C19.3384 17.2496 19.2993 17.3039 19.2637 17.3151C18.8552 17.4436 18.4446 17.5649 18.0149 17.6942C18.2134 17.1265 18.8281 16.6773 19.4214 16.668" fill="#D2D2D2"/>
<path fill-rule="evenodd" clip-rule="evenodd" d="M18.9983 19.5479C18.9509 19.8652 18.9176 20.1344 18.8681 20.4007C18.8432 20.5346 18.6152 20.5915 18.4769 20.5104C18.2725 20.3902 18.0702 20.129 17.9795 19.8529C18.3026 19.7562 18.6253 19.6596 18.9983 19.5479" fill="#D2D2D2"/>
</svg>
