<svg width="45" height="47" viewBox="0 0 45 47" fill="none" xmlns="http://www.w3.org/2000/svg">
<path d="M19 4C13.9609 4 9.12816 6.01025 5.56497 9.58853C2.00178 13.1668 0 18.02 0 23.0804C0.00244634 27.4166 1.47483 31.6228 4.17482 35.0067C6.87482 38.3907 10.6415 40.7507 14.8551 41.6984L17.4518 46.1364C17.5681 46.3349 17.7222 46.5085 17.9053 46.6471C18.0885 46.7858 18.2971 46.8868 18.5192 46.9444C18.7413 47.002 18.9725 47.015 19.1996 46.9827C19.4267 46.9505 19.6452 46.8735 19.8427 46.7563C20.0988 46.6073 20.3117 46.3936 20.46 46.1364L23.0469 41.7181C27.281 40.7874 31.0716 38.4324 33.7909 35.043C36.5103 31.6536 37.9953 27.4331 38 23.0804C38 18.02 35.9982 13.1668 32.435 9.58853C28.8718 6.01025 24.0391 4 19 4Z" fill="#C5C6C7"/>
<path d="M19 5.95801C14.4209 5.95801 10.0293 7.78476 6.79136 11.0364C3.55343 14.288 1.73438 18.6982 1.73438 23.2967C1.73131 27.2383 3.06645 31.0633 5.51948 34.1403C7.97251 37.2173 11.3968 39.3626 15.2274 40.2221L17.5889 44.2665C17.805 44.6287 18.1546 44.8907 18.5619 44.9957C18.9691 45.1007 19.4012 45.0403 19.7643 44.8274C19.9969 44.6903 20.1921 44.4976 20.3326 44.2665L22.6844 40.2418C26.5337 39.3974 29.9796 37.2563 32.4501 34.174C34.9206 31.0916 36.2669 27.2535 36.2656 23.2967C36.2669 21.0194 35.8212 18.7642 34.9539 16.6599C34.0867 14.5557 32.815 12.6438 31.2115 11.0335C29.608 9.42321 27.7041 8.1461 25.6088 7.27521C23.5134 6.40431 21.2677 5.95672 19 5.95801Z" fill="#C5C6C7"/>
<path d="M18.9317 15.6901H24.958C25.1638 15.6901 25.3695 15.6901 25.5655 15.6901C25.6287 15.6895 25.6913 15.7026 25.749 15.7285C25.8068 15.7543 25.8583 15.7923 25.9001 15.8399C25.9419 15.8875 25.9731 15.9436 25.9914 16.0043C26.0098 16.0651 26.0149 16.1291 26.0065 16.192C26.0065 16.497 25.8203 16.6053 25.5263 16.6446C25.2324 16.684 24.5464 16.4281 24.3211 16.7922C24.0957 17.1563 24.2133 17.5795 24.1447 17.9829C23.9009 19.8737 22.9984 21.6168 21.597 22.9031C20.8706 23.5866 19.9124 23.967 18.917 23.967C17.9215 23.967 16.9634 23.5866 16.237 22.9031C14.6654 21.4632 13.7249 19.4574 13.6207 17.3236C13.6207 16.743 13.3659 16.6151 12.8466 16.6446C12.3272 16.6741 11.8667 16.8611 11.8667 16.2117C11.8667 15.5622 12.4742 15.6803 12.8956 15.6803L18.9317 15.6901Z" fill="#E37222"/>
<path d="M20.7934 12.6196V11.055C20.7791 10.8507 20.8287 10.647 20.9351 10.4723C21.0416 10.2976 21.1997 10.1606 21.3874 10.0804C21.5751 10.0003 21.783 9.98094 21.9822 10.0251C22.1813 10.0693 22.3618 10.1747 22.4984 10.3268C23.654 11.2923 24.3973 12.6656 24.5758 14.1645C24.5758 14.5975 24.5758 14.7845 24.0662 14.7746C23.1452 14.7746 22.2143 14.7746 21.2932 14.7746C20.9012 14.7746 20.7836 14.627 20.7934 14.2531C20.813 13.7119 20.8032 13.1608 20.7934 12.6196Z" fill="#E37222"/>
<path d="M17.1187 9.36307C18.2684 8.92976 19.5357 8.92976 20.6854 9.36307C19.7056 10.17 19.8525 11.2623 19.8427 12.3152V13.4567C19.8427 14.8343 19.8427 14.8146 18.4709 14.7851C18.0495 14.7851 17.9222 14.6277 17.932 14.2242C17.932 13.3681 17.932 12.5021 17.932 11.646C18.0072 11.2273 17.9717 10.7961 17.829 10.3954C17.6863 9.9948 17.4413 9.63882 17.1187 9.36307Z" fill="#E37222"/>
<path d="M16.9815 12.6196V11.055C16.9958 10.8507 16.9463 10.647 16.8398 10.4723C16.7333 10.2976 16.5752 10.1606 16.3875 10.0804C16.1999 10.0003 15.9919 9.98094 15.7928 10.0251C15.5936 10.0693 15.4131 10.1747 15.2765 10.3268C14.121 11.2923 13.3776 12.6656 13.1992 14.1645C13.1502 14.5975 13.1992 14.7845 13.7087 14.7746C14.6886 14.7746 15.5607 14.7746 16.4916 14.7746C16.8835 14.7746 17.0011 14.627 16.9913 14.2531C16.9717 13.7119 16.9815 13.1608 16.9815 12.6196Z" fill="#E37222"/>
<path d="M29.6318 24.271C28.2377 23.9258 26.9321 23.2887 25.8004 22.4014C25.2433 22.8636 24.635 23.2598 23.9876 23.5822C23.3518 23.8459 22.6965 24.0597 22.0278 24.2218C22.0321 25.5807 22.3261 26.9228 22.8901 28.158C23.591 29.3006 24.6142 30.2082 25.8298 30.7657C27.0754 30.1972 28.106 29.2416 28.7695 28.0399C29.2923 26.8499 29.585 25.5709 29.6318 24.271Z" fill="#EAEAEB"/>
<path d="M28.1914 30.3917C28.1522 30.2167 28.1522 30.0352 28.1914 29.8603C27.5474 30.4612 26.8174 30.9621 26.0259 31.3462C25.9686 31.365 25.9068 31.365 25.8495 31.3462C25.8076 31.3562 25.764 31.3562 25.7221 31.3462C24.2772 30.7428 23.0738 29.6728 22.3023 28.3055C21.8363 27.2187 21.5547 26.0612 21.4694 24.8811L21.2636 24.822C21.1594 24.8119 21.0543 24.8119 20.9501 24.822H20.6953C18.7883 24.5823 16.8551 24.6588 14.9728 25.0484C11.1512 26.0324 9.09344 28.5515 9.15223 32.2121C9.13309 32.5117 9.17826 32.8119 9.28467 33.0925C9.39109 33.373 9.55626 33.6273 9.76903 33.8381C9.98179 34.049 10.2372 34.2115 10.5179 34.3147C10.7986 34.4178 11.0981 34.4592 11.3962 34.4361H26.2219C26.6291 34.4392 27.0273 34.3149 27.3609 34.0803C27.6946 33.8458 27.9472 33.5127 28.0836 33.1273C28.3524 32.2398 28.3895 31.2978 28.1914 30.3917Z" fill="#E37222"/>
<path d="M30.0336 23.73H29.965C28.4909 23.3987 27.1148 22.7246 25.9475 21.762C25.902 21.7331 25.8494 21.7178 25.7956 21.7178C25.7418 21.7178 25.6892 21.7331 25.6437 21.762C25.0879 22.1924 24.5053 22.5869 23.8995 22.9428C23.1807 23.2862 22.4243 23.5438 21.6458 23.7103C21.5706 23.729 21.5059 23.7767 21.4655 23.843C21.4251 23.9093 21.4124 23.9889 21.4302 24.0646C21.4598 25.5188 21.7623 26.9544 22.3219 28.2959C23.0919 29.6561 24.292 30.7193 25.7319 31.3169C25.7739 31.326 25.8173 31.326 25.8593 31.3169C25.9165 31.3364 25.9785 31.3364 26.0357 31.3169C27.4361 30.6935 28.6029 29.6389 29.3673 28.3058C29.954 26.9486 30.2575 25.4851 30.259 24.0056C30.2621 23.9397 30.2408 23.8751 30.1991 23.8242C30.1575 23.7733 30.0985 23.7397 30.0336 23.73ZM28.7989 28.0106C28.135 29.2095 27.1042 30.1618 25.8593 30.7265C24.6441 30.1732 23.6206 29.2688 22.9196 28.1287C22.3579 26.8927 22.064 25.5511 22.0573 24.1925C22.7273 24.0349 23.3829 23.821 24.0171 23.5529C24.6548 23.2413 25.2535 22.8548 25.8005 22.4016C26.934 23.2882 28.2387 23.9282 29.6318 24.2811C29.5884 25.5624 29.3059 26.8241 28.7989 28.0007V28.0106Z" fill="#E37222"/>
<path d="M24.1837 26.2001L23.8015 26.633L25.0852 27.9418C25.1347 27.9911 25.2016 28.0187 25.2713 28.0187C25.3411 28.0187 25.408 27.9911 25.4575 27.9418L27.9268 25.4325C27.768 25.3187 27.6174 25.1938 27.4761 25.0586L25.3105 27.3219" fill="#E37222"/>
<path d="M43.5176 8.53598C43.5176 12.9761 39.9339 16.572 35.5176 16.572C31.1013 16.572 27.5176 12.9761 27.5176 8.53598C27.5176 4.09584 31.1013 0.5 35.5176 0.5C39.9339 0.5 43.5176 4.09584 43.5176 8.53598Z" fill="#BB133E" stroke="white"/>
</svg>
