<svg width="38" height="43" viewBox="0 0 38 43" fill="none" xmlns="http://www.w3.org/2000/svg">
<g clip-path="url(#clip0_5789_16055)">
<path d="M19 0C13.96 0 9.13 2.01 5.56 5.59C2 9.17 0 14.02 0 19.08C0 23.42 1.47 27.62 4.17 31.01C6.87 34.39 10.64 36.75 14.85 37.7L17.45 42.14C17.57 42.34 17.72 42.51 17.9 42.65C18.08 42.79 18.29 42.89 18.51 42.95C18.73 43.01 18.96 43.02 19.19 42.99C19.42 42.96 19.64 42.88 19.83 42.76C20.09 42.61 20.3 42.4 20.45 42.14L23.04 37.72C27.27 36.79 31.06 34.43 33.78 31.04C36.5 27.65 37.98 23.43 37.99 19.08C37.99 14.02 35.99 9.17 32.43 5.59C28.87 2.01 24.04 0 19 0Z" fill="#C5C6C7"/>
<path d="M19 1.95994C14.42 1.95994 10.03 3.78994 6.79 7.03994C3.55 10.2899 1.73 14.6999 1.73 19.2999C1.73 23.2399 3.06 27.0699 5.52 30.1399C7.97 33.2199 11.4 35.3599 15.23 36.2199L17.59 40.2599C17.81 40.6199 18.16 40.8799 18.56 40.9899C18.97 41.0899 19.4 41.0299 19.76 40.8199C19.99 40.6799 20.19 40.4899 20.33 40.2599L22.68 36.2399C26.53 35.3999 29.98 33.2499 32.45 30.1699C34.92 27.0899 36.27 23.2499 36.27 19.2899C36.27 17.0099 35.83 14.7599 34.96 12.6499C34.09 10.5499 32.82 8.62994 31.22 7.01994C29.62 5.40994 27.71 4.12994 25.62 3.25994C23.52 2.38994 21.28 1.93994 19.01 1.93994L19 1.95994Z" fill="#C5C6C7"/>
<path d="M18.93 11.69H25.56C25.62 11.69 25.69 11.7 25.74 11.73C25.8 11.76 25.85 11.79 25.89 11.84C25.93 11.89 25.96 11.94 25.98 12C26 12.06 26 12.12 26 12.19C26 12.49 25.81 12.6 25.52 12.64C25.23 12.68 24.54 12.42 24.31 12.79C24.08 13.15 24.2 13.58 24.13 13.98C23.89 15.87 22.98 17.61 21.58 18.9C20.85 19.58 19.9 19.96 18.9 19.96C17.9 19.96 16.95 19.58 16.22 18.9C14.65 17.46 13.71 15.45 13.6 13.32C13.6 12.74 13.35 12.61 12.83 12.64C12.31 12.67 11.85 12.86 11.85 12.21C11.85 11.56 12.46 11.68 12.88 11.68H18.92L18.93 11.69Z" fill="#E37222"/>
<path d="M20.79 8.62001V7.06001C20.78 6.86001 20.83 6.65001 20.93 6.48001C21.04 6.31001 21.19 6.17001 21.38 6.09001C21.57 6.01001 21.78 5.99001 21.97 6.03001C22.17 6.07001 22.35 6.18001 22.49 6.33001C23.65 7.30001 24.39 8.67001 24.57 10.17C24.57 10.6 24.57 10.79 24.06 10.78H21.29C20.9 10.78 20.78 10.63 20.79 10.26C20.81 9.72001 20.79 9.17001 20.79 8.63001V8.62001Z" fill="#E37222"/>
<path d="M17.12 5.35998C18.27 4.92998 19.54 4.92998 20.69 5.35998C19.71 6.16998 19.86 7.25998 19.85 8.30998V9.44998C19.85 10.83 19.85 10.81 18.48 10.78C18.06 10.78 17.93 10.62 17.94 10.22V7.63998C18.02 7.21998 17.98 6.78998 17.84 6.38998C17.7 5.98998 17.45 5.62998 17.13 5.35998H17.12Z" fill="#E37222"/>
<path d="M16.98 8.62001V7.06001C16.99 6.86001 16.94 6.65001 16.84 6.48001C16.73 6.31001 16.58 6.17001 16.39 6.09001C16.2 6.01001 15.99 5.99001 15.8 6.03001C15.6 6.07001 15.42 6.18001 15.28 6.33001C14.12 7.30001 13.38 8.67001 13.2 10.17C13.15 10.6 13.2 10.79 13.71 10.78H16.49C16.88 10.78 17 10.63 16.99 10.26C16.97 9.72001 16.99 9.17001 16.99 8.63001L16.98 8.62001Z" fill="#E37222"/>
<path d="M29.63 20.27C28.24 19.92 26.93 19.29 25.8 18.4C25.24 18.86 24.63 19.26 23.99 19.58C23.35 19.84 22.7 20.06 22.03 20.22C22.03 21.58 22.33 22.92 22.89 24.16C23.59 25.3 24.61 26.21 25.83 26.77C27.08 26.2 28.11 25.25 28.77 24.04C29.29 22.85 29.59 21.57 29.63 20.27Z" fill="#EAEAEB"/>
<path d="M28.19 26.39C28.15 26.21 28.15 26.03 28.19 25.86C27.55 26.46 26.82 26.96 26.02 27.35C25.96 27.37 25.9 27.37 25.84 27.35C25.8 27.35 25.75 27.35 25.71 27.35C24.27 26.75 23.06 25.68 22.29 24.31C21.82 23.22 21.54 22.07 21.46 20.89L21.25 20.83C21.15 20.82 21.04 20.82 20.94 20.83H20.69C18.78 20.59 16.85 20.67 14.97 21.06C11.15 22.04 9.09 24.56 9.15 28.22C9.13 28.52 9.18 28.82 9.28 29.1C9.39 29.38 9.55 29.63 9.76 29.85C9.97 30.06 10.23 30.22 10.51 30.33C10.79 30.43 11.09 30.47 11.39 30.45H26.22C26.63 30.45 27.03 30.33 27.36 30.09C27.69 29.86 27.95 29.52 28.08 29.14C28.35 28.25 28.39 27.31 28.19 26.4V26.39Z" fill="#E37222"/>
<path d="M30.03 19.73H29.96C28.49 19.4 27.11 18.72 25.94 17.76C25.89 17.73 25.84 17.72 25.79 17.72C25.74 17.72 25.68 17.74 25.64 17.76C25.08 18.19 24.5 18.58 23.9 18.94C23.18 19.28 22.42 19.54 21.65 19.71C21.57 19.73 21.51 19.78 21.47 19.84C21.43 19.91 21.42 19.99 21.43 20.06C21.46 21.51 21.76 22.95 22.32 24.29C23.09 25.65 24.29 26.71 25.73 27.31C25.77 27.31 25.82 27.31 25.86 27.31C25.92 27.33 25.98 27.33 26.04 27.31C27.44 26.69 28.61 25.63 29.37 24.3C29.96 22.94 30.26 21.48 30.26 20C30.26 19.93 30.24 19.87 30.2 19.82C30.16 19.77 30.1 19.74 30.03 19.73ZM28.8 24.01C28.14 25.21 27.11 26.16 25.86 26.73C24.64 26.18 23.62 25.27 22.92 24.13C22.36 22.89 22.06 21.55 22.06 20.19C22.73 20.03 23.39 19.82 24.02 19.55C24.66 19.24 25.26 18.85 25.8 18.4C26.93 19.29 28.24 19.93 29.63 20.28C29.59 21.56 29.3 22.82 28.8 24V24.01Z" fill="#E37222"/>
<path d="M24.18 22.2001L23.8 22.6301L25.08 23.9401C25.08 23.9401 25.2 24.0201 25.27 24.0201C25.34 24.0201 25.41 23.9901 25.46 23.9401L27.93 21.4301C27.77 21.3201 27.62 21.1901 27.48 21.0601L25.31 23.3201" fill="#E37222"/>
</g>
<defs>
<clipPath id="clip0_5789_16055">
<rect width="38" height="43" fill="white"/>
</clipPath>
</defs>
</svg>
