<svg width="12" height="12" viewBox="0 0 12 12" fill="none" xmlns="http://www.w3.org/2000/svg">
<path fill-rule="evenodd" clip-rule="evenodd" d="M1.33329 9.99967C1.33329 10.3663 1.63328 10.6663 1.99993 10.6663H9.99967C10.3663 10.6663 10.6663 10.3663 10.6663 9.99967V6.66644C10.6663 6.29979 10.9663 5.9998 11.333 5.9998C11.6996 5.9998 11.9996 6.29979 11.9996 6.66644V10.6663C11.9996 11.3996 11.3996 11.9996 10.6663 11.9996H1.33329C0.59998 11.9996 0 11.3996 0 10.6663V1.33329C0 0.59998 0.593313 0 1.33329 0H5.33315C5.69981 0 5.9998 0.29999 5.9998 0.666644C5.9998 1.0333 5.69981 1.33329 5.33315 1.33329H1.99993C1.63328 1.33329 1.33329 1.63328 1.33329 1.99993V9.99967ZM8.00013 1.33329C7.63348 1.33329 7.33349 1.0333 7.33349 0.666644C7.33349 0.29999 7.63348 0 8.00013 0H12V3.99987C12 4.36652 11.7 4.66651 11.3334 4.66651C10.9667 4.66651 10.6667 4.36652 10.6667 3.99987V2.27326L4.58025 8.35972C4.32026 8.61971 3.90027 8.61971 3.64028 8.35972C3.38029 8.09973 3.38029 7.67974 3.64028 7.41975L9.72674 1.33329H8.00013Z" fill="#979797"/>
</svg>
