<svg width="38" height="43" viewBox="0 0 38 43" fill="none" xmlns="http://www.w3.org/2000/svg">
<path d="M19 0C13.9609 0 9.12816 2.01025 5.56497 5.58853C2.00178 9.16681 0 14.02 0 19.0804V19.0804C0.00244634 23.4166 1.47483 27.6228 4.17482 31.0067C6.87482 34.3907 10.6415 36.7507 14.8551 37.6984L17.4518 42.1364C17.5681 42.3349 17.7222 42.5085 17.9054 42.6471C18.0885 42.7858 18.2971 42.8868 18.5192 42.9444C18.7413 43.002 18.9725 43.015 19.1996 42.9827C19.4267 42.9505 19.6452 42.8735 19.8427 42.7563C20.0988 42.6073 20.3117 42.3936 20.46 42.1364L23.0469 37.7181C27.281 36.7874 31.0716 34.4324 33.7909 31.043C36.5103 27.6536 37.9953 23.4331 38 19.0804V19.0804C38 14.02 35.9982 9.16681 32.435 5.58853C28.8718 2.01025 24.0391 0 19 0V0Z" fill="#C5C6C7"/>
<path d="M19 1.95801C14.4209 1.95801 10.0293 3.78476 6.79136 7.0364C3.55343 10.288 1.73438 14.6982 1.73438 19.2967V19.2967C1.73131 23.2383 3.06645 27.0633 5.51948 30.1403C7.97251 33.2173 11.3968 35.3626 15.2274 36.2221L17.5889 40.2665C17.805 40.6287 18.1546 40.8907 18.5619 40.9957C18.9691 41.1007 19.4012 41.0403 19.7643 40.8274C19.9969 40.6903 20.1921 40.4976 20.3326 40.2665L22.6844 36.2418C26.5337 35.3974 29.9796 33.2563 32.4501 30.174C34.9206 27.0916 36.2669 23.2535 36.2656 19.2967C36.2669 17.0194 35.8212 14.7642 34.9539 12.6599C34.0867 10.5557 32.815 8.64382 31.2115 7.03351C29.608 5.42321 27.7041 4.1461 25.6088 3.27521C23.5134 2.40431 21.2677 1.95672 19 1.95801V1.95801Z" fill="#C5C6C7"/>
<path d="M18.9314 11.6901H24.9577C25.1635 11.6901 25.3693 11.6901 25.5653 11.6901C25.6285 11.6895 25.6911 11.7026 25.7488 11.7285C25.8065 11.7543 25.858 11.7923 25.8998 11.8399C25.9417 11.8875 25.9728 11.9436 25.9912 12.0043C26.0095 12.0651 26.0146 12.1291 26.0062 12.192C26.0062 12.497 25.82 12.6053 25.5261 12.6446C25.2321 12.684 24.5462 12.4281 24.3208 12.7922C24.0954 13.1563 24.213 13.5795 24.1444 13.9829C23.9007 15.8737 22.9981 17.6168 21.5967 18.9031C20.8703 19.5866 19.9122 19.967 18.9167 19.967C17.9213 19.967 16.9631 19.5866 16.2367 18.9031C14.6652 17.4632 13.7246 15.4574 13.6205 13.3236C13.6205 12.743 13.3657 12.6151 12.8463 12.6446C12.327 12.6741 11.8665 12.8611 11.8665 12.2117C11.8665 11.5622 12.474 11.6803 12.8953 11.6803L18.9314 11.6901Z" fill="#E37222"/>
<path d="M20.7932 8.6196V7.05498C20.7789 6.85066 20.8284 6.64696 20.9349 6.47227C21.0414 6.29758 21.1995 6.1606 21.3872 6.08044C21.5749 6.00029 21.7828 5.98094 21.9819 6.0251C22.1811 6.06926 22.3616 6.17472 22.4982 6.32679C23.6537 7.29231 24.3971 8.66563 24.5755 10.1645C24.5755 10.5975 24.5755 10.7845 24.066 10.7746C23.1449 10.7746 22.214 10.7746 21.2929 10.7746C20.901 10.7746 20.7834 10.627 20.7932 10.2531C20.8128 9.71187 20.803 9.16081 20.7932 8.6196Z" fill="#E37222"/>
<path d="M17.1187 5.36307C18.2684 4.92976 19.5357 4.92976 20.6854 5.36307C19.7056 6.16998 19.8525 7.26226 19.8427 8.31518V9.45666C19.8427 10.8343 19.8427 10.8146 18.4709 10.7851C18.0495 10.7851 17.9222 10.6277 17.932 10.2242C17.932 9.36809 17.932 8.50214 17.932 7.64603C18.0072 7.2273 17.9717 6.79607 17.829 6.39543C17.6863 5.9948 17.4413 5.63882 17.1187 5.36307V5.36307Z" fill="#E37222"/>
<path d="M16.9814 8.6196V7.05498C16.9957 6.85066 16.9462 6.64696 16.8397 6.47227C16.7332 6.29758 16.5751 6.1606 16.3874 6.08044C16.1997 6.00029 15.9918 5.98094 15.7927 6.0251C15.5935 6.06926 15.413 6.17472 15.2764 6.32679C14.1209 7.29231 13.3775 8.66563 13.199 10.1645C13.15 10.5975 13.199 10.7845 13.7086 10.7746C14.6885 10.7746 15.5606 10.7746 16.4915 10.7746C16.8834 10.7746 17.001 10.627 16.9912 10.2531C16.9716 9.71187 16.9814 9.16081 16.9814 8.6196Z" fill="#E37222"/>
<path d="M29.6318 20.271C28.2377 19.9258 26.9321 19.2887 25.8004 18.4014C25.2433 18.8636 24.635 19.2598 23.9876 19.5822C23.3518 19.8459 22.6965 20.0597 22.0278 20.2218C22.0321 21.5807 22.3261 22.9228 22.8901 24.158C23.591 25.3006 24.6142 26.2082 25.8298 26.7657C27.0754 26.1972 28.106 25.2416 28.7695 24.0399C29.2923 22.8499 29.585 21.5709 29.6318 20.271V20.271Z" fill="#EAEAEB"/>
<path d="M28.1913 26.3917C28.1521 26.2167 28.1521 26.0352 28.1913 25.8603C27.5472 26.4612 26.8173 26.9621 26.0258 27.3462C25.9685 27.365 25.9067 27.365 25.8494 27.3462C25.8075 27.3562 25.7639 27.3562 25.722 27.3462C24.277 26.7428 23.0737 25.6728 22.3022 24.3055C21.8361 23.2187 21.5546 22.0612 21.4693 20.8811L21.2635 20.822C21.1592 20.8119 21.0542 20.8119 20.9499 20.822H20.6952C18.7882 20.5823 16.8549 20.6588 14.9726 21.0484C11.1511 22.0324 9.09331 24.5515 9.15211 28.2121C9.13297 28.5117 9.17814 28.8119 9.28455 29.0925C9.39097 29.373 9.55614 29.6273 9.76891 29.8381C9.98167 30.049 10.2371 30.2115 10.5178 30.3147C10.7985 30.4178 11.098 30.4592 11.396 30.4361H26.2217C26.629 30.4392 27.0272 30.3149 27.3608 30.0803C27.6945 29.8458 27.9471 29.5127 28.0835 29.1273C28.3523 28.2398 28.3894 27.2978 28.1913 26.3917V26.3917Z" fill="#E37222"/>
<path d="M30.0335 19.73H29.9649C28.4908 19.3987 27.1147 18.7246 25.9473 17.762C25.9019 17.7331 25.8492 17.7178 25.7955 17.7178C25.7417 17.7178 25.689 17.7331 25.6436 17.762C25.0878 18.1924 24.5052 18.5869 23.8994 18.9428C23.1806 19.2862 22.4242 19.5438 21.6456 19.7103C21.5705 19.729 21.5057 19.7767 21.4654 19.843C21.425 19.9093 21.4123 19.9889 21.4301 20.0646C21.4301 20.0646 21.4301 20.0646 21.4301 20.0646C21.4596 21.5188 21.7622 22.9544 22.3218 24.2959C23.0918 25.6562 24.2919 26.7193 25.7318 27.3169C25.7738 27.326 25.8172 27.326 25.8592 27.3169C25.9163 27.3364 25.9783 27.3364 26.0355 27.3169C27.436 26.6935 28.6027 25.6389 29.3672 24.3058C29.9539 22.9486 30.2574 21.4851 30.2588 20.0056C30.262 19.9397 30.2407 19.8751 30.199 19.8242C30.1574 19.7733 30.0984 19.7397 30.0335 19.73ZM28.7988 24.0106C28.1348 25.2095 27.1041 26.1618 25.8592 26.7265C24.6439 26.1732 23.6205 25.2688 22.9195 24.1287C22.3578 22.8927 22.0639 21.5511 22.0572 20.1925C22.7272 20.0349 23.3827 19.821 24.017 19.5529C24.6547 19.2413 25.2533 18.8548 25.8004 18.4016C26.9339 19.2882 28.2386 19.9282 29.6317 20.2811C29.5883 21.5624 29.3058 22.8241 28.7988 24.0007V24.0106Z" fill="#E37222"/>
<path d="M24.1835 22.2001L23.8014 22.633L25.085 23.9418C25.1346 23.9911 25.2015 24.0187 25.2712 24.0187C25.3409 24.0187 25.4079 23.9911 25.4574 23.9418V23.9418L27.9267 21.4325C27.7679 21.3187 27.6172 21.1938 27.476 21.0586L25.3104 23.3219" fill="#E37222"/>
</svg>
