<svg width="38" height="43" viewBox="0 0 38 43" fill="none" xmlns="http://www.w3.org/2000/svg">
<g clip-path="url(#clip0_5166_15833)">
<path d="M19 0C13.96 0 9.13 2.01 5.56 5.59C2 9.17 0 14.02 0 19.08C0 23.42 1.47 27.62 4.17 31.01C6.87 34.39 10.64 36.75 14.85 37.7L17.45 42.15C17.69 42.55 18.07 42.84 18.52 42.95C18.97 43.07 19.44 43 19.84 42.76C20.1 42.61 20.31 42.4 20.46 42.14L23.05 37.71C27.28 36.78 31.07 34.42 33.79 31.03C36.51 27.64 37.99 23.42 38 19.07C38 14.01 35.99 9.16 32.43 5.58C28.86 2.01 24.03 0 19 0Z" fill="white"/>
<path d="M19.03 1.93998C14.43 1.93998 10.01 3.77998 6.76 7.03998C3.5 10.3 1.67 14.74 1.67 19.35C1.67 23.31 3.02 27.15 5.49 30.23C7.96 33.32 11.4 35.47 15.25 36.33L17.66 40.38C17.8 40.62 18 40.82 18.24 40.96C18.48 41.1 18.75 41.17 19.03 41.17C19.31 41.17 19.58 41.1 19.82 40.96C20.06 40.82 20.26 40.62 20.4 40.38L22.77 36.35C26.64 35.51 30.12 33.37 32.61 30.27C35.1 27.18 36.46 23.32 36.46 19.34C36.46 17.05 36.01 14.78 35.13 12.66C34.25 10.54 32.97 8.61998 31.35 6.99998C29.73 5.37998 27.81 4.09998 25.69 3.22998C23.58 2.35998 21.31 1.91998 19.03 1.92998V1.93998Z" fill="#F68221"/>
<path d="M20.77 5.67999C22.77 5.67999 24.71 6.33999 26.26 7.56999C26.58 7.81999 26.85 8.10999 27.06 8.44999C27.19 8.66999 27.26 8.90999 26.99 9.08999C26.72 9.26999 26.54 9.08999 26.38 8.94999C25.88 8.34999 25.27 7.84999 24.59 7.44999C23.49 6.85999 22.27 6.49999 21.01 6.39999C19.75 6.29999 18.49 6.46999 17.3 6.88999C17.08 6.95999 16.73 7.22999 16.62 6.88999C16.51 6.54999 16.91 6.47999 17.17 6.37999C17.64 6.19999 18.12 6.04999 18.61 5.94999C19.31 5.78999 20.03 5.70999 20.76 5.68999L20.77 5.67999Z" fill="white"/>
<path d="M17.44 33.06C15.37 33.06 13.38 32.29 11.9 30.89C11.59 30.59 11.32 30.25 11.11 29.88C10.98 29.68 10.84 29.43 11.11 29.25C11.38 29.07 11.56 29.31 11.73 29.48L11.89 29.68C12.54 30.49 13.36 31.15 14.29 31.62C15.23 32.09 16.26 32.36 17.31 32.4C18.4 32.48 19.5 32.38 20.55 32.1C20.73 32.05 21.02 31.87 21.11 32.1C21.2 32.33 20.88 32.48 20.67 32.56C19.63 32.89 18.54 33.06 17.44 33.06Z" fill="white"/>
<path d="M26.02 10.49C26.03 10.57 26.02 10.66 25.99 10.73C25.96 10.81 25.9 10.87 25.83 10.91C25.76 10.95 25.68 10.98 25.59 10.98C25.51 10.98 25.43 10.95 25.36 10.91C25.21 10.82 25.08 10.7 24.98 10.56C24.13 9.50998 22.95 8.75998 21.63 8.43998C20.31 8.11998 18.92 8.22998 17.67 8.76998C17.38 8.88998 16.93 9.19998 16.78 8.83998C16.63 8.47998 17.19 8.33998 17.48 8.23998C18.63 7.73998 19.88 7.53998 21.13 7.65998C22.38 7.77998 23.57 8.21998 24.6 8.93998C25.07 9.28998 25.49 9.68998 25.85 10.15C25.9 10.19 25.94 10.25 25.97 10.31C26 10.37 26.02 10.44 26.02 10.5V10.49Z" fill="white"/>
<path d="M18.2 31.11C17.04 31.17 15.89 30.91 14.87 30.35C13.85 29.79 12.98 28.96 12.38 27.93C12.27 27.74 12.13 27.55 12.38 27.35C12.63 27.15 12.8 27.27 12.97 27.45C13.07 27.55 13.16 27.66 13.24 27.78C14.02 28.91 15.13 29.74 16.4 30.16C17.67 30.58 19.04 30.57 20.3 30.12C20.5 30.05 20.7 30 20.91 29.97C21.03 29.97 21.17 29.97 21.23 30.09C21.29 30.21 21.18 30.36 21.06 30.44C20.73 30.64 20.36 30.78 19.98 30.84C19.4 31 18.8 31.08 18.19 31.1L18.2 31.11Z" fill="white"/>
<path d="M24.6 12.2C24.6 12.25 24.58 12.3 24.55 12.35C24.52 12.39 24.49 12.43 24.44 12.46C24.4 12.49 24.35 12.51 24.29 12.52C24.23 12.53 24.18 12.52 24.13 12.52C23.9 12.47 23.69 12.35 23.53 12.18C22.9 11.53 22.09 11.07 21.21 10.85C20.32 10.63 19.39 10.66 18.51 10.93C18.25 10.97 17.99 11.03 17.73 11.1C17.54 11.15 17.34 11.17 17.26 10.98C17.18 10.8 17.39 10.64 17.55 10.57C18.02 10.36 18.53 10.23 19.04 10.19C19.98 10 20.96 10.05 21.87 10.32C22.79 10.6 23.62 11.1 24.28 11.77C24.41 11.89 24.51 12.04 24.58 12.2H24.6Z" fill="white"/>
<path d="M18.42 28.66C17.54 28.69 16.66 28.51 15.86 28.13C15.06 27.75 14.37 27.18 13.85 26.47C13.74 26.31 13.55 26.15 13.73 25.95C13.91 25.75 14.13 25.82 14.33 25.95C14.44 26 14.54 26.09 14.62 26.19C16.07 28 17.97 28.32 20.1 27.88C20.36 27.83 20.75 27.59 20.85 27.96C20.95 28.33 20.51 28.39 20.23 28.47C19.64 28.62 19.02 28.68 18.41 28.67L18.42 28.66Z" fill="white"/>
<path d="M26.37 17.93C26.17 17.23 25.91 16.56 25.59 15.91L25.33 15.58C24.49 14.29 23.24 13.31 21.78 12.8C20.32 12.29 18.73 12.27 17.26 12.74C15.5 13.31 14.03 14.52 13.15 16.13L12.79 17.01C12.3 18.4 12.23 19.9 12.58 21.33C12.63 21.45 12.69 21.55 12.73 21.67C13.03 22.55 13.5 23.36 14.11 24.06C14.72 24.76 15.47 25.33 16.3 25.74C17.13 26.15 18.04 26.39 18.97 26.45C19.9 26.51 20.83 26.39 21.71 26.09L21.98 25.99C23.47 25.4 24.73 24.34 25.58 22.98L26.05 21.92C26.39 20.98 26.55 19.99 26.53 18.99C26.49 18.63 26.44 18.28 26.36 17.92L26.37 17.93ZM21.15 25.75C19.68 26.14 18.12 26.01 16.74 25.37C15.36 24.74 14.25 23.64 13.59 22.28C12.93 20.92 12.78 19.37 13.15 17.9C13.52 16.43 14.4 15.14 15.63 14.25C15.67 14.51 15.64 14.77 15.56 15.01C15.48 15.26 15.34 15.48 15.16 15.66C15.06 15.77 14.98 15.91 14.95 16.06C14.92 16.21 14.92 16.36 14.97 16.51C15.25 17.15 15.28 17.84 15.54 18.47C15.59 18.57 15.65 18.65 15.73 18.73C15.85 18.56 15.63 18.41 15.79 18.21C15.99 18.71 16.47 19 16.47 19.61C16.47 19.96 17.35 20.38 17.9 20.47C18.56 20.57 19.18 20.86 19.68 21.31C19.82 21.48 19.99 21.62 20.19 21.72C20.39 21.82 20.6 21.87 20.82 21.87C21.01 21.87 21.19 21.87 21.24 22.1C21.27 22.19 21.27 22.29 21.25 22.39C21.23 22.49 21.19 22.57 21.12 22.65C20.94 22.84 20.81 23.08 20.75 23.33C20.69 23.59 20.69 23.85 20.76 24.11C20.83 24.36 20.97 24.59 21.15 24.78C21.34 24.97 21.57 25.1 21.82 25.17C21.77 25.31 21.68 25.44 21.57 25.53C21.45 25.63 21.31 25.69 21.17 25.71V25.73L21.15 25.75ZM25.6 21.54C25.49 21.84 25.36 21.81 25.16 21.69C24.36 21.15 23.42 20.85 22.46 20.82C22.28 20.8 22.09 20.83 21.92 20.92C21.76 21.01 21.62 21.14 21.53 21.3C21.47 21.42 21.37 21.51 21.25 21.58C21.13 21.64 21 21.67 20.87 21.66C20.35 21.66 20.14 21.48 20.19 20.97C20.24 20.45 20.09 20.36 19.67 20.41C19.25 20.46 19.22 20.33 19.39 20C19.43 19.9 19.45 19.8 19.47 19.7C19.49 19.66 19.49 19.61 19.47 19.57C19.46 19.53 19.43 19.49 19.4 19.46C19.28 19.39 19.2 19.46 19.12 19.55C18.56 20.09 18.29 20.13 17.92 19.72C17.78 19.47 17.72 19.19 17.74 18.91C17.76 18.63 17.88 18.36 18.07 18.15C18.62 17.55 19.27 17.93 19.87 17.91C20.11 17.91 20.05 18.26 20.14 18.44C20.23 18.62 20.34 18.86 20.54 18.77C20.75 18.68 20.64 18.44 20.54 18.29C20.47 18.2 20.42 18.09 20.39 17.98C20.36 17.87 20.37 17.75 20.39 17.64C20.42 17.53 20.48 17.42 20.55 17.34C20.63 17.25 20.72 17.19 20.83 17.14C21.17 16.93 20.96 16.57 21.11 16.3C21.26 16.03 21.31 15.75 21.55 15.6C21.8 15.44 22.2 15.16 21.44 14.88C22.01 14.79 22.27 15.23 22.77 15.17C22.14 14.51 21.35 14.01 20.48 13.74C20.28 13.68 20.06 13.68 19.86 13.74C19.97 13.9 20.15 14.09 19.99 14.27C19.82 14.45 19.6 14.35 19.39 14.27L19.05 14.14C18.9 14.07 18.63 14.09 18.67 13.87C18.7 13.78 18.76 13.69 18.84 13.64C18.92 13.58 19.02 13.56 19.12 13.57C19.57 13.57 20.1 13.31 20.48 13.7C20.75 13.57 20.73 13.52 20.38 13.28L19.83 13.14C19.95 13.08 20.08 13.05 20.22 13.05C20.36 13.05 20.49 13.08 20.61 13.14C21.53 13.31 22.4 13.67 23.16 14.2C23.93 14.73 24.57 15.42 25.04 16.22C25.51 17.02 25.81 17.91 25.9 18.84C26 19.76 25.9 20.7 25.59 21.58L25.6 21.54Z" fill="white"/>
</g>
<defs>
<clipPath id="clip0_5166_15833">
<rect width="38" height="43" fill="white"/>
</clipPath>
</defs>
</svg>
