<svg width="38" height="43" viewBox="0 0 38 43" fill="none" xmlns="http://www.w3.org/2000/svg">
<path d="M18.9951 0C13.9573 0 9.12582 2.00987 5.56355 5.58746C2.00127 9.16506 6.66947e-09 14.0173 6.66946e-09 19.0768V19.0768C-0.000114362 23.4129 1.47069 27.6198 4.17002 31.004C6.86936 34.3882 10.6362 36.7479 14.8497 37.6943L17.4479 42.1409C17.6848 42.5405 18.0697 42.8296 18.5183 42.945C18.9669 43.0604 19.4427 42.9927 19.8417 42.7566C20.0968 42.6062 20.3108 42.3947 20.4645 42.1409L23.053 37.7138C27.2861 36.7828 31.0756 34.4276 33.7938 31.0383C36.5121 27.649 37.9961 23.4288 38 19.0768V19.0768C37.9948 14.0172 35.9906 9.16648 32.4273 5.58973C28.8641 2.01298 24.0331 0.0025867 18.9951 0V0Z" fill="white"/>
<path d="M19.0302 1.9367C14.4272 1.9367 10.0127 3.7718 6.7579 7.03829C3.50309 10.3048 1.67456 14.7351 1.67456 19.3546V19.3546C1.67744 23.3121 3.02309 27.1506 5.48993 30.2381C7.95676 33.3255 11.3977 35.4779 15.2462 36.3407L17.6515 40.3935C17.7903 40.6361 17.9903 40.8376 18.2315 40.9778C18.4728 41.118 18.7465 41.1918 19.0253 41.1918C19.304 41.1918 19.5778 41.118 19.819 40.9778C20.0602 40.8376 20.2603 40.6361 20.3991 40.3935L22.7653 36.3604C26.6395 35.5218 30.1108 33.377 32.6014 30.283C35.092 27.1889 36.4517 23.3322 36.4542 19.3546V19.3546C36.4555 17.0611 36.0052 14.7899 35.1292 12.6716C34.2532 10.5533 32.9687 8.62959 31.3496 7.01103C29.7304 5.39247 27.8086 4.11096 25.6944 3.24014C23.5802 2.36932 21.3154 1.92636 19.0302 1.9367V1.9367Z" fill="#F68221"/>
<path d="M20.7724 5.68167C22.7751 5.67617 24.717 6.34455 26.2629 7.57148C26.5812 7.8178 26.8532 8.11506 27.0669 8.45024C27.1944 8.66757 27.263 8.91325 26.9983 9.09278C26.7336 9.27231 26.5473 9.09278 26.3904 8.95104C25.8857 8.35521 25.2788 7.84707 24.5962 7.44865C23.4957 6.85433 22.2747 6.49676 21.0172 6.40052C19.7597 6.30428 18.4954 6.47166 17.3114 6.89115C17.0957 6.9573 16.7428 7.23132 16.6349 6.89115C16.5271 6.55099 16.9291 6.48484 17.184 6.3809C17.6505 6.19633 18.1327 6.0509 18.6252 5.94625C19.3301 5.78987 20.0494 5.70125 20.7724 5.68167V5.68167Z" fill="white"/>
<path d="M17.4363 33.0574C15.369 33.0625 13.3811 32.2847 11.8955 30.8895C11.5861 30.5872 11.3195 30.2464 11.1026 29.876C10.9769 29.6789 10.8318 29.4255 11.1026 29.2472C11.3733 29.0689 11.5571 29.3035 11.7214 29.4819L11.8858 29.6789C12.5322 30.4876 13.3523 31.15 14.2891 31.62C15.2259 32.09 16.257 32.3563 17.3106 32.4005C18.4001 32.4805 19.4957 32.3789 20.55 32.1002C20.7337 32.0532 21.0238 31.8749 21.1108 32.1002C21.1978 32.3254 20.8787 32.4849 20.666 32.56C19.6241 32.8936 18.5334 33.0616 17.4363 33.0574V33.0574Z" fill="white"/>
<path d="M26.0158 10.4851C26.028 10.5671 26.016 10.6508 25.9813 10.7261C25.9465 10.8014 25.8906 10.865 25.8202 10.9093C25.7498 10.9536 25.6681 10.9766 25.5848 10.9755C25.5016 10.9744 25.4204 10.9493 25.3512 10.9032C25.2001 10.8155 25.07 10.6961 24.97 10.5532C24.1159 9.50045 22.9384 8.75541 21.6179 8.43224C20.2975 8.10908 18.9069 8.22563 17.6594 8.76403C17.3662 8.88071 16.9166 9.19187 16.77 8.8321C16.6234 8.47232 17.1805 8.33619 17.4737 8.22923C18.6205 7.72911 19.8773 7.53083 21.1233 7.65343C22.3694 7.77604 23.5628 8.21541 24.5889 8.92933C25.057 9.27516 25.4776 9.68052 25.8399 10.1351C25.8915 10.1785 25.9338 10.2319 25.964 10.2921C25.9943 10.3523 26.0119 10.4179 26.0158 10.4851V10.4851Z" fill="white"/>
<path d="M18.2002 31.1112C17.0447 31.1727 15.8945 30.9103 14.87 30.3516C13.8456 29.7929 12.9846 28.9584 12.3771 27.9354C12.2704 27.7439 12.1248 27.5523 12.3771 27.3507C12.6294 27.1491 12.7944 27.27 12.9691 27.4515C13.0726 27.5503 13.1639 27.6621 13.2409 27.7842C14.0209 28.9102 15.129 29.7456 16.4014 30.1668C17.6738 30.588 19.0429 30.5727 20.3062 30.1232C20.5053 30.0538 20.7099 30.0032 20.9177 29.9719C21.0341 29.9719 21.1797 29.9719 21.2379 30.0929C21.2962 30.2139 21.1894 30.3651 21.0632 30.4458C20.7299 30.6452 20.3651 30.7817 19.986 30.8491C19.4018 31.0046 18.8029 31.0925 18.2002 31.1112V31.1112Z" fill="white"/>
<path d="M24.6034 12.2045C24.5996 12.2559 24.584 12.306 24.5577 12.3508C24.5314 12.3957 24.4951 12.4343 24.4514 12.4638C24.4077 12.4933 24.3578 12.5129 24.3053 12.5212C24.2528 12.5295 24.1991 12.5263 24.148 12.5119C23.9175 12.4587 23.7078 12.3419 23.5442 12.1756C22.9142 11.5293 22.1087 11.0691 21.2207 10.8481C20.3326 10.6272 19.3983 10.6544 18.5256 10.9268C18.2619 10.9707 18.0009 11.0284 17.7436 11.0997C17.5555 11.1477 17.3576 11.167 17.2784 10.9844C17.1992 10.8019 17.4071 10.6482 17.5654 10.5714C18.038 10.3631 18.5433 10.2332 19.0601 10.1871C20.0013 9.99737 20.9768 10.0433 21.8947 10.3206C22.8125 10.5979 23.6425 11.0975 24.3064 11.7722C24.4394 11.8913 24.5412 12.0395 24.6034 12.2045V12.2045Z" fill="white"/>
<path d="M18.4171 28.6636C17.5345 28.6949 16.6576 28.5115 15.8616 28.1289C15.0656 27.7463 14.3743 27.1761 13.8473 26.4673C13.738 26.3083 13.5492 26.1493 13.7281 25.9505C13.9069 25.7517 14.1254 25.8213 14.3241 25.9505C14.4386 26.0046 14.5377 26.0866 14.6122 26.189C16.0626 27.9977 17.9601 28.3157 20.096 27.8785C20.3543 27.8288 20.7417 27.5903 20.851 27.958C20.9603 28.3257 20.5132 28.3853 20.2351 28.4648C19.6405 28.6108 19.0292 28.6777 18.4171 28.6636V28.6636Z" fill="white"/>
<path d="M26.3672 17.9317C26.1667 17.2361 25.907 16.5589 25.5908 15.9074L25.3352 15.5749C24.4906 14.2854 23.2424 13.3089 21.7839 12.7963C20.3254 12.2836 18.7378 12.2635 17.2666 12.7389C15.511 13.3047 14.0405 14.5194 13.1585 16.1323L12.7949 17.0124C12.3048 18.4025 12.2331 19.9047 12.5885 21.3348C12.6377 21.4522 12.6966 21.5597 12.7359 21.6771C13.0329 22.555 13.5011 23.3659 14.1136 24.0634C14.7262 24.7609 15.471 25.3314 16.3054 25.742C17.1399 26.1526 18.0476 26.3953 18.9764 26.4563C19.9053 26.5173 20.8372 26.3952 21.7186 26.0972L21.9839 25.9995C23.4771 25.4063 24.7385 24.3501 25.5809 22.9875L26.0527 21.9313C26.3891 20.9901 26.5522 19.9963 26.5342 18.9976C26.4981 18.6395 26.4424 18.2837 26.3672 17.9317V17.9317ZM21.1486 25.755C19.6798 26.1451 18.1201 26.012 16.7395 25.3785C15.359 24.7451 14.2445 23.6512 13.589 22.2864C12.9335 20.9215 12.7782 19.3715 13.1501 17.9048C13.522 16.438 14.3976 15.1468 15.6253 14.2547C15.6625 14.5113 15.6393 14.7729 15.5574 15.019C15.4755 15.2651 15.3373 15.4889 15.1536 15.6727C15.0493 15.7852 14.9763 15.9229 14.9418 16.0721C14.9074 16.2213 14.9126 16.3769 14.957 16.5235C15.2322 17.1591 15.2715 17.8534 15.527 18.4793C15.5778 18.5748 15.6406 18.6635 15.7138 18.7433C15.8317 18.5771 15.6155 18.4206 15.7727 18.225C15.9693 18.7238 16.4509 19.0171 16.4509 19.6235C16.4509 19.9755 17.3354 20.396 17.8759 20.484C18.5403 20.5802 19.1602 20.8732 19.6547 21.325C19.791 21.4966 19.9641 21.6357 20.1613 21.7322C20.3586 21.8286 20.575 21.88 20.7948 21.8824C20.9815 21.8824 21.1682 21.8824 21.2174 22.1171C21.2451 22.211 21.2489 22.3102 21.2283 22.4059C21.2077 22.5015 21.1634 22.5905 21.0994 22.6648C20.9194 22.8572 20.7921 23.0924 20.7296 23.3478C20.6671 23.6033 20.6716 23.8704 20.7426 24.1236C20.8136 24.3768 20.9488 24.6077 21.1352 24.794C21.3215 24.9803 21.5529 25.1159 21.807 25.1878C21.7564 25.3292 21.6687 25.4546 21.5529 25.5509C21.4371 25.6472 21.2975 25.7109 21.1486 25.7354V25.755ZM25.6006 21.5402C25.4925 21.8433 25.3647 21.814 25.1583 21.6868C24.3589 21.147 23.4214 20.845 22.4557 20.8165C22.2711 20.7946 22.0842 20.8287 21.9194 20.9142C21.7546 20.9996 21.6195 21.1326 21.5319 21.2957C21.4693 21.4131 21.3737 21.5098 21.2567 21.5741C21.1398 21.6383 21.0066 21.6673 20.8734 21.6575C20.3525 21.6575 20.1461 21.4815 20.1953 20.9632C20.2444 20.4449 20.097 20.3569 19.6744 20.4058C19.2518 20.4547 19.2223 20.3275 19.3894 19.9951C19.4259 19.8969 19.4523 19.7954 19.468 19.6919C19.4833 19.6506 19.4849 19.6055 19.4725 19.5633C19.4602 19.521 19.4344 19.4838 19.3992 19.4572C19.2813 19.3888 19.2027 19.4572 19.124 19.5452C18.5639 20.0831 18.2985 20.1222 17.925 19.7115C17.7829 19.4661 17.7208 19.1829 17.7472 18.9009C17.7736 18.6189 17.8873 18.3521 18.0725 18.137C18.6228 17.5405 19.2715 17.9121 19.871 17.8925C20.1068 17.8925 20.0479 18.2446 20.1363 18.4206C20.2248 18.5966 20.3329 18.8411 20.5393 18.7531C20.7456 18.6651 20.6375 18.4206 20.5393 18.2739C20.4665 18.1834 20.416 18.0772 20.3918 17.9638C20.3676 17.8504 20.3704 17.7329 20.4 17.6207C20.4297 17.5086 20.4852 17.4049 20.5623 17.318C20.6394 17.231 20.7358 17.1632 20.8439 17.12C21.1879 16.9146 20.9717 16.5528 21.1191 16.279C21.2665 16.0052 21.3157 15.7313 21.5613 15.5749C21.807 15.4184 22.21 15.1348 21.4532 14.8512C22.0233 14.7632 22.2788 15.2033 22.78 15.1446C22.153 14.4804 21.3642 13.9886 20.4901 13.7168C20.2875 13.6615 20.0736 13.6615 19.871 13.7168C19.9791 13.8733 20.1658 14.0689 19.9987 14.2449C19.8316 14.4209 19.6056 14.3231 19.3992 14.2449L19.0552 14.1178C18.9078 14.0493 18.6326 14.0689 18.672 13.844C18.7009 13.7495 18.7616 13.6678 18.8439 13.6126C18.9263 13.5574 19.0252 13.532 19.124 13.5408C19.5761 13.5408 20.1068 13.2768 20.4803 13.6679C20.7456 13.5408 20.726 13.4919 20.382 13.2474L19.8316 13.1105C19.9527 13.0525 20.0854 13.0223 20.2198 13.0223C20.3543 13.0223 20.487 13.0525 20.608 13.1105C21.5261 13.2766 22.3974 13.6374 23.1627 14.1685C23.928 14.6997 24.5693 15.3886 25.0431 16.1885C25.5168 16.9883 25.8118 17.8804 25.908 18.8038C26.0042 19.7273 25.8994 20.6606 25.6006 21.5402V21.5402Z" fill="white"/>
</svg>
