<svg width="38" height="43" viewBox="0 0 38 43" fill="none" xmlns="http://www.w3.org/2000/svg">
<path d="M19 0C13.96 0 9.13 2.00579 5.56 5.5783C2 9.15081 0 13.9907 0 19.0401C0 23.371 1.47 27.5622 4.17 30.9451C6.87 34.318 10.64 36.6731 14.85 37.6211L17.45 42.0618C17.69 42.461 18.07 42.7504 18.52 42.8601C18.97 42.9799 19.44 42.91 19.84 42.6705C20.1 42.5208 20.31 42.3113 20.46 42.0518L23.05 37.6311C27.28 36.703 31.07 34.348 33.79 30.9651C36.51 27.5822 37.99 23.371 38 19.0301C38 13.9807 35.99 9.14083 32.43 5.56832C28.86 2.00579 24.03 0 19 0Z" fill="#F68221"/>
<path d="M19.03 1.93593C14.43 1.93593 10.01 3.77208 6.76 7.02526C3.5 10.2784 1.67 14.7091 1.67 19.3095C1.67 23.2612 3.02 27.0932 5.49 30.1667C7.96 33.2503 11.4 35.3958 15.25 36.254L17.66 40.2955C17.8 40.535 18 40.7346 18.24 40.8743C18.48 41.014 18.75 41.0838 19.03 41.0838C19.31 41.0838 19.58 41.014 19.82 40.8743C20.06 40.7346 20.26 40.535 20.4 40.2955L22.77 36.2739C26.64 35.4357 30.12 33.3002 32.61 30.2067C35.1 27.1231 36.46 23.2712 36.46 19.2995C36.46 17.0143 36.01 14.7491 35.13 12.6335C34.25 10.5179 32.97 8.60195 31.35 6.98534C29.73 5.36873 27.81 4.09141 25.69 3.22323C23.58 2.35505 21.31 1.91597 19.03 1.92595V1.93593Z" fill="white"/>
<path d="M20.77 5.66809C22.77 5.66809 24.71 6.32671 26.26 7.55414C26.58 7.80361 26.85 8.09301 27.06 8.4323C27.19 8.65184 27.26 8.89133 26.99 9.07096C26.72 9.25058 26.54 9.07096 26.38 8.93125C25.88 8.3325 25.27 7.83355 24.59 7.43439C23.49 6.84562 22.27 6.48638 21.01 6.38658C19.75 6.28679 18.49 6.45644 17.3 6.87556C17.08 6.94541 16.73 7.21485 16.62 6.87556C16.51 6.53627 16.91 6.46642 17.17 6.36663C17.64 6.187 18.12 6.03732 18.61 5.93753C19.31 5.77786 20.03 5.69803 20.76 5.67807L20.77 5.66809Z" fill="#F68221"/>
<path d="M17.44 32.9908C15.37 32.9908 13.38 32.2224 11.9 30.8253C11.59 30.526 11.32 30.1867 11.11 29.8175C10.98 29.6179 10.84 29.3684 11.11 29.1888C11.38 29.0092 11.56 29.2486 11.73 29.4183L11.89 29.6179C12.54 30.4262 13.36 31.0848 14.29 31.5538C15.23 32.0228 16.26 32.2923 17.31 32.3322C18.4 32.412 19.5 32.3122 20.55 32.0328C20.73 31.9829 21.02 31.8033 21.11 32.0328C21.2 32.2623 20.88 32.412 20.67 32.4918C19.63 32.8212 18.54 32.9908 17.44 32.9908Z" fill="#F68221"/>
<path d="M26.02 10.4681C26.03 10.5479 26.02 10.6377 25.99 10.7076C25.96 10.7874 25.9 10.8473 25.83 10.8872C25.76 10.9271 25.68 10.957 25.59 10.957C25.51 10.957 25.43 10.9271 25.36 10.8872C25.21 10.7974 25.08 10.6776 24.98 10.5379C24.13 9.49011 22.95 8.74168 21.63 8.42235C20.31 8.10302 18.92 8.21279 17.67 8.75166C17.38 8.87141 16.93 9.18076 16.78 8.82151C16.63 8.46227 17.19 8.32256 17.48 8.22277C18.63 7.72381 19.88 7.52423 21.13 7.64398C22.38 7.76373 23.57 8.20281 24.6 8.9213C25.07 9.27057 25.49 9.66973 25.85 10.1288C25.9 10.1687 25.94 10.2286 25.97 10.2884C26 10.3483 26.02 10.4182 26.02 10.478V10.4681Z" fill="#F68221"/>
<path d="M18.2 31.0449C17.04 31.1048 15.89 30.8453 14.87 30.2865C13.85 29.7276 12.98 28.8994 12.38 27.8715C12.27 27.6819 12.13 27.4923 12.38 27.2927C12.63 27.0932 12.8 27.2129 12.97 27.3925C13.07 27.4923 13.16 27.6021 13.24 27.7218C14.02 28.8495 15.13 29.6777 16.4 30.0969C17.67 30.516 19.04 30.506 20.3 30.0569C20.5 29.9871 20.7 29.9372 20.91 29.9073C21.03 29.9073 21.17 29.9073 21.23 30.027C21.29 30.1468 21.18 30.2964 21.06 30.3763C20.73 30.5759 20.36 30.7156 19.98 30.7754C19.4 30.9351 18.8 31.0149 18.19 31.0349L18.2 31.0449Z" fill="#F68221"/>
<path d="M24.6 12.1745C24.6 12.2243 24.58 12.2742 24.55 12.3241C24.52 12.3641 24.49 12.404 24.44 12.4339C24.4 12.4638 24.35 12.4838 24.29 12.4938C24.23 12.5038 24.18 12.4938 24.13 12.4938C23.9 12.4439 23.69 12.3241 23.53 12.1545C22.9 11.5059 22.09 11.0468 21.21 10.8273C20.32 10.6077 19.39 10.6377 18.51 10.9071C18.25 10.947 17.99 11.0069 17.73 11.0768C17.54 11.1266 17.34 11.1466 17.26 10.957C17.18 10.7774 17.39 10.6177 17.55 10.5479C18.02 10.3383 18.53 10.2086 19.04 10.1687C19.98 9.97905 20.96 10.0289 21.87 10.2984C22.79 10.5778 23.62 11.0768 24.28 11.7454C24.41 11.8651 24.51 12.0148 24.58 12.1745H24.6Z" fill="#F68221"/>
<path d="M18.42 28.6001C17.54 28.63 16.66 28.4504 15.86 28.0712C15.06 27.692 14.37 27.1231 13.85 26.4146C13.74 26.255 13.55 26.0953 13.73 25.8957C13.91 25.6961 14.13 25.766 14.33 25.8957C14.44 25.9456 14.54 26.0354 14.62 26.1352C16.07 27.9414 17.97 28.2608 20.1 27.8217C20.36 27.7718 20.75 27.5323 20.85 27.9015C20.95 28.2707 20.51 28.3306 20.23 28.4104C19.64 28.5601 19.02 28.62 18.41 28.61L18.42 28.6001Z" fill="#F68221"/>
<path d="M26.37 17.8925C26.17 17.1939 25.91 16.5253 25.59 15.8767L25.33 15.5474C24.49 14.2601 23.24 13.2821 21.78 12.7732C20.32 12.2643 18.73 12.2443 17.26 12.7133C15.5 13.2821 14.03 14.4896 13.15 16.0962L12.79 16.9744C12.3 18.3615 12.23 19.8583 12.58 21.2853C12.63 21.4051 12.69 21.5049 12.73 21.6246C13.03 22.5028 13.5 23.3111 14.11 24.0096C14.72 24.7082 15.47 25.277 16.3 25.6861C17.13 26.0953 18.04 26.3348 18.97 26.3946C19.9 26.4545 20.83 26.3348 21.71 26.0354L21.98 25.9356C23.47 25.3468 24.73 24.289 25.58 22.9319L26.05 21.8741C26.39 20.9361 26.55 19.9482 26.53 18.9502C26.49 18.591 26.44 18.2417 26.36 17.8825L26.37 17.8925ZM21.15 25.6961C19.68 26.0853 18.12 25.9556 16.74 25.3169C15.36 24.6882 14.25 23.5905 13.59 22.2334C12.93 20.8762 12.78 19.3294 13.15 17.8625C13.52 16.3956 14.4 15.1083 15.63 14.2202C15.67 14.4796 15.64 14.7391 15.56 14.9786C15.48 15.228 15.34 15.4476 15.16 15.6272C15.06 15.737 14.98 15.8767 14.95 16.0264C14.92 16.1761 14.92 16.3257 14.97 16.4754C15.25 17.1141 15.28 17.8026 15.54 18.4313C15.59 18.5311 15.65 18.611 15.73 18.6908C15.85 18.5211 15.63 18.3715 15.79 18.1719C15.99 18.6708 16.47 18.9602 16.47 19.5689C16.47 19.9182 17.35 20.3373 17.9 20.4271C18.56 20.5269 19.18 20.8163 19.68 21.2654C19.82 21.435 19.99 21.5747 20.19 21.6745C20.39 21.7743 20.6 21.8242 20.82 21.8242C21.01 21.8242 21.19 21.8242 21.24 22.0537C21.27 22.1435 21.27 22.2433 21.25 22.3431C21.23 22.4429 21.19 22.5228 21.12 22.6026C20.94 22.7922 20.81 23.0317 20.75 23.2812C20.69 23.5406 20.69 23.8001 20.76 24.0595C20.83 24.309 20.97 24.5385 21.15 24.7281C21.34 24.9177 21.57 25.0475 21.82 25.1173C21.77 25.257 21.68 25.3867 21.57 25.4766C21.45 25.5764 21.31 25.6362 21.17 25.6562V25.6761L21.15 25.6961ZM25.6 21.4949C25.49 21.7943 25.36 21.7643 25.16 21.6446C24.36 21.1057 23.42 20.8064 22.46 20.7764C22.28 20.7565 22.09 20.7864 21.92 20.8762C21.76 20.966 21.62 21.0957 21.53 21.2554C21.47 21.3752 21.37 21.465 21.25 21.5348C21.13 21.5947 21 21.6246 20.87 21.6147C20.35 21.6147 20.14 21.435 20.19 20.9261C20.24 20.4072 20.09 20.3174 19.67 20.3673C19.25 20.4172 19.22 20.2874 19.39 19.9581C19.43 19.8583 19.45 19.7585 19.47 19.6588C19.49 19.6188 19.49 19.5689 19.47 19.529C19.46 19.4891 19.43 19.4492 19.4 19.4193C19.28 19.3494 19.2 19.4193 19.12 19.5091C18.56 20.0479 18.29 20.0879 17.92 19.6787C17.78 19.4292 17.72 19.1498 17.74 18.8704C17.76 18.591 17.88 18.3216 18.07 18.112C18.62 17.5133 19.27 17.8925 19.87 17.8725C20.11 17.8725 20.05 18.2218 20.14 18.4014C20.23 18.581 20.34 18.8205 20.54 18.7307C20.75 18.6409 20.64 18.4014 20.54 18.2517C20.47 18.1619 20.42 18.0521 20.39 17.9424C20.36 17.8326 20.37 17.7128 20.39 17.6031C20.42 17.4933 20.48 17.3835 20.55 17.3037C20.63 17.2139 20.72 17.154 20.83 17.1041C21.17 16.8946 20.96 16.5353 21.11 16.2659C21.26 15.9964 21.31 15.717 21.55 15.5673C21.8 15.4077 22.2 15.1283 21.44 14.8488C22.01 14.759 22.27 15.1981 22.77 15.1382C22.14 14.4796 21.35 13.9807 20.48 13.7112C20.28 13.6514 20.06 13.6514 19.86 13.7112C19.97 13.8709 20.15 14.0605 19.99 14.2401C19.82 14.4197 19.6 14.32 19.39 14.2401L19.05 14.1104C18.9 14.0405 18.63 14.0605 18.67 13.841C18.7 13.7511 18.76 13.6613 18.84 13.6114C18.92 13.5516 19.02 13.5316 19.12 13.5416C19.57 13.5416 20.1 13.2821 20.48 13.6713C20.75 13.5416 20.73 13.4917 20.38 13.2522L19.83 13.1125C19.95 13.0526 20.08 13.0227 20.22 13.0227C20.36 13.0227 20.49 13.0526 20.61 13.1125C21.53 13.2821 22.4 13.6414 23.16 14.1703C23.93 14.6992 24.57 15.3877 25.04 16.186C25.51 16.9844 25.81 17.8725 25.9 18.8006C26 19.7186 25.9 20.6567 25.59 21.5348L25.6 21.4949Z" fill="#F68221"/>
</svg>
