<svg width="45" height="46" viewBox="0 0 45 46" fill="none" xmlns="http://www.w3.org/2000/svg">
<path d="M18.9951 3C13.9573 3 9.12582 5.00987 5.56355 8.58746C2.00127 12.1651 6.66947e-09 17.0173 6.66946e-09 22.0768C-0.000114362 26.4129 1.47069 30.6198 4.17002 34.004C6.86936 37.3882 10.6362 39.7479 14.8497 40.6943L17.4479 45.1409C17.6848 45.5405 18.0697 45.8296 18.5183 45.945C18.9669 46.0604 19.4427 45.9927 19.8417 45.7566C20.0968 45.6062 20.3108 45.3947 20.4645 45.1409L23.053 40.7138C27.2861 39.7828 31.0756 37.4276 33.7938 34.0383C36.5121 30.649 37.9961 26.4288 38 22.0768C37.9948 17.0172 35.9906 12.1665 32.4273 8.58973C28.8641 5.01298 24.0331 3.00259 18.9951 3V3Z" fill="white"/>
<path d="M19.0302 4.9367C14.4272 4.9367 10.0127 6.7718 6.7579 10.0383C3.50309 13.3048 1.67456 17.7351 1.67456 22.3546C1.67744 26.3121 3.02309 30.1506 5.48993 33.2381C7.95676 36.3255 11.3977 38.4779 15.2462 39.3407L17.6515 43.3935C17.7903 43.6361 17.9903 43.8376 18.2315 43.9778C18.4728 44.118 18.7465 44.1918 19.0253 44.1918C19.304 44.1918 19.5778 44.118 19.819 43.9778C20.0602 43.8376 20.2603 43.6361 20.3991 43.3935L22.7653 39.3604C26.6395 38.5218 30.1108 36.377 32.6014 33.283C35.092 30.1889 36.4517 26.3322 36.4542 22.3546C36.4555 20.0611 36.0052 17.7899 35.1292 15.6716C34.2532 13.5533 32.9687 11.6296 31.3496 10.011C29.7304 8.39247 27.8086 7.11096 25.6944 6.24014C23.5802 5.36932 21.3154 4.92636 19.0302 4.9367Z" fill="#F68221"/>
<path d="M20.7724 8.68167C22.7751 8.67617 24.717 9.34455 26.2629 10.5715C26.5812 10.8178 26.8532 11.1151 27.0669 11.4502C27.1944 11.6676 27.263 11.9132 26.9983 12.0928C26.7336 12.2723 26.5473 12.0928 26.3904 11.951C25.8857 11.3552 25.2788 10.8471 24.5962 10.4486C23.4957 9.85433 22.2747 9.49676 21.0172 9.40052C19.7597 9.30428 18.4954 9.47166 17.3114 9.89115C17.0957 9.9573 16.7428 10.2313 16.6349 9.89115C16.5271 9.55099 16.9291 9.48484 17.184 9.3809C17.6505 9.19633 18.1327 9.0509 18.6252 8.94625C19.3301 8.78987 20.0494 8.70125 20.7724 8.68167Z" fill="white"/>
<path d="M17.4363 36.0574C15.369 36.0625 13.3811 35.2847 11.8955 33.8895C11.5861 33.5872 11.3195 33.2464 11.1026 32.876C10.9769 32.6789 10.8318 32.4255 11.1026 32.2472C11.3733 32.0689 11.5571 32.3035 11.7214 32.4819L11.8858 32.6789C12.5322 33.4876 13.3523 34.15 14.2891 34.62C15.2259 35.09 16.257 35.3563 17.3106 35.4005C18.4001 35.4805 19.4957 35.3789 20.55 35.1002C20.7337 35.0532 21.0238 34.8749 21.1108 35.1002C21.1978 35.3254 20.8787 35.4849 20.666 35.56C19.6241 35.8936 18.5334 36.0616 17.4363 36.0574Z" fill="white"/>
<path d="M26.0158 13.4851C26.028 13.5671 26.016 13.6508 25.9813 13.7261C25.9465 13.8014 25.8906 13.865 25.8202 13.9093C25.7499 13.9536 25.6681 13.9766 25.5848 13.9755C25.5016 13.9744 25.4204 13.9493 25.3512 13.9032C25.2001 13.8155 25.07 13.6961 24.97 13.5532C24.1159 12.5004 22.9384 11.7554 21.6179 11.4322C20.2975 11.1091 18.9069 11.2256 17.6594 11.764C17.3662 11.8807 16.9166 12.1919 16.77 11.8321C16.6234 11.4723 17.1805 11.3362 17.4737 11.2292C18.6205 10.7291 19.8773 10.5308 21.1233 10.6534C22.3694 10.776 23.5628 11.2154 24.5889 11.9293C25.057 12.2752 25.4776 12.6805 25.8399 13.1351C25.8915 13.1785 25.9338 13.2319 25.964 13.2921C25.9943 13.3523 26.0119 13.4179 26.0158 13.4851Z" fill="white"/>
<path d="M18.2002 34.1112C17.0447 34.1727 15.8945 33.9103 14.87 33.3516C13.8456 32.7929 12.9846 31.9584 12.3771 30.9354C12.2704 30.7439 12.1248 30.5523 12.3771 30.3507C12.6294 30.1491 12.7944 30.27 12.9691 30.4515C13.0726 30.5503 13.1639 30.6621 13.2409 30.7842C14.0209 31.9102 15.129 32.7456 16.4014 33.1668C17.6738 33.588 19.0429 33.5727 20.3062 33.1232C20.5053 33.0538 20.7099 33.0032 20.9177 32.9719C21.0341 32.9719 21.1797 32.9719 21.2379 33.0929C21.2962 33.2139 21.1894 33.3651 21.0632 33.4458C20.7299 33.6452 20.3651 33.7817 19.986 33.8491C19.4018 34.0046 18.8029 34.0925 18.2002 34.1112Z" fill="white"/>
<path d="M24.6034 15.2045C24.5996 15.2559 24.584 15.306 24.5577 15.3508C24.5314 15.3957 24.4951 15.4343 24.4514 15.4638C24.4077 15.4933 24.3578 15.5129 24.3053 15.5212C24.2528 15.5295 24.1991 15.5263 24.148 15.5119C23.9175 15.4587 23.7078 15.3419 23.5442 15.1756C22.9142 14.5293 22.1087 14.0691 21.2207 13.8481C20.3326 13.6272 19.3983 13.6544 18.5256 13.9268C18.2619 13.9707 18.0009 14.0284 17.7436 14.0997C17.5555 14.1477 17.3576 14.167 17.2784 13.9844C17.1992 13.8019 17.4071 13.6482 17.5654 13.5714C18.038 13.3631 18.5433 13.2332 19.0601 13.1871C20.0013 12.9974 20.9768 13.0433 21.8947 13.3206C22.8125 13.5979 23.6425 14.0975 24.3064 14.7722C24.4394 14.8913 24.5412 15.0395 24.6034 15.2045Z" fill="white"/>
<path d="M18.4171 31.6636C17.5345 31.6949 16.6576 31.5115 15.8616 31.1289C15.0656 30.7463 14.3743 30.1761 13.8473 29.4673C13.738 29.3083 13.5492 29.1493 13.7281 28.9505C13.9069 28.7517 14.1254 28.8213 14.3241 28.9505C14.4386 29.0046 14.5377 29.0866 14.6122 29.189C16.0626 30.9977 17.9601 31.3157 20.096 30.8785C20.3543 30.8288 20.7417 30.5903 20.851 30.958C20.9603 31.3257 20.5132 31.3853 20.2351 31.4648C19.6405 31.6108 19.0292 31.6777 18.4171 31.6636Z" fill="white"/>
<path d="M26.3673 20.9317C26.1669 20.2361 25.9071 19.5589 25.5909 18.9074L25.3354 18.5749C24.4907 17.2854 23.2426 16.3089 21.784 15.7963C20.3255 15.2836 18.7379 15.2635 17.2667 15.7389C15.5111 16.3047 14.0407 17.5194 13.1586 19.1323L12.795 20.0124C12.305 21.4025 12.2332 22.9047 12.5886 24.3348C12.6378 24.4522 12.6967 24.5597 12.7361 24.6771C13.0331 25.5549 13.5012 26.3659 14.1138 27.0634C14.7263 27.7609 15.4711 28.3314 16.3056 28.742C17.14 29.1526 18.0477 29.3953 18.9766 29.4563C19.9054 29.5173 20.8373 29.3952 21.7187 29.0972L21.9841 28.9995C23.4773 28.4063 24.7386 27.3501 25.5811 25.9875L26.0528 24.9313C26.3892 23.9901 26.5523 22.9963 26.5344 21.9976C26.4983 21.6395 26.4425 21.2837 26.3673 20.9317ZM21.1487 28.755C19.6799 29.1451 18.1202 29.012 16.7397 28.3785C15.3591 27.7451 14.2446 26.6512 13.5891 25.2864C12.9336 23.9215 12.7784 22.3715 13.1502 20.9048C13.5221 19.438 14.3977 18.1468 15.6254 17.2547C15.6626 17.5113 15.6394 17.7729 15.5575 18.019C15.4757 18.2651 15.3374 18.4889 15.1537 18.6727C15.0494 18.7852 14.9764 18.9229 14.9419 19.0721C14.9075 19.2213 14.9127 19.3769 14.9571 19.5235C15.2323 20.1591 15.2716 20.8534 15.5272 21.4793C15.578 21.5748 15.6407 21.6635 15.7139 21.7433C15.8318 21.5771 15.6156 21.4206 15.7729 21.225C15.9694 21.7238 16.451 22.0171 16.451 22.6235C16.451 22.9755 17.3355 23.396 17.876 23.484C18.5404 23.5802 19.1603 23.8732 19.6549 24.325C19.7911 24.4966 19.9642 24.6357 20.1615 24.7322C20.3587 24.8286 20.5751 24.88 20.7949 24.8824C20.9816 24.8824 21.1684 24.8824 21.2175 25.1171C21.2453 25.211 21.249 25.3102 21.2284 25.4059C21.2078 25.5015 21.1635 25.5905 21.0996 25.6648C20.9195 25.8572 20.7922 26.0924 20.7297 26.3478C20.6672 26.6033 20.6717 26.8704 20.7427 27.1236C20.8137 27.3768 20.9489 27.6077 21.1353 27.794C21.3217 27.9803 21.553 28.1159 21.8072 28.1878C21.7565 28.3292 21.6688 28.4546 21.553 28.5509C21.4372 28.6472 21.2976 28.7109 21.1487 28.7354V28.755ZM25.6007 24.5402C25.4926 24.8433 25.3649 24.814 25.1585 24.6868C24.3591 24.147 23.4215 23.845 22.4558 23.8165C22.2712 23.7946 22.0844 23.8287 21.9195 23.9142C21.7547 23.9996 21.6197 24.1326 21.532 24.2957C21.4694 24.4131 21.3738 24.5098 21.2569 24.5741C21.1399 24.6383 21.0067 24.6673 20.8735 24.6575C20.3526 24.6575 20.1463 24.4815 20.1954 23.9632C20.2445 23.4449 20.0971 23.3569 19.6745 23.4058C19.2519 23.4547 19.2224 23.3275 19.3895 22.9951C19.426 22.8969 19.4524 22.7954 19.4681 22.6919C19.4835 22.6506 19.485 22.6055 19.4727 22.5633C19.4603 22.521 19.4346 22.4838 19.3993 22.4572C19.2814 22.3888 19.2028 22.4572 19.1242 22.5452C18.564 23.0831 18.2986 23.1222 17.9252 22.7115C17.7831 22.4661 17.7209 22.1829 17.7473 21.9009C17.7737 21.6189 17.8874 21.3521 18.0726 21.137C18.6229 20.5405 19.2716 20.9121 19.8711 20.8925C20.1069 20.8925 20.048 21.2446 20.1364 21.4206C20.2249 21.5966 20.333 21.8411 20.5394 21.7531C20.7458 21.6651 20.6377 21.4206 20.5394 21.2739C20.4666 21.1834 20.4161 21.0772 20.3919 20.9638C20.3677 20.8504 20.3706 20.7329 20.4002 20.6207C20.4298 20.5086 20.4853 20.4049 20.5624 20.318C20.6395 20.231 20.7359 20.1632 20.844 20.12C21.188 19.9146 20.9718 19.5528 21.1192 19.279C21.2666 19.0052 21.3158 18.7313 21.5615 18.5749C21.8072 18.4184 22.2101 18.1348 21.4534 17.8512C22.0234 17.7632 22.2789 18.2033 22.7801 18.1446C22.1531 17.4804 21.3644 16.9886 20.4902 16.7168C20.2876 16.6615 20.0737 16.6615 19.8711 16.7168C19.9792 16.8733 20.1659 17.0689 19.9988 17.2449C19.8318 17.4209 19.6057 17.3231 19.3993 17.2449L19.0554 17.1178C18.9079 17.0493 18.6328 17.0689 18.6721 16.844C18.701 16.7495 18.7617 16.6678 18.8441 16.6126C18.9264 16.5574 19.0253 16.532 19.1242 16.5408C19.5762 16.5408 20.1069 16.2768 20.4804 16.6679C20.7458 16.5408 20.7261 16.4919 20.3821 16.2474L19.8318 16.1105C19.9529 16.0525 20.0855 16.0223 20.22 16.0223C20.3544 16.0223 20.4871 16.0525 20.6082 16.1105C21.5262 16.2766 22.3975 16.6374 23.1628 17.1685C23.9281 17.6997 24.5694 18.3886 25.0432 19.1885C25.5169 19.9883 25.8119 20.8804 25.9081 21.8038C26.0043 22.7273 25.8995 23.6606 25.6007 24.5402Z" fill="white"/>
<path d="M43.5508 8.52082C43.5508 12.9518 39.9679 16.5416 35.5508 16.5416C31.1337 16.5416 27.5508 12.9518 27.5508 8.52082C27.5508 4.08989 31.1337 0.5 35.5508 0.5C39.9679 0.5 43.5508 4.08989 43.5508 8.52082Z" fill="#BB133E" stroke="white"/>
</svg>
