<svg id="Camada_1" data-name="Camada 1" xmlns="http://www.w3.org/2000/svg" viewBox="0 0 308 344"><defs><style>.cls-1{fill:#fff;}.cls-2{fill:#007e70;}</style></defs><title>maxtrack cópia</title><path class="cls-1" d="M155.46,3h0A148.93,148.93,0,0,0,6.53,151.9h0A149,149,0,0,0,122.94,297.23l20.39,34.66a13.7,13.7,0,0,0,23.61,0l20.28-34.49A149,149,0,0,0,304.39,151.9h0A148.93,148.93,0,0,0,155.46,3Z"/><path class="cls-2" d="M155.46,18.22h0A135.4,135.4,0,0,0,20.07,153.62h0A135.41,135.41,0,0,0,125.9,285.73l18.53,31.51a12.44,12.44,0,0,0,21.46,0l18.44-31.35A135.41,135.41,0,0,0,290.85,153.62h0A135.39,135.39,0,0,0,155.46,18.22Z"/><path class="cls-1" d="M86.72,243.72a6.48,6.48,0,0,1-6.48-6.48V76.91a9.73,9.73,0,0,1,4.82-8.39c4.9-2.85,14.77-6.24,34.06-6.24,15.07,0,31.93,6,46.8,11.21,12,4.23,23.29,8.23,31,8.23a74.62,74.62,0,0,0,28.76-5.87,7.29,7.29,0,0,1,9.55,3.88,7.45,7.45,0,0,1,.57,2.83V171.4a8.1,8.1,0,0,1-4.86,7.42,88.34,88.34,0,0,1-34,6.58c-9.78,0-22-2.89-35-6-14.57-3.44-29.64-7-42.77-7-14.93,0-22.57,2.26-25.92,3.69v61.11A6.48,6.48,0,0,1,86.72,243.72Z"/></svg>