<svg width="19" height="20" viewBox="0 0 19 20" fill="none" xmlns="http://www.w3.org/2000/svg">
<path fill-rule="evenodd" clip-rule="evenodd" d="M18.5605 3.33356C18.6758 3.33032 18.7877 3.37278 18.8703 3.45124L18.8718 3.44431C18.9577 3.52359 19.0043 3.63509 18.9997 3.75026V4.58088C19.0035 4.6928 18.9592 4.8012 18.8774 4.87991C18.7945 4.95785 18.6827 4.9998 18.5676 4.99619H17.2726V17.342C17.2877 18.0176 17.0633 18.6776 16.6372 19.2109C16.2902 19.6984 15.7225 19.9924 15.1134 20H3.88375C3.28074 19.9952 2.71561 19.7129 2.35993 19.2386C1.93211 18.7159 1.70759 18.0628 1.72596 17.3946V4.99619H0.430994C0.315322 5.00018 0.202954 4.95821 0.119691 4.87991C0.039384 4.80045 -0.00380015 4.6923 0.000287338 4.58088V3.75026C-0.0039702 3.63881 0.0392393 3.5306 0.119691 3.45124C0.20272 3.37243 0.315116 3.32994 0.430994 3.33356H4.59875L5.54261 1.15872C5.69376 0.818888 5.94827 0.532367 6.27182 0.337786C6.58463 0.124122 6.95591 0.00648254 7.33793 0H11.6549C12.0365 0.0068415 12.4072 0.12446 12.7196 0.337786C13.043 0.532572 13.2975 0.819032 13.4488 1.15872L14.3927 3.33356H18.5605ZM7.13608 1.80937C7.19242 1.73752 7.27383 1.68827 7.36494 1.67094H11.6407C11.7316 1.68875 11.8129 1.7379 11.8696 1.80937L12.5164 3.33218H6.47367L7.13608 1.80937ZM15.2484 18.2183C15.3348 18.1139 15.4012 17.9953 15.4446 17.8681H15.446C15.5068 17.6987 15.5347 17.5199 15.5285 17.3406V4.99481H3.44594V17.3406C3.44364 17.5206 3.47545 17.6994 3.53975 17.8681C3.58355 17.9948 3.64943 18.1133 3.7345 18.2183C3.80273 18.2917 3.84964 18.3291 3.87664 18.3291H15.1063C15.1333 18.3291 15.1816 18.2931 15.2484 18.2183ZM6.47652 7.4936C6.59239 7.48998 6.70479 7.53246 6.78782 7.61127C6.86901 7.69083 6.91275 7.79958 6.90864 7.91168V15.4136C6.91253 15.5252 6.86879 15.6335 6.78782 15.7126C6.70479 15.7914 6.59239 15.8339 6.47652 15.8303H5.61226C5.49687 15.8335 5.38506 15.7911 5.30238 15.7126C5.22112 15.6337 5.17733 15.5253 5.18155 15.4136V7.91168C5.17693 7.79949 5.22074 7.69055 5.30238 7.61127C5.38506 7.53281 5.49687 7.49036 5.61226 7.4936H6.47652ZM9.92927 7.4936C10.0447 7.49036 10.1565 7.53281 10.2392 7.61127C10.3209 7.69045 10.3648 7.79946 10.36 7.91168V15.4136C10.3644 15.5253 10.3206 15.6338 10.2392 15.7126C10.1565 15.7911 10.0447 15.8335 9.92927 15.8303H9.06502C8.94914 15.8339 8.83674 15.7914 8.75372 15.7126C8.67274 15.6335 8.62901 15.5252 8.63289 15.4136V7.91168C8.62878 7.79958 8.67252 7.69083 8.75372 7.61127C8.83674 7.53246 8.94914 7.48998 9.06502 7.4936H9.92927ZM13.6919 7.61127C13.6092 7.53281 13.4974 7.49036 13.382 7.4936H12.5192C12.4038 7.49036 12.292 7.53281 12.2093 7.61127C12.1281 7.69083 12.0844 7.79958 12.0885 7.91168V15.4136C12.0846 15.5252 12.1283 15.6335 12.2093 15.7126C12.292 15.7911 12.4038 15.8335 12.5192 15.8303H13.382C13.4974 15.8335 13.6092 15.7911 13.6919 15.7126C13.7729 15.6335 13.8166 15.5252 13.8127 15.4136V7.91168C13.8172 7.79978 13.774 7.69106 13.6933 7.61127H13.6919Z" fill="#E84141"/>
</svg>
