<svg width="44" height="46" viewBox="0 0 44 46" fill="none" xmlns="http://www.w3.org/2000/svg">
<path fill-rule="evenodd" clip-rule="evenodd" d="M42.689 7.6672C42.9544 7.65974 43.2116 7.7574 43.4018 7.93784L43.405 7.92192C43.6026 8.10425 43.7099 8.36071 43.6993 8.6256V10.536C43.7081 10.7934 43.6062 11.0428 43.4181 11.2238C43.2274 11.4031 42.9703 11.4995 42.7054 11.4912H39.727V39.8866C39.7617 41.4405 39.2456 42.9585 38.2656 44.1851C37.4674 45.3064 36.1617 45.9826 34.7608 46H8.93263C7.5457 45.989 6.24591 45.3396 5.42784 44.2488C4.44386 43.0465 3.92745 41.5445 3.9697 40.0076V11.4912H0.991285C0.72524 11.5004 0.466795 11.4039 0.275289 11.2238C0.0905832 11.041 -0.00874034 10.7923 0.000660878 10.536V8.6256C-0.00913147 8.36927 0.0902503 8.12038 0.275289 7.93784C0.466256 7.75659 0.724767 7.65887 0.991285 7.6672H10.5771L12.748 2.66505C13.0957 1.88344 13.681 1.22444 14.4252 0.776909C15.1446 0.28548 15.9986 0.0149098 16.8772 0H26.8064C27.6838 0.0157354 28.5365 0.286258 29.2551 0.776909C29.9989 1.22492 30.5841 1.88377 30.9323 2.66505L33.1032 7.6672H42.689ZM16.4129 4.16147C16.5425 3.99622 16.7297 3.88294 16.9393 3.84307H26.7736C26.9827 3.88404 27.1696 3.9971 27.2999 4.16147L28.7875 7.66393H14.8894L16.4129 4.16147ZM35.0725 41.9017C35.2711 41.6616 35.4239 41.3888 35.5236 41.0961H35.5269C35.6666 40.7067 35.7309 40.2953 35.7165 39.883V11.4876H7.92673V39.883C7.92145 40.2969 7.9946 40.7081 8.14251 41.0961C8.24325 41.3877 8.39477 41.6602 8.59042 41.9017C8.74735 42.0705 8.85524 42.1564 8.91736 42.1564H34.7455C34.8076 42.1564 34.9188 42.0737 35.0725 41.9017ZM14.897 17.2348C15.1635 17.2264 15.422 17.3242 15.6129 17.5054C15.7997 17.6884 15.9003 17.9385 15.8908 18.1964V35.4507C15.8998 35.7075 15.7992 35.9565 15.6129 36.1385C15.422 36.3197 15.1635 36.4175 14.897 36.4091H12.9092C12.6438 36.4166 12.3866 36.3189 12.1964 36.1385C12.0095 35.9569 11.9088 35.7077 11.9185 35.4507V18.1964C11.9079 17.9383 12.0087 17.6877 12.1964 17.5054C12.3866 17.325 12.6438 17.2273 12.9092 17.2348H14.897ZM22.8378 17.2348C23.1032 17.2273 23.3603 17.325 23.5505 17.5054C23.7386 17.6875 23.8394 17.9383 23.8284 18.1964V35.4507C23.8385 35.7077 23.7377 35.9571 23.5505 36.1385C23.3603 36.3189 23.1032 36.4166 22.8378 36.4091H20.85C20.5835 36.4175 20.3249 36.3197 20.134 36.1385C19.9477 35.9565 19.8471 35.7075 19.8561 35.4507V18.1964C19.8466 17.9385 19.9472 17.6884 20.134 17.5054C20.3249 17.3242 20.5835 17.2264 20.85 17.2348H22.8378ZM31.4906 17.5064C31.3005 17.326 31.0433 17.2283 30.7779 17.2358H28.7934C28.528 17.2283 28.2708 17.326 28.0807 17.5064C27.8939 17.6894 27.7933 17.9396 27.8028 18.1974V35.4518C27.7938 35.7086 27.8944 35.9575 28.0807 36.1395C28.2708 36.32 28.528 36.4176 28.7934 36.4102H30.7779C31.0433 36.4176 31.3005 36.32 31.4906 36.1395C31.6769 35.9575 31.7775 35.7086 31.7685 35.4518V18.1974C31.7788 17.94 31.6794 17.69 31.4939 17.5064H31.4906Z" fill="#697489"/>
</svg>
