<svg width="20" height="20" viewBox="0 0 20 20" fill="none" xmlns="http://www.w3.org/2000/svg">
<path fill-rule="evenodd" clip-rule="evenodd" d="M4.84486 0.400391C4.17592 0.400391 3.63365 0.937649 3.63365 1.60039H1.21122C0.542279 1.60039 0 2.13765 0 2.80039V18.4004C0 19.0631 0.542279 19.6004 1.21122 19.6004H18.1682C18.8372 19.6004 19.3794 19.0631 19.3794 18.4004V2.80039C19.3794 2.13765 18.8372 1.60039 18.1682 1.60039H15.7458C15.7458 0.937649 15.2035 0.400391 14.5346 0.400391C13.8656 0.400391 13.3234 0.937649 13.3234 1.60039H6.05608C6.05608 0.937649 5.5138 0.400391 4.84486 0.400391ZM2.42244 6.40033H16.957V4.00033H2.42244V6.40033ZM2.42244 8.80042V17.2004H16.957V8.80042H2.42244ZM3.63363 10.0004H10.9009V12.4004H3.63363V10.0004ZM13.3233 13.6003H3.63363V16.0003H13.3233V13.6003Z" fill="#ACADAE"/>
</svg>
