<svg width="22" height="22" viewBox="0 0 22 22" fill="none" xmlns="http://www.w3.org/2000/svg">
<path d="M2.75 1C1.7933 1 1 1.79331 1 2.75V19.25C1 20.2067 1.7933 21 2.75 21H19.25C20.2067 21 21 20.2067 21 19.25V5.75C21.0004 5.55089 20.9219 5.35982 20.7812 5.21875L16.7812 1.21875C16.6402 1.07813 16.4491 0.999555 16.25 1H2.75ZM2.75 2.5H4.75V8.75C4.75 8.94866 4.82902 9.13973 4.96964 9.28036C5.11027 9.42098 5.30089 9.5 5.5 9.5H15.5C15.6987 9.5 15.8897 9.42098 16.0304 9.28036C16.171 9.13973 16.25 8.94866 16.25 8.75V2.8125L19.5 6.0625V19.25C19.5 19.4013 19.4013 19.5 19.25 19.5H2.75C2.59866 19.5 2.5 19.4013 2.5 19.25V2.75C2.5 2.59866 2.59866 2.5 2.75 2.5ZM6.25 2.5H14.75V8H6.25V2.5ZM11 11.25C9.21384 11.25 7.75 12.7138 7.75 14.5C7.75 16.2862 9.21384 17.75 11 17.75C12.7862 17.75 14.25 16.2862 14.25 14.5C14.25 12.7138 12.7862 11.25 11 11.25ZM11 12.75C11.9754 12.75 12.75 13.5246 12.75 14.5C12.75 15.4754 11.9754 16.25 11 16.25C10.0246 16.25 9.25 15.4754 9.25 14.5C9.25 13.5246 10.0246 12.75 11 12.75Z" fill="white" stroke="white" stroke-width="0.5"/>
</svg>
