<svg width="21" height="24" viewBox="0 0 21 24" fill="none" xmlns="http://www.w3.org/2000/svg">
<path fill-rule="evenodd" clip-rule="evenodd" d="M15.4169 0C12.8898 0 10.7499 1.68979 10.0641 3.99986H1.04442C0.20185 3.99986 -0.293199 4.95325 0.189649 5.64606C0.189663 5.64605 0.190086 5.64669 0.189649 5.64606C0.189495 5.64617 0.245088 5.72232 2.20697 8.40647C3.1015 9.63033 4.39235 11.3964 6.25492 13.9447C6.38179 14.1299 6.44882 14.3464 6.44882 14.5713V22.9003C6.44882 23.8114 7.48772 24.3178 8.20057 23.7794L10.8929 21.7395C11.2955 21.4388 11.5358 20.9588 11.5358 20.4548V14.5713C11.5358 14.3464 11.6029 14.1299 11.7298 13.9446L13.9034 10.9704C17.4626 11.9753 21 9.28184 21 5.58957C21 2.50747 18.4954 0 15.4169 0ZM10.593 13.1211C10.3202 13.4946 10.1334 14.0164 10.1334 14.5713C10.1334 16.0864 10.1353 17.218 10.1368 18.0638C10.1408 20.4333 10.141 20.5605 10.0844 20.5953C10.0812 20.5973 10.0778 20.5989 10.0742 20.6007C10.0683 20.6036 10.0619 20.6068 10.0549 20.612C10.0373 20.6252 10.0463 20.6182 10.0514 20.6143C10.0529 20.6131 10.0549 20.612 10.0549 20.612C10.0549 20.612 10.042 20.6213 9.99081 20.6601C9.84084 20.7738 9.35484 21.1424 7.85123 22.2816V14.5713C7.85123 14.0551 7.6957 13.5584 7.40143 13.1348C7.40158 13.1346 7.35907 13.0764 5.33692 10.3098C4.51379 9.1836 3.36263 7.60863 1.75277 5.40606H9.83708C9.76897 7.50848 10.8714 9.38858 12.5801 10.402L10.593 13.1211ZM11.2361 5.58957C11.2361 7.89632 13.1116 9.77295 15.4169 9.77295C17.7222 9.77295 19.5976 7.89632 19.5976 5.58957C19.5976 3.28287 17.7221 1.40624 15.4169 1.40624C13.1116 1.40624 11.2361 3.28287 11.2361 5.58957Z" fill="#3D7EDB"/>
<path d="M16.8485 4.1524C16.6462 3.94951 16.318 3.94923 16.1154 4.15171L15.5 4.76666L14.8846 4.15171C14.682 3.94919 14.3538 3.94944 14.1515 4.1524C13.9492 4.35523 13.9495 4.68387 14.1522 4.88638L14.7662 5.50002L14.1522 6.11366C13.9495 6.31617 13.9492 6.64481 14.1515 6.84764C14.3531 7.04984 14.6814 7.05147 14.8846 6.84833L15.5 6.23338L16.1154 6.84833C16.3174 7.05019 16.6456 7.05116 16.8485 6.84764C17.0508 6.64481 17.0505 6.31617 16.8478 6.11366L16.2338 5.50002L16.8478 4.88638C17.0505 4.68387 17.0508 4.35523 16.8485 4.1524Z" fill="#3D7EDB"/>
</svg>
