<?xml version="1.0" encoding="UTF-8"?>
<svg viewBox="0 0 21 24" version="1.1" xmlns="http://www.w3.org/2000/svg" xmlns:xlink="http://www.w3.org/1999/xlink">
    <title>ui</title>
    <g id="WorkBoard" stroke="none" stroke-width="1" fill="none" fill-rule="evenodd">
        <g id="Dashboard---heatmap" transform="translate(-815.000000, -112.000000)" fill="#FFFFFF" fill-rule="nonzero">
            <g id="Group-13" transform="translate(806.000000, 106.000000)">
                <g id="ui" transform="translate(9.000000, 6.000000)">
                    <path d="M15.4168811,0 C12.8897921,0 10.7498606,1.6897853 10.0641308,3.99986324 L1.04441579,3.99986324 C0.201850215,3.99986324 -0.293199135,4.95324733 0.189649282,5.64605509 C0.197128781,5.65688314 -0.0610541798,5.30340118 6.25491538,13.9447014 C6.38178639,14.1299032 6.4488214,14.3464174 6.4488214,14.5712752 L6.4488214,22.9003432 C6.4488214,23.8113526 7.48772383,24.3178335 8.20056684,23.7794309 L10.8928593,21.7395386 C11.2955368,21.4388376 11.5358158,20.9588409 11.5358158,20.4547506 L11.5358158,14.5712752 C11.5358158,14.3463705 11.6028975,14.1298564 11.7297685,13.9446076 L13.9033577,10.9703624 C17.4626176,11.9753086 21,9.28184269 21,5.5895711 C21,2.5074672 18.495443,0 15.4168811,0 Z M10.5929781,13.1211133 C10.3202102,13.4946107 10.1334097,14.0164196 10.1334097,14.5713221 C10.1334097,20.9689189 10.1677219,20.5282032 10.0548749,20.6120151 C9.9655884,20.678624 10.5613773,20.2282052 7.85122749,22.2815974 L7.85122749,14.5712752 C7.85122749,14.0550913 7.69570065,13.5584072 7.40142911,13.1347538 C7.39352889,13.1234101 7.63156395,13.4492829 1.75277111,5.40605673 L9.83708126,5.40605673 C9.76897107,7.50847983 10.8714025,9.38857634 12.5800941,10.4020069 L10.5929781,13.1211133 Z M15.4168811,9.7729487 C13.111606,9.7729487 11.2361216,7.89632093 11.2361216,5.5895711 C11.2361216,3.28286815 13.111606,1.40624037 15.4168811,1.40624037 C17.7221095,1.40624037 19.5975939,3.28286815 19.5975939,5.5895711 C19.5975939,7.89632093 17.7221562,9.7729487 15.4168811,9.7729487 Z" id="Shape"></path>
                    <path d="M16.848486,4.15240211 C16.6461682,3.9495052 16.3179806,3.9492284 16.1153517,4.1517101 L15.5,4.7666635 L14.8846483,4.1517101 C14.6820194,3.9491938 14.3537627,3.949436 14.151514,4.15240211 C13.9492307,4.35522981 13.9495417,4.68386467 14.1521706,4.88638098 L14.766209,5.50001955 L14.1521706,6.11365813 C13.9495417,6.31617444 13.9492307,6.6448093 14.151514,6.847637 C14.353106,7.0498419 14.6813627,7.05146812 14.8846483,6.84832901 L15.5,6.23337561 L16.1153517,6.84832901 C16.3173585,7.0501879 16.6456152,7.05115671 16.848486,6.847637 C17.0507693,6.6448093 17.0504583,6.31617444 16.8478294,6.11365813 L16.233791,5.50001955 L16.8478294,4.88638098 C17.0504583,4.68386467 17.0507693,4.35522981 16.848486,4.15240211 Z" id="Path"></path>
                </g>
            </g>
        </g>
    </g>
</svg>