<svg width="8" height="8" viewBox="0 0 8 8" fill="none" xmlns="http://www.w3.org/2000/svg">
<path d="M6.04902 7.66526C6.49533 8.11158 7.21895 8.11158 7.66527 7.66526C8.11158 7.21895 8.11158 6.49533 7.66527 6.04902L5.61624 4L7.66527 1.95098C8.11158 1.50467 8.11158 0.781049 7.66527 0.334735C7.21895 -0.111578 6.49533 -0.111578 6.04902 0.334735L4 2.38376L1.95098 0.334735C1.50467 -0.111578 0.781049 -0.111578 0.334735 0.334735C-0.111578 0.781048 -0.111578 1.50467 0.334735 1.95098L2.38376 4L0.334735 6.04902C-0.111578 6.49533 -0.111578 7.21895 0.334735 7.66526C0.781049 8.11158 1.50467 8.11158 1.95098 7.66526L4 5.61624L6.04902 7.66526Z" fill="#959DAC"/>
</svg>
