<svg width="18" height="18" viewBox="0 0 18 18" fill="none" xmlns="http://www.w3.org/2000/svg">
<path fill-rule="evenodd" clip-rule="evenodd" d="M6.65488 0.229993L11.6549 1.97999C11.8849 2.05999 12.1249 2.04999 12.3449 1.96999L15.2749 0.829993C16.5849 0.319993 17.9949 1.27999 17.9949 2.68999V14.54C17.9949 15.4 17.4449 16.17 16.6349 16.44L12.6449 17.78C12.2249 17.92 11.7649 17.92 11.3449 17.77L6.34488 16.02C6.12488 15.94 5.87488 15.94 5.65488 16.03L2.72488 17.17C1.41488 17.68 0.00488281 16.72 0.00488281 15.31V3.45999C0.00488281 2.59999 0.554883 1.83999 1.36488 1.55999L5.35488 0.219993C5.77488 0.0799933 6.23488 0.0799933 6.65488 0.229993ZM6.00488 13.78L12.0049 15.89V4.21999L6.00488 2.10999V13.78Z" fill="#909193"/>
</svg>
