<svg width="18" height="18" viewBox="0 0 18 18" fill="none" xmlns="http://www.w3.org/2000/svg">
<path fill-rule="evenodd" clip-rule="evenodd" d="M11.7106 11.4713H12.5006L16.7406 15.7313C17.1506 16.1413 17.1506 16.8113 16.7406 17.2213C16.3306 17.6313 15.6606 17.6313 15.2506 17.2213L11.0006 12.9713V12.1813L10.7306 11.9013C9.33063 13.1013 7.42063 13.7213 5.39063 13.3813C2.61063 12.9113 0.390626 10.5913 0.0506256 7.79133C-0.469374 3.56133 3.09063 0.00132874 7.32063 0.521329C10.1206 0.861329 12.4406 3.08133 12.9106 5.86133C13.2506 7.89133 12.6306 9.80133 11.4306 11.2013L11.7106 11.4713ZM2.00063 6.97133C2.00063 9.46133 4.01063 11.4713 6.50063 11.4713C8.99063 11.4713 11.0006 9.46133 11.0006 6.97133C11.0006 4.48133 8.99063 2.47133 6.50063 2.47133C4.01063 2.47133 2.00063 4.48133 2.00063 6.97133Z" fill="#ACADAE"/>
</svg>
